<?xml version="1.0" standalone="no"?>
<!DOCTYPE svg PUBLIC "-//W3C//DTD SVG 1.1//EN" "http://www.w3.org/Graphics/SVG/1.1/DTD/svg11.dtd" >
<svg xmlns="http://www.w3.org/2000/svg" xmlns:xlink="http://www.w3.org/1999/xlink" version="1.1">
<metadata></metadata>
<defs>
<font id="eirbold" horiz-adv-x="604" >
<font-face units-per-em="1000" ascent="800" descent="-200" />
<missing-glyph horiz-adv-x="228" />
<glyph unicode="fi" horiz-adv-x="526" d="M186 0h-128v478c0 151 97 232 235 232c69 0 125 -17 173 -62c-4 -47 -37 -77 -66 -95c-25 28 -61 53 -110 53c-63 0 -104 -45 -104 -108v-18h269v-480h-128v382h-141v-382z" />
<glyph unicode="fl" horiz-adv-x="556" d="M186 0h-128v520c0 113 77 190 189 190h208v-574c0 -21 12 -32 31 -32c5 0 10 0 16 2c18 -25 23 -58 23 -99c-23 -8 -38 -13 -74 -13c-83 0 -124 50 -124 148v464h-62c-50 0 -79 -26 -79 -92v-34h112v-98h-112v-382z" />
<glyph horiz-adv-x="0" />
<glyph horiz-adv-x="0" />
<glyph unicode="&#xd;" horiz-adv-x="0" />
<glyph unicode=" "  horiz-adv-x="228" />
<glyph unicode="&#x09;" horiz-adv-x="228" />
<glyph unicode="&#xa0;" horiz-adv-x="228" />
<glyph unicode="#" horiz-adv-x="669" d="M324 0l43 200h-129l-42 -200h-113l42 200h-105l19 100h108l21 100h-104l19 100h106l43 200h113l-43 -200h129l42 200h113l-42 -200h105l-19 -100h-108l-21 -100h104l-19 -100h-106l-43 -200h-113zM281 400l-21 -100h128l21 100h-128z" />
<glyph unicode="$" horiz-adv-x="621" d="M256 -85v80c-122 20 -190 103 -212 199c24 25 65 40 113 40c6 0 8 0 18 -1c9 -50 37 -90 81 -108v197c-114 36 -175 107 -175 197s57 166 175 186v80h114v-79c92 -15 145 -67 179 -119c-16 -35 -64 -71 -98 -82c-20 37 -47 65 -81 80v-169c140 -42 197 -92 197 -208 c0 -124 -85 -197 -197 -214v-79h-114zM434 203c0 33 -14 58 -64 82v-163c38 13 64 41 64 81zM209 526c0 -25 14 -47 47 -66v127c-32 -12 -47 -34 -47 -61z" />
<glyph unicode="%" horiz-adv-x="725" d="M102 251l476 275l45 -77l-476 -275zM508 328c96 0 176 -68 176 -169s-80 -169 -176 -169s-175 68 -175 169s79 169 175 169zM508 240c-48 0 -80 -34 -80 -81s32 -81 80 -81s81 34 81 81s-33 81 -81 81zM216 710c96 0 176 -68 176 -169s-80 -169 -176 -169 s-175 68 -175 169s79 169 175 169zM216 622c-48 0 -80 -34 -80 -81s32 -81 80 -81s81 34 81 81s-33 81 -81 81z" />
<glyph unicode="&#x26;" horiz-adv-x="684" d="M485 553c0 -100 -61 -162 -145 -198l112 -129c16 37 29 80 39 125c43 -1 86 -16 114 -39c-16 -70 -40 -131 -71 -181l115 -131h-148l-41 47c-46 -37 -103 -57 -172 -57c-141 0 -238 94 -238 210c0 86 37 147 116 193c-31 43 -54 87 -54 142c0 103 75 175 190 175 c107 0 183 -66 183 -157zM302 100c34 0 62 13 86 32l-154 179c-38 -24 -56 -56 -56 -102c0 -59 48 -109 124 -109zM232 532c0 -29 12 -57 38 -93c72 32 99 62 99 111c0 34 -24 62 -68 62c-33 0 -69 -24 -69 -80z" />
<glyph unicode="'" horiz-adv-x="230" d="M72 490l-14 210h114l-14 -210c-9 -5 -25 -8 -43 -8s-34 3 -43 8z" />
<glyph unicode="(" horiz-adv-x="369" d="M200 350c0 -142 45 -243 130 -342c-14 -36 -46 -69 -90 -76c-81 75 -160 207 -160 418s79 343 160 418c44 -7 76 -40 90 -76c-85 -99 -130 -200 -130 -342z" />
<glyph unicode=")" horiz-adv-x="369" d="M169 350c0 142 -45 243 -130 342c14 36 46 69 90 76c81 -75 160 -207 160 -418s-79 -343 -160 -418c-44 7 -76 40 -90 76c85 99 130 200 130 342z" />
<glyph unicode="*" horiz-adv-x="408" d="M148 700h112l-15 -88l69 57l56 -97l-83 -31l83 -31l-56 -97l-69 57l15 -88h-112l15 88l-69 -57l-56 97l83 31l-83 31l56 97l69 -57z" />
<glyph unicode="+" horiz-adv-x="510" d="M34 292v110h166v166h110v-166h166v-110h-166v-166h-110v166h-166z" />
<glyph unicode="," horiz-adv-x="302" d="M53 -126l45 251l143 -40l-100 -238c-32 0 -69 11 -88 27z" />
<glyph unicode="-" horiz-adv-x="410" d="M34 276v122h342v-122h-342z" />
<glyph unicode="." horiz-adv-x="314" d="M68 79c0 49 40 89 89 89s89 -40 89 -89s-40 -89 -89 -89s-89 40 -89 89z" />
<glyph unicode="/" horiz-adv-x="596" d="M26 0l412 700h132l-412 -700h-132z" />
<glyph unicode="0" horiz-adv-x="702" d="M351 -10c-170 0 -303 121 -303 360s133 360 303 360s303 -121 303 -360s-133 -360 -303 -360zM351 582c-96 0 -165 -87 -165 -232s69 -232 165 -232s165 87 165 232s-69 232 -165 232z" />
<glyph unicode="1" horiz-adv-x="388" d="M83 490c-24 18 -45 60 -50 106c63 22 109 51 149 104h138v-700h-138v542c-27 -26 -58 -41 -99 -52z" />
<glyph unicode="2" horiz-adv-x="574" d="M189 122h330v-122h-468v101c0 141 80 223 214 271c85 30 122 74 122 128c0 52 -42 90 -101 90c-64 0 -108 -42 -122 -103c-47 3 -95 19 -118 45c26 94 100 178 236 178c151 0 233 -82 233 -200c0 -123 -59 -186 -194 -240c-86 -34 -127 -82 -132 -148z" />
<glyph unicode="3" horiz-adv-x="598" d="M280 313h-34c-7 13 -11 34 -11 57s4 46 12 63h33c77 0 105 38 105 89c0 38 -35 76 -100 76c-57 0 -96 -39 -114 -96c-42 5 -86 24 -112 50c29 97 111 158 229 158c135 0 221 -68 221 -167c0 -83 -35 -128 -89 -155c72 -29 125 -82 125 -176c0 -129 -99 -222 -251 -222 c-151 0 -232 93 -258 188c25 34 73 52 123 52c21 -74 64 -118 132 -118c75 0 116 38 116 105c0 62 -49 96 -127 96z" />
<glyph unicode="4" horiz-adv-x="612" d="M50 148v118c70 155 184 323 321 434h138v-434h60v-118h-60v-148h-138v148h-321zM371 529c-57 -52 -143 -169 -177 -263h177v263z" />
<glyph unicode="5" horiz-adv-x="617" d="M64 319l37 381h432v-110h-328l-19 -151c28 26 78 51 139 51c140 0 240 -91 240 -249s-114 -251 -255 -251c-152 0 -231 91 -254 179c26 30 70 49 121 49c17 -58 63 -104 132 -104c73 0 128 46 128 127s-55 131 -126 131c-56 0 -106 -37 -121 -83c-9 -1 -13 -1 -19 -1 c-45 0 -89 10 -107 31z" />
<glyph unicode="6" horiz-adv-x="615" d="M332 600c-78 0 -124 -72 -144 -163c40 25 89 41 140 41c140 0 239 -90 239 -243c0 -158 -122 -245 -250 -245c-156 0 -269 112 -269 336c0 216 109 384 284 384c106 0 177 -49 220 -127c-20 -40 -61 -62 -101 -70c-27 53 -66 87 -119 87zM318 370 c-55 0 -106 -28 -142 -72c4 -123 54 -198 138 -198c70 0 125 51 125 135s-56 135 -121 135z" />
<glyph unicode="7" horiz-adv-x="523" d="M473 700v-94c0 -222 -188 -342 -188 -606h-136c3 317 194 400 194 570h-312v130h442z" />
<glyph unicode="8" horiz-adv-x="613" d="M529 534c0 -68 -29 -115 -66 -155c66 -40 98 -96 98 -168c0 -150 -111 -221 -251 -221c-134 0 -258 69 -258 218c0 82 45 141 95 177c-41 36 -61 84 -61 141c0 122 102 184 219 184c134 0 224 -75 224 -176zM284 320l-43 12c-35 -29 -56 -71 -56 -117 c0 -76 57 -111 124 -111c60 0 120 34 120 98c0 65 -53 95 -145 118zM343 428l15 -4c30 26 47 61 47 96c0 43 -38 84 -100 84c-59 0 -98 -29 -98 -74c0 -49 44 -77 136 -102z" />
<glyph unicode="9" horiz-adv-x="615" d="M287 100c81 0 130 70 145 169c-39 -27 -76 -47 -137 -47c-148 0 -247 90 -247 243c0 158 122 245 250 245c164 0 269 -112 269 -336c0 -216 -101 -384 -276 -384c-114 0 -185 49 -228 127c20 40 60 62 99 68c27 -53 68 -85 125 -85zM302 330c55 0 105 26 137 71 c-2 126 -51 199 -138 199c-70 0 -125 -51 -125 -135c0 -83 56 -135 126 -135z" />
<glyph unicode=":" horiz-adv-x="314" d="M68 401c0 49 40 89 89 89s89 -40 89 -89s-40 -89 -89 -89s-89 40 -89 89zM68 79c0 49 40 89 89 89s89 -40 89 -89s-40 -89 -89 -89s-89 40 -89 89z" />
<glyph unicode=";" horiz-adv-x="313" d="M67 401c0 49 40 89 89 89s89 -40 89 -89s-40 -89 -89 -89s-89 40 -89 89zM41 -126l45 251l143 -40l-100 -238c-32 0 -69 11 -88 27z" />
<glyph unicode="&#x3c;" horiz-adv-x="531" d="M64 355l356 195c27 -20 49 -61 50 -104l-262 -136l262 -136c-1 -43 -23 -84 -50 -104l-356 195v90z" />
<glyph unicode="=" horiz-adv-x="510" d="M34 192v102h442v-102h-442zM34 366v102h442v-102h-442z" />
<glyph unicode="&#x3e;" horiz-adv-x="531" d="M111 550l356 -195v-90l-356 -195c-27 20 -49 61 -50 104l262 136l-262 136c1 43 23 84 50 104z" />
<glyph unicode="?" horiz-adv-x="528" d="M155 503c-44 0 -91 20 -106 52c32 94 114 155 222 155c134 0 207 -79 207 -173c0 -160 -153 -160 -153 -297v-10h-126v13c0 168 157 197 157 284c0 41 -38 69 -90 69c-60 0 -92 -36 -111 -93zM173 79c0 49 40 89 89 89s89 -40 89 -89s-40 -89 -89 -89s-89 40 -89 89z" />
<glyph unicode="@" horiz-adv-x="878" d="M609 16c-66 -35 -132 -52 -198 -52c-193 0 -357 120 -357 356c0 229 169 390 424 390c227 0 348 -138 348 -301c0 -184 -102 -292 -216 -292c-51 0 -86 24 -86 62c0 3 0 6 1 10c-32 -52 -80 -72 -140 -72c-89 0 -174 71 -174 205c0 155 123 241 243 241 c80 0 148 -36 186 -73l-31 -234c-1 -5 -1 -10 -1 -14c0 -18 7 -28 26 -28c30 0 83 59 83 184c0 136 -97 216 -249 216c-164 0 -307 -107 -307 -293c0 -166 115 -259 252 -259c61 0 106 17 149 40c25 -18 44 -47 47 -86zM444 466c-69 0 -129 -54 -129 -147 c0 -69 36 -105 92 -105c65 0 92 49 102 117l15 105c-21 20 -44 30 -80 30z" />
<glyph unicode="A" horiz-adv-x="666" d="M388 700c104 -159 205 -414 260 -700h-138c-10 51 -21 104 -34 157h-286c-13 -53 -25 -106 -34 -157h-138c55 286 156 541 260 700h110zM333 530c-38 -65 -74 -153 -105 -249h210c-31 96 -67 184 -105 249z" />
<glyph unicode="B" horiz-adv-x="631" d="M68 0v700h230c143 0 241 -60 241 -187c0 -53 -18 -97 -48 -130c56 -36 95 -93 95 -178c0 -127 -99 -205 -270 -205h-248zM307 313c-30 0 -70 1 -101 7v-200h132c66 0 120 24 120 100c0 50 -34 86 -86 100c-21 -4 -43 -7 -65 -7zM415 503c0 56 -38 87 -104 87h-105v-160 c35 -7 57 -10 101 -10c66 0 108 27 108 83z" />
<glyph unicode="C" horiz-adv-x="738" d="M569 253c47 -5 98 -32 125 -67c-63 -133 -173 -196 -301 -196c-176 0 -343 119 -343 360s173 360 348 360c145 0 228 -63 286 -161c-20 -39 -73 -70 -117 -76c-36 69 -95 109 -173 109c-105 0 -206 -84 -206 -232s92 -232 206 -232c79 0 141 58 175 135z" />
<glyph unicode="D" horiz-adv-x="710" d="M76 0v700h229c183 0 355 -99 355 -350s-172 -350 -355 -350h-229zM522 350c0 152 -88 222 -221 222h-87v-444h87c131 0 221 70 221 222z" />
<glyph unicode="E" d="M68 0v700h488v-128h-350v-143h230v-128h-230v-173h360v-128h-498z" />
<glyph unicode="F" d="M68 0v700h496v-128h-358v-181h280v-128h-280v-263h-138z" />
<glyph unicode="G" horiz-adv-x="755" d="M555 156v106h-172v124h300v-306c-86 -61 -167 -90 -269 -90c-210 0 -364 130 -364 360c0 241 179 360 354 360c151 0 239 -65 293 -161c-23 -41 -73 -70 -117 -76c-36 69 -102 109 -180 109c-110 0 -212 -84 -212 -232s92 -232 226 -232c51 0 101 10 141 38z" />
<glyph unicode="H" horiz-adv-x="734" d="M68 0v700h138v-265h322v265h138v-700h-138v307h-322v-307h-138z" />
<glyph unicode="I" horiz-adv-x="274" d="M68 0v700h138v-700h-138z" />
<glyph unicode="J" horiz-adv-x="565" d="M38 141c22 30 67 61 121 64c20 -62 55 -87 114 -87c50 0 90 36 90 104v478h138v-483c0 -146 -99 -227 -228 -227c-136 0 -205 68 -235 151z" />
<glyph unicode="K" horiz-adv-x="659" d="M458 0l-210 299c-14 -12 -28 -23 -42 -33v-266h-138v700h138v-262c88 79 141 159 192 262h143c-48 -117 -117 -222 -194 -306l276 -394h-165z" />
<glyph unicode="L" horiz-adv-x="612" d="M68 0v700h138v-572h364v-128h-502z" />
<glyph unicode="M" horiz-adv-x="906" d="M453 0h-64c-31 152 -106 353 -183 474v-474h-138v700h164c76 -113 186 -323 221 -476v-224zM517 0h-64v224c35 153 145 363 221 476h164v-700h-138v474c-77 -121 -152 -322 -183 -474z" />
<glyph unicode="N" horiz-adv-x="704" d="M68 0v700h132c90 -104 235 -302 298 -436v436h138v-700h-157c-81 187 -182 348 -273 457v-457h-138z" />
<glyph unicode="O" horiz-adv-x="790" d="M395 -10c-181 0 -345 116 -345 360s164 360 345 360s345 -116 345 -360s-164 -360 -345 -360zM395 582c-113 0 -207 -84 -207 -232s94 -232 207 -232s207 84 207 232s-94 232 -207 232z" />
<glyph unicode="P" horiz-adv-x="603" d="M68 0v700h223c158 0 264 -80 264 -220c0 -150 -115 -221 -251 -221c-40 0 -70 3 -98 9v-268h-138zM417 477c0 60 -40 95 -130 95h-81v-169c28 -11 59 -16 99 -16c73 0 112 30 112 90z" />
<glyph unicode="Q" horiz-adv-x="790" d="M395 -10c-181 0 -345 116 -345 360s164 360 345 360s345 -116 345 -360c0 -122 -41 -212 -104 -271c28 -25 61 -46 100 -61c-3 -39 -20 -81 -48 -102c-56 19 -109 54 -156 98c-43 -16 -89 -24 -137 -24zM395 582c-113 0 -207 -84 -207 -232s94 -232 207 -232 c16 0 33 2 48 5c-18 29 -32 59 -44 89c17 34 61 58 109 59c12 -30 26 -58 41 -84c33 39 53 94 53 163c0 148 -94 232 -207 232z" />
<glyph unicode="R" horiz-adv-x="624" d="M560 492c0 -88 -43 -151 -114 -184c66 -77 110 -179 124 -308h-138c-14 109 -62 210 -126 282c-32 0 -67 4 -100 11v-293h-138v700h247c153 0 245 -75 245 -208zM430 490c0 58 -32 90 -114 90h-110v-169c34 -7 67 -11 110 -11c69 0 114 32 114 90z" />
<glyph unicode="S" horiz-adv-x="621" d="M209 526c0 -42 41 -75 142 -104c154 -44 216 -93 216 -214c0 -143 -114 -218 -252 -218c-159 0 -245 94 -271 204c24 25 65 40 113 40c6 0 8 0 18 -1c13 -70 62 -119 140 -119c68 0 119 33 119 89c0 47 -28 80 -150 111c-132 33 -203 108 -203 205c0 105 77 191 236 191 c126 0 192 -61 232 -123c-16 -35 -64 -71 -98 -82c-30 55 -75 91 -135 91c-73 0 -107 -29 -107 -70z" />
<glyph unicode="T" horiz-adv-x="602" d="M22 572v128h558v-128h-210v-572h-138v572h-210z" />
<glyph unicode="U" horiz-adv-x="706" d="M504 296v404h138v-401c0 -207 -107 -309 -289 -309s-289 102 -289 309v401h138v-404c0 -122 59 -178 151 -178s151 56 151 178z" />
<glyph unicode="V" horiz-adv-x="678" d="M284 0c-104 159 -211 414 -262 700h138c35 -193 111 -400 179 -526c68 126 144 333 179 526h138c-51 -286 -158 -541 -262 -700h-110z" />
<glyph unicode="W" horiz-adv-x="946" d="M473 436c-37 -175 -89 -320 -137 -436h-118c-84 206 -158 425 -198 700h141c34 -209 53 -313 116 -495c57 159 94 284 132 495h128c38 -211 75 -336 132 -495c63 182 81 286 115 495h142c-40 -275 -114 -494 -198 -700h-118c-48 116 -100 261 -137 436z" />
<glyph unicode="X" horiz-adv-x="576" d="M31 700h125c28 -106 66 -172 132 -242c66 70 110 143 132 242h125c-16 -130 -89 -243 -166 -325c100 -101 163 -224 188 -375h-136c-27 115 -63 196 -143 293c-80 -99 -113 -178 -141 -293h-138c23 153 95 271 192 375c-80 76 -151 183 -170 325z" />
<glyph unicode="Y" horiz-adv-x="586" d="M224 0v232c-103 154 -172 300 -204 468h144c34 -154 73 -223 129 -316c56 93 95 162 129 316h144c-32 -168 -101 -314 -204 -468v-232h-138z" />
<glyph unicode="Z" horiz-adv-x="583" d="M48 572v128h485v-53c0 -105 -66 -182 -188 -313c-73 -78 -133 -145 -145 -206h347v-128h-513v49c0 149 71 220 210 363c73 75 114 117 123 160h-319z" />
<glyph unicode="[" horiz-adv-x="346" d="M68 -170v870h238v-118h-110v-634h110v-118h-238z" />
<glyph unicode="\" horiz-adv-x="596" d="M158 700l412 -700h-132l-412 700h132z" />
<glyph unicode="]" horiz-adv-x="346" d="M278 700v-870h-238v118h110v634h-110v118h238z" />
<glyph unicode="^" horiz-adv-x="534" d="M321 700l179 -244c-21 -38 -66 -59 -101 -62l-132 186l-132 -186c-35 3 -80 24 -101 62l179 244h108z" />
<glyph unicode="_" horiz-adv-x="496" d="M24 -132v122h448v-122h-448z" />
<glyph unicode="`" horiz-adv-x="333" d="M93 729l204 -126c-3 -34 -18 -62 -38 -75l-223 88z" />
<glyph unicode="a" horiz-adv-x="641" d="M543 412v-185c0 -76 25 -111 73 -127c-3 -51 -19 -85 -45 -110c-60 0 -108 43 -121 81c-46 -56 -92 -81 -164 -81c-127 0 -242 81 -242 250s121 250 267 250c84 0 174 -33 232 -78zM296 100c67 0 119 42 119 125v117c-29 22 -69 38 -113 38c-79 0 -130 -58 -130 -140 s49 -140 124 -140z" />
<glyph unicode="b" d="M60 684c35 27 73 37 128 37v-279c37 31 87 48 141 48c126 0 231 -81 231 -250s-124 -250 -257 -250c-95 0 -176 33 -243 89v605zM188 249v-110c26 -24 69 -39 113 -39c89 0 131 60 131 140s-41 140 -125 140c-63 0 -119 -44 -119 -131z" />
<glyph unicode="c" horiz-adv-x="566" d="M436 175c46 -9 78 -36 92 -65c-49 -78 -120 -120 -225 -120c-124 0 -259 91 -259 250s121 250 260 250c102 0 173 -38 210 -117c-26 -31 -47 -50 -95 -64c-20 49 -67 75 -113 75c-84 0 -134 -59 -134 -144s52 -140 140 -140c55 0 95 24 124 75z" />
<glyph unicode="d" horiz-adv-x="640" d="M542 721v-513c0 -68 25 -94 73 -110c-5 -48 -20 -81 -45 -108c-60 0 -106 44 -119 82c-37 -47 -92 -82 -166 -82c-125 0 -241 81 -241 250s127 250 234 250c55 0 103 -11 136 -32v226c35 27 73 37 128 37zM295 100c67 0 119 54 119 137v93c-33 33 -69 50 -113 50 c-75 0 -129 -55 -129 -140s48 -140 123 -140z" />
<glyph unicode="e" horiz-adv-x="570" d="M512 345c0 -148 -153 -189 -316 -200c24 -33 62 -53 113 -53c52 0 103 22 152 74c38 -17 60 -42 73 -76c-64 -64 -130 -100 -233 -100c-147 0 -257 91 -257 230c0 164 112 270 277 270c127 0 191 -68 191 -145zM313 389c-80 0 -143 -62 -144 -150c131 8 219 30 219 96 c0 29 -27 54 -75 54z" />
<glyph unicode="f" horiz-adv-x="326" d="M186 0h-128v520c0 122 73 190 180 190c48 0 77 -10 115 -33c-5 -54 -24 -76 -48 -95c-14 13 -33 24 -56 24c-40 0 -63 -26 -63 -75v-51h127v-98h-127v-382z" />
<glyph unicode="g" horiz-adv-x="602" d="M542 406v-400c0 -143 -85 -236 -241 -236c-130 0 -199 58 -237 118c18 48 55 73 95 83c31 -59 81 -91 139 -91c75 0 116 42 116 106v56c-25 -19 -66 -42 -125 -42c-129 0 -245 79 -245 245c0 169 133 245 268 245c98 0 173 -38 230 -84zM295 110c76 0 119 49 119 134v96 c-28 21 -69 40 -113 40c-78 0 -129 -53 -129 -135s46 -135 123 -135z" />
<glyph unicode="h" horiz-adv-x="590" d="M60 684c35 27 73 37 128 37v-262c35 19 91 31 142 31c125 0 200 -74 200 -208v-282h-128v282c0 60 -47 98 -109 98c-35 0 -80 -13 -105 -33v-347h-128v684z" />
<glyph unicode="i" horiz-adv-x="248" d="M60 0v480h128v-480h-128zM40 626c0 47 37 84 84 84s84 -37 84 -84s-37 -84 -84 -84s-84 37 -84 84z" />
<glyph unicode="j" horiz-adv-x="238" d="M50 480h128v-518c0 -78 -41 -148 -133 -148c-28 0 -44 5 -66 13c0 41 5 75 20 101c7 -3 14 -4 20 -4c20 0 31 14 31 34v522zM30 626c0 47 37 84 84 84s84 -37 84 -84s-37 -84 -84 -84s-84 37 -84 84z" />
<glyph unicode="k" horiz-adv-x="508" d="M60 0v684c35 27 73 37 128 37v-399c53 40 99 94 132 158h138c-30 -70 -79 -138 -135 -197l181 -283h-149l-127 196c-13 -11 -27 -20 -40 -29v-167h-128z" />
<glyph unicode="l" horiz-adv-x="289" d="M60 142v542c35 27 73 37 128 37v-585c0 -21 12 -32 31 -32c5 0 10 0 16 2c18 -25 23 -58 23 -99c-23 -8 -38 -13 -74 -13c-83 0 -124 50 -124 148z" />
<glyph unicode="m" horiz-adv-x="828" d="M640 0v294c0 54 -27 86 -83 86c-24 0 -61 -13 -79 -28v-352h-128v294c0 48 -27 86 -83 86c-26 0 -61 -13 -79 -28v-352h-128v403c65 55 134 87 218 87c61 0 107 -19 144 -53c38 29 86 53 156 53c136 0 190 -85 190 -198v-292h-128z" />
<glyph unicode="n" horiz-adv-x="578" d="M390 0v282c0 60 -41 98 -103 98c-35 0 -74 -13 -99 -33v-347h-128v406c61 49 140 84 238 84c146 0 220 -74 220 -208v-282h-128z" />
<glyph unicode="o" d="M302 490c135 0 258 -91 258 -250s-123 -250 -258 -250s-258 91 -258 250s123 250 258 250zM302 380c-77 0 -130 -59 -130 -140s53 -140 130 -140s130 59 130 140s-53 140 -130 140z" />
<glyph unicode="p" d="M60 -220v458c0 161 109 252 248 252c144 0 252 -89 252 -250c0 -162 -127 -250 -251 -250c-45 0 -91 12 -121 32v-242h-128zM307 380c-67 0 -119 -44 -119 -128v-107c24 -26 70 -45 113 -45c79 0 131 56 131 140s-50 140 -125 140z" />
<glyph unicode="q" horiz-adv-x="602" d="M542 406v-626h-128v252c-24 -19 -71 -42 -136 -42c-127 0 -234 84 -234 250c0 169 127 250 268 250c98 0 178 -43 230 -84zM295 100c76 0 119 54 119 139v101c-28 21 -69 40 -113 40c-78 0 -129 -58 -129 -140s46 -140 123 -140z" />
<glyph unicode="r" horiz-adv-x="413" d="M398 461c-2 -44 -20 -83 -47 -109c-14 15 -39 28 -67 28c-65 0 -96 -39 -96 -105v-275h-128v282c0 140 99 208 216 208c59 0 91 -11 122 -29z" />
<glyph unicode="s" horiz-adv-x="501" d="M184 352c0 -30 30 -47 118 -64c93 -18 155 -53 155 -135c0 -97 -81 -163 -198 -163c-108 0 -206 58 -219 154c24 20 51 30 86 30c7 0 14 0 22 -1c21 -58 60 -79 118 -79c42 0 73 16 73 52c0 34 -33 48 -116 65c-72 15 -151 46 -151 138c0 90 83 141 186 141 c88 0 145 -35 181 -77c-18 -40 -37 -63 -74 -76c-21 32 -63 59 -109 59c-50 0 -72 -18 -72 -44z" />
<glyph unicode="t" horiz-adv-x="382" d="M357 33c-37 -30 -73 -43 -131 -43c-101 0 -168 69 -168 188v420c37 29 68 44 128 44v-162h130v-98h-130v-213c0 -50 25 -75 65 -75c25 0 39 8 61 27c28 -23 43 -49 45 -88z" />
<glyph unicode="u" horiz-adv-x="578" d="M188 480v-282c0 -60 36 -98 103 -98c35 0 74 13 99 33v347h128v-403c-57 -49 -131 -87 -230 -87c-154 0 -228 74 -228 208v282h128z" />
<glyph unicode="v" horiz-adv-x="534" d="M214 0c-87 125 -165 292 -202 480h134c26 -120 73 -249 121 -322c48 73 95 203 121 322h134c-37 -188 -115 -355 -202 -480h-106z" />
<glyph unicode="w" horiz-adv-x="756" d="M442 480c19 -120 54 -246 89 -326c32 70 69 200 87 326h123c-30 -195 -97 -362 -159 -480h-107c-28 57 -77 197 -97 290c-20 -93 -69 -233 -97 -290h-107c-62 118 -129 285 -159 480h123c18 -126 55 -256 87 -326c35 80 70 206 89 326h128z" />
<glyph unicode="x" horiz-adv-x="460" d="M310 480h128c-28 -98 -66 -157 -124 -219c63 -57 129 -158 138 -261h-128c-8 66 -47 147 -94 188c-48 -41 -85 -122 -94 -188h-128c9 103 76 204 139 261c-58 62 -97 120 -124 219h128c13 -53 45 -113 79 -147c34 34 68 94 80 147z" />
<glyph unicode="y" horiz-adv-x="576" d="M186 480v-270c0 -72 39 -110 103 -110c35 0 74 13 99 33v347h128v-474c0 -143 -77 -236 -230 -236c-116 0 -183 49 -218 98c18 48 45 74 85 84c27 -40 72 -72 130 -72c75 0 105 42 105 106v34c-25 -18 -68 -30 -112 -30c-143 0 -218 91 -218 212v278h128z" />
<glyph unicode="z" horiz-adv-x="453" d="M49 382v98h353v-46c0 -157 -198 -229 -230 -336h244v-98h-383v53c0 154 184 219 230 329h-214z" />
<glyph unicode="{" horiz-adv-x="322" d="M211 182v-162c0 -57 23 -72 69 -72h14v-118h-36c-123 0 -175 61 -175 169v156c0 36 -18 53 -47 53h-10v114h10c29 0 47 17 47 53v156c0 108 52 169 175 169h36v-118h-14c-46 0 -69 -15 -69 -72v-162c0 -48 -20 -73 -52 -83c32 -10 52 -35 52 -83z" />
<glyph unicode="|" horiz-adv-x="274" d="M68 -170v870h138v-870h-138z" />
<glyph unicode="}" horiz-adv-x="320" d="M109 20v162c0 48 20 73 52 83c-32 10 -52 35 -52 83v162c0 57 -23 72 -69 72h-14v118h36c123 0 175 -61 175 -169v-156c0 -36 18 -53 47 -53h10v-114h-10c-29 0 -47 -17 -47 -53v-156c0 -108 -52 -169 -175 -169h-36v118h14c46 0 69 15 69 72z" />
<glyph unicode="~" horiz-adv-x="477" d="M99 254c-35 5 -61 29 -69 67c26 46 75 73 126 73c73 0 110 -38 157 -38c30 0 54 18 65 40c35 -5 61 -23 69 -61c-26 -46 -75 -79 -126 -79c-73 0 -110 38 -157 38c-30 0 -54 -18 -65 -40z" />
<glyph unicode="&#xa1;" horiz-adv-x="314" d="M246 401c0 -49 -40 -89 -89 -89s-89 40 -89 89s40 89 89 89s89 -40 89 -89zM224 250v-470h-134v470h134z" />
<glyph unicode="&#xa2;" horiz-adv-x="566" d="M247 -85v81c-106 23 -203 109 -203 244c0 137 89 223 203 245v90h114v-90c72 -12 123 -49 153 -112c-26 -31 -47 -50 -95 -64c-12 29 -33 49 -58 62v-264c31 11 55 33 75 68c46 -9 78 -36 92 -65c-40 -63 -93 -102 -167 -115v-80h-114zM172 240c0 -61 27 -107 75 -128 v260c-48 -21 -75 -70 -75 -132z" />
<glyph unicode="&#xa3;" horiz-adv-x="586" d="M192 486c0 -27 2 -51 6 -72h174v-94h-149c9 -30 17 -59 17 -93c0 -47 -16 -86 -41 -113h151c56 0 76 12 103 59c34 -10 70 -41 79 -73c-35 -62 -80 -100 -159 -100h-308c-17 22 -27 61 -27 100c54 27 80 75 80 141c0 27 -6 52 -15 79h-74v94h47c-4 24 -7 51 -7 82 c0 123 93 214 233 214c118 0 188 -61 219 -143c-20 -43 -66 -58 -109 -62c-15 51 -52 93 -111 93c-61 0 -109 -38 -109 -112z" />
<glyph unicode="&#xa5;" horiz-adv-x="598" d="M98 250v102h57c-65 104 -111 223 -135 348h146c32 -154 70 -229 133 -322c63 93 101 168 133 322h146c-24 -125 -70 -244 -136 -348h58v-102h-132v-44h132v-102h-132v-104h-138v104h-132v102h132v44h-132z" />
<glyph unicode="&#xa6;" horiz-adv-x="274" d="M206 316h-138v384h138v-384zM68 214h138v-384h-138v384z" />
<glyph unicode="&#xa7;" horiz-adv-x="585" d="M61 331c0 45 22 84 50 112c-16 27 -23 58 -23 95c0 97 81 172 200 172c116 0 182 -51 217 -118c-16 -37 -54 -61 -91 -70c-30 52 -65 84 -123 84c-51 0 -83 -31 -83 -71c0 -54 50 -75 130 -98c126 -36 183 -88 183 -190c0 -46 -22 -84 -51 -113c16 -26 24 -57 24 -94 c0 -97 -81 -172 -200 -172c-116 0 -182 51 -217 118c16 37 54 61 91 70c30 -52 65 -84 123 -84c51 0 83 31 83 71c0 54 -50 75 -130 98c-126 36 -183 88 -183 190zM310 236c28 -8 53 -18 75 -29c7 12 12 25 12 39c0 51 -36 70 -125 96c-29 8 -54 17 -75 28 c-8 -11 -12 -24 -12 -38c0 -51 36 -70 125 -96z" />
<glyph unicode="&#xa8;" horiz-adv-x="394" d="M218 626c0 41 33 74 74 74s74 -33 74 -74s-33 -74 -74 -74s-74 33 -74 74zM28 626c0 41 33 74 74 74s74 -33 74 -74s-33 -74 -74 -74s-74 33 -74 74z" />
<glyph unicode="&#xa9;" horiz-adv-x="820" d="M50 350c0 199 154 360 360 360s360 -161 360 -360s-154 -360 -360 -360s-360 161 -360 360zM136 350c0 -153 114 -282 274 -282s274 129 274 282s-114 282 -274 282s-274 -129 -274 -282zM528 288c25 -8 60 -33 66 -62c-38 -50 -90 -96 -182 -96c-120 0 -221 87 -221 220 s103 220 224 220c89 0 144 -48 175 -94c-13 -34 -47 -55 -78 -62c-22 35 -49 64 -98 64c-79 0 -124 -56 -124 -128s44 -128 124 -128c50 0 84 26 114 66z" />
<glyph unicode="&#xaa;" horiz-adv-x="517" d="M438 646v-152c0 -62 21 -91 60 -104c-2 -42 -16 -70 -37 -90c-49 0 -88 35 -99 66c-30 -40 -70 -66 -131 -66c-104 0 -194 66 -194 205c0 138 100 205 215 205c69 0 135 -23 186 -64zM240 390c55 0 93 34 93 102v96c-21 18 -53 32 -88 32c-65 0 -103 -48 -103 -115 s36 -115 98 -115z" />
<glyph unicode="&#xab;" horiz-adv-x="556" d="M250 336l192 204c29 -9 61 -42 69 -77l-145 -153l145 -153c-8 -35 -40 -68 -69 -77l-192 204v52zM59 336l192 204c29 -9 61 -42 69 -77l-145 -153l145 -153c-8 -35 -40 -68 -69 -77l-192 204v52z" />
<glyph unicode="&#xac;" horiz-adv-x="516" d="M31 294v106h430v-254h-106v148h-324z" />
<glyph unicode="&#xae;" horiz-adv-x="820" d="M50 350c0 199 154 360 360 360s360 -161 360 -360s-154 -360 -360 -360s-360 161 -360 360zM136 350c0 -153 114 -282 274 -282s274 129 274 282s-114 282 -274 282s-274 -129 -274 -282zM426 315c-26 0 -58 3 -89 11v-177h-82v421h171c88 0 149 -49 149 -126 c0 -50 -24 -87 -61 -108c35 -40 64 -107 72 -187h-85c-5 59 -26 117 -68 166h-7zM491 444c0 36 -26 60 -67 60h-87v-105c27 -10 55 -13 87 -13c42 0 67 23 67 58z" />
<glyph unicode="&#xaf;" horiz-adv-x="326" d="M42 566v94h242v-94h-242z" />
<glyph unicode="&#xb0;" horiz-adv-x="302" d="M36 595c0 67 52 115 115 115s115 -48 115 -115s-52 -115 -115 -115s-115 48 -115 115zM109 595c0 -24 18 -43 42 -43s42 19 42 43s-18 43 -42 43s-42 -19 -42 -43z" />
<glyph unicode="&#xb1;" horiz-adv-x="510" d="M34 302v110h166v166h110v-166h166v-110h-166v-166h-110v166h-166zM34 0v110h442v-110h-442z" />
<glyph unicode="&#xb2;" horiz-adv-x="380" d="M46 300v50c0 79 56 140 132 174c44 20 59 33 59 60c0 19 -12 41 -48 41c-25 0 -49 -15 -55 -55c-4 -1 -8 -1 -12 -1c-35 0 -67 18 -80 30c18 63 66 106 147 106c82 0 139 -42 139 -110c0 -67 -30 -104 -110 -143c-37 -18 -57 -40 -61 -75h180v-77h-291z" />
<glyph unicode="&#xb3;" horiz-adv-x="362" d="M180 478h-31c-4 11 -6 24 -6 38c0 13 2 27 6 41h28c28 0 46 15 46 35s-15 32 -43 32c-24 0 -42 -19 -45 -41c-40 3 -66 12 -88 32c18 56 69 90 137 90c76 0 131 -39 131 -100c0 -40 -19 -66 -44 -83c34 -18 59 -47 59 -101c0 -81 -61 -126 -145 -126 c-90 0 -140 53 -152 113c12 18 52 32 82 32c2 0 4 0 10 -1c8 -36 23 -57 61 -57c31 0 51 19 51 47s-19 48 -57 49z" />
<glyph unicode="&#xb4;" horiz-adv-x="333" d="M36 603l204 126l57 -113l-223 -88c-20 13 -35 41 -38 75z" />
<glyph unicode="&#xb5;" horiz-adv-x="578" d="M188 480v-282c0 -60 36 -98 103 -98c35 0 74 13 99 33v347h128v-403c-57 -49 -131 -87 -230 -87c-39 0 -72 5 -100 13v-223h-128v700h128z" />
<glyph unicode="&#xb6;" horiz-adv-x="699" d="M631 -170h-128v752h-42v-752h-128v464c-28 -6 -37 -9 -77 -9c-106 0 -208 63 -208 203c0 150 124 212 249 212h334v-870zM176 488c0 -53 37 -85 88 -85c29 0 49 6 69 16v163h-49c-61 0 -108 -27 -108 -94z" />
<glyph unicode="&#xb7;" horiz-adv-x="314" d="M68 350c0 49 40 89 89 89s89 -40 89 -89s-40 -89 -89 -89s-89 40 -89 89z" />
<glyph unicode="&#xb8;" horiz-adv-x="251" d="M64 -220c-7 6 -10 20 -10 33c0 14 3 27 10 37c30 0 57 3 57 24c0 12 -10 21 -30 21c-12 0 -27 -3 -36 -7l36 125l84 -5l-23 -63c33 -8 58 -29 58 -69c0 -72 -60 -96 -146 -96z" />
<glyph unicode="&#xb9;" horiz-adv-x="302" d="M63 552c-18 22 -25 54 -26 85c44 7 75 26 104 63h99v-400h-99v288c-25 -22 -48 -32 -78 -36z" />
<glyph unicode="&#xba;" horiz-adv-x="497" d="M249 710c110 0 211 -75 211 -205c0 -131 -101 -205 -211 -205c-111 0 -212 74 -212 205c0 130 101 205 212 205zM249 620c-64 0 -107 -49 -107 -115c0 -67 43 -115 107 -115c63 0 106 48 106 115c0 66 -43 115 -106 115z" />
<glyph unicode="&#xbb;" horiz-adv-x="556" d="M114 540l192 -204v-52l-192 -204c-29 9 -61 42 -69 77l145 153l-145 153c8 35 40 68 69 77zM305 540l192 -204v-52l-192 -204c-29 9 -61 42 -69 77l145 153l-145 153c8 35 40 68 69 77z" />
<glyph unicode="&#xbc;" horiz-adv-x="735" d="M372 70v76c30 93 118 202 187 254h90v-254h36v-76h-36v-70h-90v70h-187zM158 172l366 410l60 -53l-366 -410zM559 290c-34 -29 -74 -88 -94 -144h94v144zM63 552c-18 22 -25 54 -26 85c44 7 75 26 104 63h99v-400h-99v288c-25 -22 -48 -32 -78 -36z" />
<glyph unicode="&#xbd;" horiz-adv-x="812" d="M158 172l366 410l60 -53l-366 -410zM63 552c-18 22 -25 54 -26 85c44 7 75 26 104 63h99v-400h-99v288c-25 -22 -48 -32 -78 -36zM457 0v50c0 79 56 140 132 174c44 20 59 33 59 60c0 19 -12 41 -48 41c-25 0 -49 -15 -55 -55c-4 -1 -8 -1 -12 -1c-35 0 -67 18 -80 30 c18 63 66 106 147 106c82 0 139 -42 139 -110c0 -67 -30 -104 -110 -143c-37 -18 -57 -40 -61 -75h180v-77h-291z" />
<glyph unicode="&#xbe;" horiz-adv-x="819" d="M456 70v76c30 93 118 202 187 254h90v-254h36v-76h-36v-70h-90v70h-187zM232 172l366 410l60 -53l-366 -410zM643 290c-34 -29 -74 -88 -94 -144h94v144zM180 478h-31c-4 11 -6 24 -6 38c0 13 2 27 6 41h28c28 0 46 15 46 35s-15 32 -43 32c-24 0 -42 -19 -45 -41 c-40 3 -66 12 -88 32c18 56 69 90 137 90c76 0 131 -39 131 -100c0 -40 -19 -66 -44 -83c34 -18 59 -47 59 -101c0 -81 -61 -126 -145 -126c-90 0 -140 53 -152 113c12 18 52 32 82 32c2 0 4 0 10 -1c8 -36 23 -57 61 -57c31 0 51 19 51 47s-19 48 -57 49z" />
<glyph unicode="&#xbf;" horiz-adv-x="528" d="M373 -23c44 0 91 -20 106 -52c-32 -94 -114 -155 -222 -155c-134 0 -207 79 -207 173c0 160 153 160 153 297v10h126v-13c0 -168 -157 -197 -157 -284c0 -41 38 -69 90 -69c60 0 92 36 111 93zM355 401c0 -49 -40 -89 -89 -89s-89 40 -89 89s40 89 89 89s89 -40 89 -89z " />
<glyph unicode="&#xc0;" horiz-adv-x="666" d="M388 700c104 -159 205 -414 260 -700h-138c-10 51 -21 104 -34 157h-286c-13 -53 -25 -106 -34 -157h-138c55 286 156 541 260 700h110zM333 530c-38 -65 -74 -153 -105 -249h210c-31 96 -67 184 -105 249zM250 949l204 -126c-3 -34 -18 -62 -38 -75l-223 88z" />
<glyph unicode="&#xc1;" horiz-adv-x="666" d="M388 700c104 -159 205 -414 260 -700h-138c-10 51 -21 104 -34 157h-286c-13 -53 -25 -106 -34 -157h-138c55 286 156 541 260 700h110zM333 530c-38 -65 -74 -153 -105 -249h210c-31 96 -67 184 -105 249zM206 823l204 126l57 -113l-223 -88c-20 13 -35 41 -38 75z" />
<glyph unicode="&#xc2;" horiz-adv-x="666" d="M388 700c104 -159 205 -414 260 -700h-138c-10 51 -21 104 -34 157h-286c-13 -53 -25 -106 -34 -157h-138c55 286 156 541 260 700h110zM333 530c-38 -65 -74 -153 -105 -249h210c-31 96 -67 184 -105 249zM155 806l178 124l178 -124c-7 -28 -25 -52 -45 -66l-133 73 l-133 -73c-20 14 -38 38 -45 66z" />
<glyph unicode="&#xc3;" horiz-adv-x="666" d="M388 700c104 -159 205 -414 260 -700h-138c-10 51 -21 104 -34 157h-286c-13 -53 -25 -106 -34 -157h-138c55 286 156 541 260 700h110zM333 530c-38 -65 -74 -153 -105 -249h210c-31 96 -67 184 -105 249zM210 770c-32 5 -59 25 -67 61c26 46 76 73 123 73 c73 0 80 -38 127 -38c30 0 53 18 64 40c32 -5 59 -25 67 -61c-26 -46 -76 -73 -123 -73c-73 0 -80 38 -127 38c-30 0 -53 -18 -64 -40z" />
<glyph unicode="&#xc4;" horiz-adv-x="666" d="M388 700c104 -159 205 -414 260 -700h-138c-10 51 -21 104 -34 157h-286c-13 -53 -25 -106 -34 -157h-138c55 286 156 541 260 700h110zM333 530c-38 -65 -74 -153 -105 -249h210c-31 96 -67 184 -105 249zM354 846c0 41 33 74 74 74s74 -33 74 -74s-33 -74 -74 -74 s-74 33 -74 74zM164 846c0 41 33 74 74 74s74 -33 74 -74s-33 -74 -74 -74s-74 33 -74 74z" />
<glyph unicode="&#xc5;" horiz-adv-x="666" d="M388 700c104 -159 205 -414 260 -700h-138c-10 51 -21 104 -34 157h-286c-13 -53 -25 -106 -34 -157h-138c55 286 156 541 260 700h110zM333 530c-38 -65 -74 -153 -105 -249h210c-31 96 -67 184 -105 249zM227 864c0 58 48 106 106 106s106 -48 106 -106 s-48 -106 -106 -106s-106 48 -106 106zM303 864c0 -16 14 -30 30 -30s30 14 30 30s-14 30 -30 30s-30 -14 -30 -30z" />
<glyph unicode="&#xc6;" horiz-adv-x="917" d="M381 0v157h-191c-15 -54 -27 -108 -34 -157h-138c45 286 160 536 272 700h579v-128h-350v-143h230v-128h-230v-173h360v-128h-498zM361 572c-43 -65 -92 -173 -132 -291h152v291h-20z" />
<glyph unicode="&#xc7;" horiz-adv-x="738" d="M315 -220c-7 6 -10 20 -10 33c0 14 3 27 10 37c30 0 57 3 57 24c0 12 -10 21 -30 21c-12 0 -27 -3 -36 -7l30 106c-153 23 -286 141 -286 356c0 241 173 360 348 360c145 0 228 -63 286 -161c-20 -39 -73 -70 -117 -76c-36 69 -95 109 -173 109 c-105 0 -206 -84 -206 -232s92 -232 206 -232c79 0 141 58 175 135c47 -5 98 -32 125 -67c-59 -124 -158 -186 -274 -195l-17 -46c33 -8 58 -29 58 -69c0 -72 -60 -96 -146 -96z" />
<glyph unicode="&#xc8;" d="M68 0v700h488v-128h-350v-143h230v-128h-230v-173h360v-128h-498zM238 949l204 -126c-3 -34 -18 -62 -38 -75l-223 88z" />
<glyph unicode="&#xc9;" d="M68 0v700h488v-128h-350v-143h230v-128h-230v-173h360v-128h-498zM183 823l204 126l57 -113l-223 -88c-20 13 -35 41 -38 75z" />
<glyph unicode="&#xca;" d="M68 0v700h488v-128h-350v-143h230v-128h-230v-173h360v-128h-498zM138 806l178 124l178 -124c-7 -28 -25 -52 -45 -66l-133 73l-133 -73c-20 14 -38 38 -45 66z" />
<glyph unicode="&#xcb;" d="M68 0v700h488v-128h-350v-143h230v-128h-230v-173h360v-128h-498zM334 846c0 41 33 74 74 74s74 -33 74 -74s-33 -74 -74 -74s-74 33 -74 74zM144 846c0 41 33 74 74 74s74 -33 74 -74s-33 -74 -74 -74s-74 33 -74 74z" />
<glyph unicode="&#xcc;" horiz-adv-x="274" d="M68 0v700h138v-700h-138zM64 949l204 -126c-3 -34 -18 -62 -38 -75l-223 88z" />
<glyph unicode="&#xcd;" horiz-adv-x="274" d="M68 0v700h138v-700h-138zM7 823l204 126l57 -113l-223 -88c-20 13 -35 41 -38 75z" />
<glyph unicode="&#xce;" horiz-adv-x="274" d="M68 0v700h138v-700h-138zM-41 806l178 124l178 -124c-7 -28 -25 -52 -45 -66l-133 73l-133 -73c-20 14 -38 38 -45 66z" />
<glyph unicode="&#xcf;" horiz-adv-x="274" d="M68 0v700h138v-700h-138zM158 846c0 41 33 74 74 74s74 -33 74 -74s-33 -74 -74 -74s-74 33 -74 74zM-32 846c0 41 33 74 74 74s74 -33 74 -74s-33 -74 -74 -74s-74 33 -74 74z" />
<glyph unicode="&#xd0;" horiz-adv-x="741" d="M25 286v122h82v292h229c183 0 355 -99 355 -350s-172 -350 -355 -350h-229v286h-82zM553 350c0 152 -88 222 -221 222h-87v-164h122v-122h-122v-158h87c131 0 221 70 221 222z" />
<glyph unicode="&#xd1;" horiz-adv-x="704" d="M68 0v700h132c90 -104 235 -302 298 -436v436h138v-700h-157c-81 187 -182 348 -273 457v-457h-138zM234 770c-32 5 -59 25 -67 61c26 46 76 73 123 73c73 0 80 -38 127 -38c30 0 53 18 64 40c32 -5 59 -25 67 -61c-26 -46 -76 -73 -123 -73c-73 0 -80 38 -127 38 c-30 0 -53 -18 -64 -40z" />
<glyph unicode="&#xd2;" horiz-adv-x="790" d="M395 -10c-181 0 -345 116 -345 360s164 360 345 360s345 -116 345 -360s-164 -360 -345 -360zM395 582c-113 0 -207 -84 -207 -232s94 -232 207 -232s207 84 207 232s-94 232 -207 232zM322 949l204 -126c-3 -34 -18 -62 -38 -75l-223 88z" />
<glyph unicode="&#xd3;" horiz-adv-x="790" d="M395 -10c-181 0 -345 116 -345 360s164 360 345 360s345 -116 345 -360s-164 -360 -345 -360zM395 582c-113 0 -207 -84 -207 -232s94 -232 207 -232s207 84 207 232s-94 232 -207 232zM276 823l204 126l57 -113l-223 -88c-20 13 -35 41 -38 75z" />
<glyph unicode="&#xd4;" horiz-adv-x="790" d="M395 -10c-181 0 -345 116 -345 360s164 360 345 360s345 -116 345 -360s-164 -360 -345 -360zM395 582c-113 0 -207 -84 -207 -232s94 -232 207 -232s207 84 207 232s-94 232 -207 232zM217 806l178 124l178 -124c-7 -28 -25 -52 -45 -66l-133 73l-133 -73 c-20 14 -38 38 -45 66z" />
<glyph unicode="&#xd5;" horiz-adv-x="790" d="M395 -10c-181 0 -345 116 -345 360s164 360 345 360s345 -116 345 -360s-164 -360 -345 -360zM395 582c-113 0 -207 -84 -207 -232s94 -232 207 -232s207 84 207 232s-94 232 -207 232zM272 770c-32 5 -59 25 -67 61c26 46 76 73 123 73c73 0 80 -38 127 -38 c30 0 53 18 64 40c32 -5 59 -25 67 -61c-26 -46 -76 -73 -123 -73c-73 0 -80 38 -127 38c-30 0 -53 -18 -64 -40z" />
<glyph unicode="&#xd6;" horiz-adv-x="790" d="M395 -10c-181 0 -345 116 -345 360s164 360 345 360s345 -116 345 -360s-164 -360 -345 -360zM395 582c-113 0 -207 -84 -207 -232s94 -232 207 -232s207 84 207 232s-94 232 -207 232zM416 846c0 41 33 74 74 74s74 -33 74 -74s-33 -74 -74 -74s-74 33 -74 74zM226 846 c0 41 33 74 74 74s74 -33 74 -74s-33 -74 -74 -74s-74 33 -74 74z" />
<glyph unicode="&#xd7;" horiz-adv-x="496" d="M131 152l-78 78l117 117l-117 117l78 78l117 -117l117 117l78 -78l-117 -117l117 -117l-78 -78l-117 117z" />
<glyph unicode="&#xd8;" horiz-adv-x="790" d="M395 -10c-53 0 -105 10 -151 29l-21 -32c-42 6 -80 27 -97 62l23 35c-61 59 -99 147 -99 266c0 244 164 360 345 360c52 0 105 -10 151 -29l21 32c42 -6 80 -27 97 -62l-23 -35c61 -59 99 -147 99 -266c0 -244 -164 -360 -345 -360zM602 350c0 60 -15 109 -40 146 l-243 -364c23 -9 49 -14 76 -14c113 0 207 84 207 232zM395 582c-113 0 -207 -84 -207 -232c0 -60 15 -109 40 -146l243 364c-23 9 -49 14 -76 14z" />
<glyph unicode="&#xd9;" horiz-adv-x="706" d="M504 296v404h138v-401c0 -207 -107 -309 -289 -309s-289 102 -289 309v401h138v-404c0 -122 59 -178 151 -178s151 56 151 178zM280 949l204 -126c-3 -34 -18 -62 -38 -75l-223 88z" />
<glyph unicode="&#xda;" horiz-adv-x="706" d="M504 296v404h138v-401c0 -207 -107 -309 -289 -309s-289 102 -289 309v401h138v-404c0 -122 59 -178 151 -178s151 56 151 178zM234 823l204 126l57 -113l-223 -88c-20 13 -35 41 -38 75z" />
<glyph unicode="&#xdb;" horiz-adv-x="706" d="M504 296v404h138v-401c0 -207 -107 -309 -289 -309s-289 102 -289 309v401h138v-404c0 -122 59 -178 151 -178s151 56 151 178zM175 806l178 124l178 -124c-7 -28 -25 -52 -45 -66l-133 73l-133 -73c-20 14 -38 38 -45 66z" />
<glyph unicode="&#xdc;" horiz-adv-x="706" d="M504 296v404h138v-401c0 -207 -107 -309 -289 -309s-289 102 -289 309v401h138v-404c0 -122 59 -178 151 -178s151 56 151 178zM374 846c0 41 33 74 74 74s74 -33 74 -74s-33 -74 -74 -74s-74 33 -74 74zM184 846c0 41 33 74 74 74s74 -33 74 -74s-33 -74 -74 -74 s-74 33 -74 74z" />
<glyph unicode="&#xdd;" horiz-adv-x="586" d="M224 0v232c-103 154 -172 300 -204 468h144c34 -154 73 -223 129 -316c56 93 95 162 129 316h144c-32 -168 -101 -314 -204 -468v-232h-138zM174 823l204 126l57 -113l-223 -88c-20 13 -35 41 -38 75z" />
<glyph unicode="&#xde;" horiz-adv-x="603" d="M68 0v700h138v-130h85c158 0 264 -80 264 -220c0 -150 -115 -221 -251 -221c-40 0 -70 3 -98 9v-138h-138zM417 347c0 60 -40 95 -130 95h-81v-169c28 -11 59 -16 99 -16c73 0 112 30 112 90z" />
<glyph unicode="&#xdf;" horiz-adv-x="530" d="M188 0h-128v494c0 150 93 216 205 216c109 0 192 -56 192 -155c0 -98 -75 -127 -75 -177c0 -57 114 -72 114 -212c0 -119 -86 -176 -183 -176c-52 0 -89 8 -112 18c0 45 9 80 29 107c32 -12 49 -15 74 -15c44 0 77 24 77 69c0 75 -114 99 -114 206c0 78 63 100 63 166 c0 37 -22 65 -67 65s-75 -39 -75 -99v-507z" />
<glyph unicode="&#xe0;" horiz-adv-x="641" d="M543 412v-185c0 -76 25 -111 73 -127c-3 -51 -19 -85 -45 -110c-60 0 -108 43 -121 81c-46 -56 -92 -81 -164 -81c-127 0 -242 81 -242 250s121 250 267 250c84 0 174 -33 232 -78zM296 100c67 0 119 42 119 125v117c-29 22 -69 38 -113 38c-79 0 -130 -58 -130 -140 s49 -140 124 -140zM243 729l204 -126c-3 -34 -18 -62 -38 -75l-223 88z" />
<glyph unicode="&#xe1;" horiz-adv-x="641" d="M543 412v-185c0 -76 25 -111 73 -127c-3 -51 -19 -85 -45 -110c-60 0 -108 43 -121 81c-46 -56 -92 -81 -164 -81c-127 0 -242 81 -242 250s121 250 267 250c84 0 174 -33 232 -78zM296 100c67 0 119 42 119 125v117c-29 22 -69 38 -113 38c-79 0 -130 -58 -130 -140 s49 -140 124 -140zM201 603l204 126l57 -113l-223 -88c-20 13 -35 41 -38 75z" />
<glyph unicode="&#xe2;" horiz-adv-x="641" d="M543 412v-185c0 -76 25 -111 73 -127c-3 -51 -19 -85 -45 -110c-60 0 -108 43 -121 81c-46 -56 -92 -81 -164 -81c-127 0 -242 81 -242 250s121 250 267 250c84 0 174 -33 232 -78zM296 100c67 0 119 42 119 125v117c-29 22 -69 38 -113 38c-79 0 -130 -58 -130 -140 s49 -140 124 -140zM149 586l178 124l178 -124c-7 -28 -25 -52 -45 -66l-133 73l-133 -73c-20 14 -38 38 -45 66z" />
<glyph unicode="&#xe3;" horiz-adv-x="641" d="M543 412v-185c0 -76 25 -111 73 -127c-3 -51 -19 -85 -45 -110c-60 0 -108 43 -121 81c-46 -56 -92 -81 -164 -81c-127 0 -242 81 -242 250s121 250 267 250c84 0 174 -33 232 -78zM296 100c67 0 119 42 119 125v117c-29 22 -69 38 -113 38c-79 0 -130 -58 -130 -140 s49 -140 124 -140zM203 550c-32 5 -59 25 -67 61c26 46 76 73 123 73c73 0 80 -38 127 -38c30 0 53 18 64 40c32 -5 59 -25 67 -61c-26 -46 -76 -73 -123 -73c-73 0 -80 38 -127 38c-30 0 -53 -18 -64 -40z" />
<glyph unicode="&#xe4;" horiz-adv-x="641" d="M543 412v-185c0 -76 25 -111 73 -127c-3 -51 -19 -85 -45 -110c-60 0 -108 43 -121 81c-46 -56 -92 -81 -164 -81c-127 0 -242 81 -242 250s121 250 267 250c84 0 174 -33 232 -78zM296 100c67 0 119 42 119 125v117c-29 22 -69 38 -113 38c-79 0 -130 -58 -130 -140 s49 -140 124 -140zM345 626c0 41 33 74 74 74s74 -33 74 -74s-33 -74 -74 -74s-74 33 -74 74zM155 626c0 41 33 74 74 74s74 -33 74 -74s-33 -74 -74 -74s-74 33 -74 74z" />
<glyph unicode="&#xe5;" horiz-adv-x="641" d="M543 412v-185c0 -76 25 -111 73 -127c-3 -51 -19 -85 -45 -110c-60 0 -108 43 -121 81c-46 -56 -92 -81 -164 -81c-127 0 -242 81 -242 250s121 250 267 250c84 0 174 -33 232 -78zM296 100c67 0 119 42 119 125v117c-29 22 -69 38 -113 38c-79 0 -130 -58 -130 -140 s49 -140 124 -140zM218 644c0 58 48 106 106 106s106 -48 106 -106s-48 -106 -106 -106s-106 48 -106 106zM294 644c0 -16 14 -30 30 -30s30 14 30 30s-14 30 -30 30s-30 -14 -30 -30z" />
<glyph unicode="&#xe6;" horiz-adv-x="880" d="M255 490c76 0 142 -23 174 -75c49 48 119 75 202 75c127 0 193 -68 193 -145c0 -133 -130 -196 -273 -196c-17 0 -33 1 -50 3c23 -36 63 -60 118 -60c64 0 103 22 152 74c38 -17 60 -42 73 -76c-64 -64 -130 -100 -233 -100c-85 0 -155 30 -201 82 c-44 -55 -98 -82 -186 -82c-96 0 -180 55 -180 157c0 98 81 155 187 155c51 0 83 -9 117 -20v25c0 46 -36 77 -92 77c-47 0 -74 -18 -92 -47c-29 7 -75 31 -85 51c25 55 89 102 176 102zM623 389c-79 0 -141 -60 -144 -145c24 -4 46 -6 67 -6c99 0 154 42 154 97 c0 29 -29 54 -77 54zM238 92c57 0 110 39 110 92c-37 18 -69 28 -105 28c-43 0 -79 -18 -79 -60c0 -38 28 -60 74 -60z" />
<glyph unicode="&#xe7;" horiz-adv-x="566" d="M229 -220c-7 6 -10 20 -10 33c0 14 3 27 10 37c30 0 57 3 57 24c0 12 -10 21 -30 21c-12 0 -27 -3 -36 -7l31 107c-107 21 -207 108 -207 245c0 159 121 250 260 250c102 0 173 -38 210 -117c-26 -31 -47 -50 -95 -64c-20 49 -67 75 -113 75c-84 0 -134 -59 -134 -144 s52 -140 140 -140c55 0 95 24 124 75c46 -9 78 -36 92 -65c-44 -70 -106 -111 -194 -118l-17 -47c33 -8 58 -29 58 -69c0 -72 -60 -96 -146 -96z" />
<glyph unicode="&#xe8;" horiz-adv-x="570" d="M512 345c0 -148 -153 -189 -316 -200c24 -33 62 -53 113 -53c52 0 103 22 152 74c38 -17 60 -42 73 -76c-64 -64 -130 -100 -233 -100c-147 0 -257 91 -257 230c0 164 112 270 277 270c127 0 191 -68 191 -145zM313 389c-80 0 -143 -62 -144 -150c131 8 219 30 219 96 c0 29 -27 54 -75 54zM238 729l204 -126c-3 -34 -18 -62 -38 -75l-223 88z" />
<glyph unicode="&#xe9;" horiz-adv-x="570" d="M512 345c0 -148 -153 -189 -316 -200c24 -33 62 -53 113 -53c52 0 103 22 152 74c38 -17 60 -42 73 -76c-64 -64 -130 -100 -233 -100c-147 0 -257 91 -257 230c0 164 112 270 277 270c127 0 191 -68 191 -145zM313 389c-80 0 -143 -62 -144 -150c131 8 219 30 219 96 c0 29 -27 54 -75 54zM168 603l204 126l57 -113l-223 -88c-20 13 -35 41 -38 75z" />
<glyph unicode="&#xea;" horiz-adv-x="570" d="M512 345c0 -148 -153 -189 -316 -200c24 -33 62 -53 113 -53c52 0 103 22 152 74c38 -17 60 -42 73 -76c-64 -64 -130 -100 -233 -100c-147 0 -257 91 -257 230c0 164 112 270 277 270c127 0 191 -68 191 -145zM313 389c-80 0 -143 -62 -144 -150c131 8 219 30 219 96 c0 29 -27 54 -75 54zM133 586l178 124l178 -124c-7 -28 -25 -52 -45 -66l-133 73l-133 -73c-20 14 -38 38 -45 66z" />
<glyph unicode="&#xeb;" horiz-adv-x="570" d="M512 345c0 -148 -153 -189 -316 -200c24 -33 62 -53 113 -53c52 0 103 22 152 74c38 -17 60 -42 73 -76c-64 -64 -130 -100 -233 -100c-147 0 -257 91 -257 230c0 164 112 270 277 270c127 0 191 -68 191 -145zM313 389c-80 0 -143 -62 -144 -150c131 8 219 30 219 96 c0 29 -27 54 -75 54zM333 626c0 41 33 74 74 74s74 -33 74 -74s-33 -74 -74 -74s-74 33 -74 74zM143 626c0 41 33 74 74 74s74 -33 74 -74s-33 -74 -74 -74s-74 33 -74 74z" />
<glyph unicode="&#xec;" horiz-adv-x="248" d="M60 0v480h128v-480h-128zM51 729l204 -126c-3 -34 -18 -62 -38 -75l-223 88z" />
<glyph unicode="&#xed;" horiz-adv-x="248" d="M60 0v480h128v-480h-128zM-6 603l204 126l57 -113l-223 -88c-20 13 -35 41 -38 75z" />
<glyph unicode="&#xee;" horiz-adv-x="248" d="M60 0v480h128v-480h-128zM-54 586l178 124l178 -124c-7 -28 -25 -52 -45 -66l-133 73l-133 -73c-20 14 -38 38 -45 66z" />
<glyph unicode="&#xef;" horiz-adv-x="248" d="M60 0v480h128v-480h-128zM145 626c0 41 33 74 74 74s74 -33 74 -74s-33 -74 -74 -74s-74 33 -74 74zM-45 626c0 41 33 74 74 74s74 -33 74 -74s-33 -74 -74 -74s-74 33 -74 74z" />
<glyph unicode="&#xf0;" horiz-adv-x="601" d="M294 504l-27 75l59 22c-10 3 -20 5 -31 5c-45 0 -73 -6 -104 -21c-17 20 -37 49 -38 94c29 14 90 31 132 31c70 0 125 -23 166 -62l114 43l27 -75l-91 -34c36 -67 52 -154 52 -246c0 -231 -111 -346 -259 -346c-139 0 -250 100 -250 250s114 250 241 250 c66 0 110 -17 145 -46c-10 38 -22 71 -37 97zM294 380c-66 0 -122 -53 -122 -140c0 -89 52 -140 123 -140c75 0 135 77 137 205c-38 45 -78 75 -138 75z" />
<glyph unicode="&#xf1;" horiz-adv-x="578" d="M390 0v282c0 60 -41 98 -103 98c-35 0 -74 -13 -99 -33v-347h-128v406c61 49 140 84 238 84c146 0 220 -74 220 -208v-282h-128zM168 550c-32 5 -59 25 -67 61c26 46 76 73 123 73c73 0 80 -38 127 -38c30 0 53 18 64 40c32 -5 59 -25 67 -61c-26 -46 -76 -73 -123 -73 c-73 0 -80 38 -127 38c-30 0 -53 -18 -64 -40z" />
<glyph unicode="&#xf2;" d="M302 490c135 0 258 -91 258 -250s-123 -250 -258 -250s-258 91 -258 250s123 250 258 250zM302 380c-77 0 -130 -59 -130 -140s53 -140 130 -140s130 59 130 140s-53 140 -130 140zM238 729l204 -126c-3 -34 -18 -62 -38 -75l-223 88z" />
<glyph unicode="&#xf3;" d="M302 490c135 0 258 -91 258 -250s-123 -250 -258 -250s-258 91 -258 250s123 250 258 250zM302 380c-77 0 -130 -59 -130 -140s53 -140 130 -140s130 59 130 140s-53 140 -130 140zM172 603l204 126l57 -113l-223 -88c-20 13 -35 41 -38 75z" />
<glyph unicode="&#xf4;" d="M302 490c135 0 258 -91 258 -250s-123 -250 -258 -250s-258 91 -258 250s123 250 258 250zM302 380c-77 0 -130 -59 -130 -140s53 -140 130 -140s130 59 130 140s-53 140 -130 140zM124 586l178 124l178 -124c-7 -28 -25 -52 -45 -66l-133 73l-133 -73 c-20 14 -38 38 -45 66z" />
<glyph unicode="&#xf5;" d="M302 490c135 0 258 -91 258 -250s-123 -250 -258 -250s-258 91 -258 250s123 250 258 250zM302 380c-77 0 -130 -59 -130 -140s53 -140 130 -140s130 59 130 140s-53 140 -130 140zM179 550c-32 5 -59 25 -67 61c26 46 76 73 123 73c73 0 80 -38 127 -38 c30 0 53 18 64 40c32 -5 59 -25 67 -61c-26 -46 -76 -73 -123 -73c-73 0 -80 38 -127 38c-30 0 -53 -18 -64 -40z" />
<glyph unicode="&#xf6;" d="M302 490c135 0 258 -91 258 -250s-123 -250 -258 -250s-258 91 -258 250s123 250 258 250zM302 380c-77 0 -130 -59 -130 -140s53 -140 130 -140s130 59 130 140s-53 140 -130 140zM323 626c0 41 33 74 74 74s74 -33 74 -74s-33 -74 -74 -74s-74 33 -74 74zM133 626 c0 41 33 74 74 74s74 -33 74 -74s-33 -74 -74 -74s-74 33 -74 74z" />
<glyph unicode="&#xf7;" horiz-adv-x="510" d="M34 193v94h442v-94h-442zM161 401c0 49 40 89 89 89s89 -40 89 -89s-40 -89 -89 -89s-89 40 -89 89zM161 79c0 49 40 89 89 89s89 -40 89 -89s-40 -89 -89 -89s-89 40 -89 89z" />
<glyph unicode="&#xf8;" d="M302 490c37 0 74 -7 107 -21l22 28c41 -10 77 -34 92 -71l-19 -24c35 -41 56 -96 56 -162c0 -159 -123 -250 -258 -250c-38 0 -74 7 -108 20l-21 -27c-41 10 -77 34 -92 71l19 24c-35 41 -56 95 -56 162c0 159 123 250 258 250zM432 240c0 21 -3 40 -10 58l-154 -194 c11 -3 22 -4 34 -4c77 0 130 59 130 140zM302 380c-77 0 -130 -59 -130 -140c0 -21 3 -40 10 -58l154 194c-11 3 -22 4 -34 4z" />
<glyph unicode="&#xf9;" horiz-adv-x="578" d="M188 480v-282c0 -60 36 -98 103 -98c35 0 74 13 99 33v347h128v-403c-57 -49 -131 -87 -230 -87c-154 0 -228 74 -228 208v282h128zM218 729l204 -126c-3 -34 -18 -62 -38 -75l-223 88z" />
<glyph unicode="&#xfa;" horiz-adv-x="578" d="M188 480v-282c0 -60 36 -98 103 -98c35 0 74 13 99 33v347h128v-403c-57 -49 -131 -87 -230 -87c-154 0 -228 74 -228 208v282h128zM168 603l204 126l57 -113l-223 -88c-20 13 -35 41 -38 75z" />
<glyph unicode="&#xfb;" horiz-adv-x="578" d="M188 480v-282c0 -60 36 -98 103 -98c35 0 74 13 99 33v347h128v-403c-57 -49 -131 -87 -230 -87c-154 0 -228 74 -228 208v282h128zM108 586l178 124l178 -124c-7 -28 -25 -52 -45 -66l-133 73l-133 -73c-20 14 -38 38 -45 66z" />
<glyph unicode="&#xfc;" horiz-adv-x="578" d="M188 480v-282c0 -60 36 -98 103 -98c35 0 74 13 99 33v347h128v-403c-57 -49 -131 -87 -230 -87c-154 0 -228 74 -228 208v282h128zM308 626c0 41 33 74 74 74s74 -33 74 -74s-33 -74 -74 -74s-74 33 -74 74zM118 626c0 41 33 74 74 74s74 -33 74 -74s-33 -74 -74 -74 s-74 33 -74 74z" />
<glyph unicode="&#xfd;" horiz-adv-x="576" d="M186 480v-270c0 -72 39 -110 103 -110c35 0 74 13 99 33v347h128v-474c0 -143 -77 -236 -230 -236c-116 0 -183 49 -218 98c18 48 45 74 85 84c27 -40 72 -72 130 -72c75 0 105 42 105 106v34c-25 -18 -68 -30 -112 -30c-143 0 -218 91 -218 212v278h128zM169 603 l204 126l57 -113l-223 -88c-20 13 -35 41 -38 75z" />
<glyph unicode="&#xfe;" d="M60 -220v904c35 27 73 37 128 37v-270c28 23 76 39 127 39c135 0 245 -89 245 -250c0 -162 -127 -250 -251 -250c-45 0 -91 12 -121 32v-242h-128zM307 380c-67 0 -119 -44 -119 -128v-107c24 -26 70 -45 113 -45c79 0 131 56 131 140s-50 140 -125 140z" />
<glyph unicode="&#xff;" horiz-adv-x="576" d="M186 480v-270c0 -72 39 -110 103 -110c35 0 74 13 99 33v347h128v-474c0 -143 -77 -236 -230 -236c-116 0 -183 49 -218 98c18 48 45 74 85 84c27 -40 72 -72 130 -72c75 0 105 42 105 106v34c-25 -18 -68 -30 -112 -30c-143 0 -218 91 -218 212v278h128zM308 626 c0 41 33 74 74 74s74 -33 74 -74s-33 -74 -74 -74s-74 33 -74 74zM118 626c0 41 33 74 74 74s74 -33 74 -74s-33 -74 -74 -74s-74 33 -74 74z" />
<glyph unicode="&#x131;" horiz-adv-x="248" d="M60 0v480h128v-480h-128z" />
<glyph unicode="&#x141;" horiz-adv-x="637" d="M46 161l-51 88l98 56v395h138v-315l121 70l51 -88l-172 -100v-139h364v-128h-502v188z" />
<glyph unicode="&#x142;" horiz-adv-x="342" d="M41 164l-51 88l94 54v378c35 27 73 37 128 37v-341l63 37l51 -88l-114 -66v-127c0 -21 12 -32 31 -32c5 0 10 0 16 2c18 -25 23 -58 23 -99c-23 -8 -38 -13 -74 -13c-83 0 -124 50 -124 148v47z" />
<glyph unicode="&#x152;" horiz-adv-x="1138" d="M395 -10c-181 0 -345 116 -345 360s164 360 345 360c75 0 148 -21 207 -62v52h488v-128h-350v-143h230v-128h-230v-173h360v-128h-498v51c-59 -41 -132 -61 -207 -61zM395 582c-113 0 -207 -84 -207 -232s94 -232 207 -232s207 84 207 232s-94 232 -207 232z" />
<glyph unicode="&#x153;" horiz-adv-x="961" d="M302 490c77 0 150 -30 198 -85c49 54 123 85 212 85c127 0 193 -68 193 -145c0 -147 -160 -188 -318 -200c23 -32 61 -53 113 -53c64 0 103 22 152 74c38 -17 60 -42 73 -76c-64 -64 -130 -100 -233 -100c-82 0 -152 28 -199 77c-48 -50 -118 -77 -191 -77 c-135 0 -258 91 -258 250s123 250 258 250zM302 380c-77 0 -130 -59 -130 -140s53 -140 130 -140s130 59 130 140s-53 140 -130 140zM560 240v-6c134 10 221 35 221 101c0 29 -29 54 -77 54c-80 0 -142 -61 -144 -149z" />
<glyph unicode="&#x160;" horiz-adv-x="621" d="M209 526c0 -42 41 -75 142 -104c154 -44 216 -93 216 -214c0 -143 -114 -218 -252 -218c-159 0 -245 94 -271 204c24 25 65 40 113 40c6 0 8 0 18 -1c13 -70 62 -119 140 -119c68 0 119 33 119 89c0 47 -28 80 -150 111c-132 33 -203 108 -203 205c0 105 77 191 236 191 c126 0 192 -61 232 -123c-16 -35 -64 -71 -98 -82c-30 55 -75 91 -135 91c-73 0 -107 -29 -107 -70zM491 864l-178 -124l-178 124c7 28 25 52 45 66l133 -73l133 73c20 -14 38 -38 45 -66z" />
<glyph unicode="&#x161;" horiz-adv-x="501" d="M184 352c0 -30 30 -47 118 -64c93 -18 155 -53 155 -135c0 -97 -81 -163 -198 -163c-108 0 -206 58 -219 154c24 20 51 30 86 30c7 0 14 0 22 -1c21 -58 60 -79 118 -79c42 0 73 16 73 52c0 34 -33 48 -116 65c-72 15 -151 46 -151 138c0 90 83 141 186 141 c88 0 145 -35 181 -77c-18 -40 -37 -63 -74 -76c-21 32 -63 59 -109 59c-50 0 -72 -18 -72 -44zM437 644l-178 -124l-178 124c7 28 25 52 45 66l133 -73l133 73c20 -14 38 -38 45 -66z" />
<glyph unicode="&#x178;" horiz-adv-x="586" d="M224 0v232c-103 154 -172 300 -204 468h144c34 -154 73 -223 129 -316c56 93 95 162 129 316h144c-32 -168 -101 -314 -204 -468v-232h-138zM314 846c0 41 33 74 74 74s74 -33 74 -74s-33 -74 -74 -74s-74 33 -74 74zM124 846c0 41 33 74 74 74s74 -33 74 -74 s-33 -74 -74 -74s-74 33 -74 74z" />
<glyph unicode="&#x17d;" horiz-adv-x="583" d="M48 572v128h485v-53c0 -105 -66 -182 -188 -313c-73 -78 -133 -145 -145 -206h347v-128h-513v49c0 149 71 220 210 363c73 75 114 117 123 160h-319zM462 864l-178 -124l-178 124c7 28 25 52 45 66l133 -73l133 73c20 -14 38 -38 45 -66z" />
<glyph unicode="&#x17e;" horiz-adv-x="453" d="M49 382v98h353v-46c0 -157 -198 -229 -230 -336h244v-98h-383v53c0 154 184 219 230 329h-214zM404 644l-178 -124l-178 124c7 28 25 52 45 66l133 -73l133 73c20 -14 38 -38 45 -66z" />
<glyph unicode="&#x192;" horiz-adv-x="391" d="M116 -59v579c0 122 73 190 180 190c48 0 85 -12 115 -33c-5 -54 -24 -76 -48 -95c-14 13 -33 24 -56 24c-40 0 -63 -26 -63 -75v-51h127v-98h-127v-422c0 -122 -61 -190 -172 -190c-50 0 -79 12 -108 33c3 46 21 74 48 96c14 -13 31 -25 55 -25c29 0 49 22 49 67z" />
<glyph unicode="&#x2c6;" horiz-adv-x="428" d="M36 586l178 124l178 -124c-7 -28 -25 -52 -45 -66l-133 73l-133 -73c-20 14 -38 38 -45 66z" />
<glyph unicode="&#x2c7;" horiz-adv-x="428" d="M392 644l-178 -124l-178 124c7 28 25 52 45 66l133 -73l133 73c20 -14 38 -38 45 -66z" />
<glyph unicode="&#x2d8;" horiz-adv-x="304" d="M266 643c-8 -45 -49 -81 -114 -81s-106 36 -114 81c17 21 48 34 82 34c2 -18 11 -32 32 -32s30 14 32 32c34 0 65 -13 82 -34z" />
<glyph unicode="&#x2d9;" horiz-adv-x="248" d="M40 626c0 47 37 84 84 84s84 -37 84 -84s-37 -84 -84 -84s-84 37 -84 84z" />
<glyph unicode="&#x2da;" horiz-adv-x="292" d="M40 644c0 58 48 106 106 106s106 -48 106 -106s-48 -106 -106 -106s-106 48 -106 106zM116 644c0 -16 14 -30 30 -30s30 14 30 30s-14 30 -30 30s-30 -14 -30 -30z" />
<glyph unicode="&#x2db;" horiz-adv-x="262" d="M212 -220h-14c-106 0 -144 47 -144 107c0 48 34 107 92 147l74 -34c-48 -37 -72 -62 -72 -97c0 -31 22 -47 64 -47c7 -8 10 -22 10 -36s-3 -27 -10 -40z" />
<glyph unicode="&#x2dc;" horiz-adv-x="445" d="M99 550c-32 5 -59 25 -67 61c26 46 76 73 123 73c73 0 80 -38 127 -38c30 0 53 18 64 40c32 -5 59 -25 67 -61c-26 -46 -76 -73 -123 -73c-73 0 -80 38 -127 38c-30 0 -53 -18 -64 -40z" />
<glyph unicode="&#x2dd;" horiz-adv-x="483" d="M220 553l160 171l83 -87l-188 -144c-25 10 -44 32 -55 60zM20 553l160 171l83 -87l-188 -144c-25 10 -44 32 -55 60z" />
<glyph unicode="&#x2206;" horiz-adv-x="692" d="M18 0l269 700h118l269 -700h-656zM346 540l-159 -430h318z" />
<glyph unicode="&#x2126;" horiz-adv-x="754" d="M377 710c171 0 331 -106 331 -319c0 -128 -67 -234 -120 -285h99v-106h-272v88c80 73 159 167 159 299c0 127 -98 195 -197 195s-197 -68 -197 -195c0 -132 79 -226 159 -299v-88h-272v106h99c-53 51 -120 157 -120 285c0 213 160 319 331 319z" />
<glyph unicode="&#x2013;" horiz-adv-x="522" d="M34 276v122h454v-122h-454z" />
<glyph unicode="&#x2014;" horiz-adv-x="882" d="M34 276v122h814v-122h-814z" />
<glyph unicode="&#x2018;" horiz-adv-x="266" d="M232 673l-86 -206l-112 54l124 189c26 -2 57 -16 74 -37z" />
<glyph unicode="&#x2019;" horiz-adv-x="266" d="M34 504l86 206l112 -54l-124 -189c-26 2 -57 16 -74 37z" />
<glyph unicode="&#x201a;" horiz-adv-x="266" d="M34 -73l86 206l112 -54l-124 -189c-26 2 -57 16 -74 37z" />
<glyph unicode="&#x201c;" horiz-adv-x="432" d="M232 673l-86 -206l-112 54l124 189c26 -2 57 -16 74 -37zM398 673l-86 -206l-112 54l124 189c26 -2 57 -16 74 -37z" />
<glyph unicode="&#x201d;" horiz-adv-x="432" d="M200 504l86 206l112 -54l-124 -189c-26 2 -57 16 -74 37zM34 504l86 206l112 -54l-124 -189c-26 2 -57 16 -74 37z" />
<glyph unicode="&#x201e;" horiz-adv-x="432" d="M200 -73l86 206l112 -54l-124 -189c-26 2 -57 16 -74 37zM34 -73l86 206l112 -54l-124 -189c-26 2 -57 16 -74 37z" />
<glyph unicode="&#x2020;" horiz-adv-x="414" d="M36 356v124h102v220h138v-220h102v-124h-102v-526h-138v526h-102z" />
<glyph unicode="&#x2021;" horiz-adv-x="414" d="M36 356v124h102v220h138v-220h102v-124h-102v-182h102v-124h-102v-220h-138v220h-102v124h102v182h-102z" />
<glyph unicode="&#x2022;" horiz-adv-x="320" d="M54 350c0 60 46 106 106 106s106 -46 106 -106s-46 -106 -106 -106s-106 46 -106 106z" />
<glyph unicode="&#x2030;" horiz-adv-x="981" d="M508 328c50 0 96 -18 129 -50c33 32 79 50 129 50c96 0 175 -68 175 -169s-79 -169 -175 -169c-50 0 -96 18 -129 50c-33 -32 -79 -50 -129 -50c-96 0 -175 68 -175 169s79 169 175 169zM216 710c96 0 176 -68 176 -169s-80 -169 -176 -169s-175 68 -175 169 s79 169 175 169zM102 251l476 275l45 -77l-476 -275zM508 240c-48 0 -80 -34 -80 -81s32 -81 80 -81s81 34 81 81s-33 81 -81 81zM766 240c-48 0 -81 -34 -81 -81s33 -81 81 -81s80 34 80 81s-32 81 -80 81zM216 622c-48 0 -80 -34 -80 -81s32 -81 80 -81s81 34 81 81 s-33 81 -81 81z" />
<glyph unicode="&#x2039;" horiz-adv-x="365" d="M59 336l192 204c29 -9 61 -42 69 -77l-145 -153l145 -153c-8 -35 -40 -68 -69 -77l-192 204v52z" />
<glyph unicode="&#x203a;" horiz-adv-x="365" d="M114 540l192 -204v-52l-192 -204c-29 9 -61 42 -69 77l145 153l-145 153c8 35 40 68 69 77z" />
<glyph unicode="&#x2044;" horiz-adv-x="609" d="M44 251l476 275l45 -77l-476 -275z" />
<glyph unicode="&#x20ac;" horiz-adv-x="727" d="M28 384v102h67c45 150 168 224 306 224c145 0 232 -80 270 -161c-20 -39 -73 -70 -117 -76c-26 64 -79 109 -157 109c-67 0 -122 -34 -154 -96h227v-102h-254c-1 -11 -1 -22 -1 -34s0 -23 1 -34h254v-102h-229c30 -63 84 -96 156 -96c84 0 122 47 159 135 c47 -5 98 -32 125 -67c-58 -133 -157 -196 -285 -196c-139 0 -258 74 -301 224h-67v102h50c-1 11 -1 22 -1 34c0 11 0 23 1 34h-50z" />
<glyph unicode="&#x2122;" horiz-adv-x="881" d="M672 300h-92c-21 123 -52 202 -90 266v-266h-90v400h108c49 -74 99 -167 118 -260c19 93 69 186 118 260h108v-400h-90v266c-38 -64 -69 -143 -90 -266zM26 618v82h324v-82h-117v-318h-90v318h-117z" />
<glyph unicode="&#x2202;" horiz-adv-x="597" d="M427 436c-22 100 -72 170 -146 170c-37 0 -63 -6 -94 -21c-17 20 -38 52 -39 97c29 14 84 28 137 28c187 0 268 -173 268 -374c0 -241 -111 -346 -259 -346c-139 0 -250 93 -250 243s111 239 241 239c66 0 111 -17 142 -36zM294 362c-60 0 -122 -42 -122 -129 c0 -89 52 -133 123 -133c75 0 135 69 137 197c-35 40 -83 65 -138 65z" />
<glyph unicode="&#x220f;" horiz-adv-x="664" d="M68 0v700h528v-700h-138v572h-252v-572h-138z" />
<glyph unicode="&#x2211;" horiz-adv-x="585" d="M395 350l-191 -244h336v-106h-498v95l207 255l-191 255v95h462v-106h-298z" />
<glyph unicode="&#x2212;" horiz-adv-x="510" d="M34 292v110h442v-110h-442z" />
<glyph unicode="&#x221a;" horiz-adv-x="621" d="M484 700h115l-284 -700h-104l-101 274h-86v106h164l78 -231z" />
<glyph unicode="&#x221e;" horiz-adv-x="734" d="M210 534c60 0 110 -28 140 -62c33 49 84 80 156 80c128 0 188 -86 188 -199s-64 -204 -198 -204c-78 0 -133 36 -164 78c-30 -34 -72 -59 -126 -59c-95 0 -166 74 -166 180c0 108 72 186 170 186zM396 340c-4 -13 -8 -29 -12 -39c25 -31 59 -54 116 -54 c63 0 91 51 91 105c0 60 -27 109 -85 109c-64 0 -94 -57 -110 -121zM300 365c4 16 6 22 9 30c-24 33 -59 56 -96 56c-48 0 -82 -41 -82 -102c0 -58 29 -94 84 -94c46 0 68 43 85 110z" />
<glyph unicode="&#x222b;" horiz-adv-x="391" d="M116 -59v579c0 122 73 190 180 190c48 0 85 -12 115 -33c-5 -54 -24 -76 -48 -95c-14 13 -33 24 -56 24c-40 0 -63 -26 -63 -75v-571c0 -122 -61 -190 -172 -190c-50 0 -79 12 -108 33c3 46 21 74 48 96c14 -13 31 -25 55 -25c29 0 49 22 49 67z" />
<glyph unicode="&#x2248;" horiz-adv-x="477" d="M99 152c-35 5 -61 29 -69 67c26 46 75 73 126 73c73 0 110 -38 157 -38c30 0 54 18 65 40c35 -5 61 -23 69 -61c-26 -46 -75 -79 -126 -79c-73 0 -110 38 -157 38c-30 0 -54 -18 -65 -40zM99 326c-35 5 -61 29 -69 67c26 46 75 73 126 73c73 0 110 -38 157 -38 c30 0 54 18 65 40c35 -5 61 -23 69 -61c-26 -46 -75 -79 -126 -79c-73 0 -110 38 -157 38c-30 0 -54 -18 -65 -40z" />
<glyph unicode="&#x2260;" horiz-adv-x="510" d="M34 366v102h243l95 165l88 -51l-66 -114h82v-102h-141l-42 -72h183v-102h-243l-95 -165l-88 51l66 114h-82v102h141l42 72h-183z" />
<glyph unicode="&#x3c0;" horiz-adv-x="694" d="M258 0h-128v382h-93v98h584v-98h-113v-227c0 -42 15 -61 48 -61c19 0 30 8 47 25c25 -18 44 -44 49 -86c-34 -28 -60 -43 -118 -43c-101 0 -154 69 -154 177v215h-122v-382z" />
<glyph unicode="&#x2264;" horiz-adv-x="526" d="M72 437l356 195c27 -20 49 -61 50 -104l-262 -136l262 -136c-1 -43 -23 -84 -50 -104l-356 195v90zM42 0v110h442v-110h-442z" />
<glyph unicode="&#x2265;" horiz-adv-x="526" d="M119 632l356 -195v-90l-356 -195c-27 20 -49 61 -50 104l262 136l-262 136c1 43 23 84 50 104zM42 0v110h442v-110h-442z" />
<glyph unicode="&#x25ca;" horiz-adv-x="608" d="M255 0l-237 350l237 350h98l237 -350l-237 -350h-98zM304 572l-145 -222l145 -222l145 222z" />
<glyph unicode="&#x2026;" horiz-adv-x="802" d="M68 79c0 49 40 89 89 89s89 -40 89 -89s-40 -89 -89 -89s-89 40 -89 89zM312 79c0 49 40 89 89 89s89 -40 89 -89s-40 -89 -89 -89s-89 40 -89 89zM556 79c0 49 40 89 89 89s89 -40 89 -89s-40 -89 -89 -89s-89 40 -89 89z" />
<glyph unicode="&#x22;" horiz-adv-x="389" d="M231 490l-14 210h114l-14 -210c-9 -5 -25 -8 -43 -8s-34 3 -43 8zM72 490l-14 210h114l-14 -210c-9 -5 -25 -8 -43 -8s-34 3 -43 8z" />
<glyph unicode="!" horiz-adv-x="314" d="M68 79c0 49 40 89 89 89s89 -40 89 -89s-40 -89 -89 -89s-89 40 -89 89zM90 230v470h134v-470h-134z" />
</font>
</defs>
</svg>
