<?xml version="1.0" standalone="no"?>
<!DOCTYPE svg PUBLIC "-//W3C//DTD SVG 1.1//EN" "http://www.w3.org/Graphics/SVG/1.1/DTD/svg11.dtd" >
<svg xmlns="http://www.w3.org/2000/svg" xmlns:xlink="http://www.w3.org/1999/xlink" version="1.1">
<metadata></metadata>
<defs>
<font id="eirlight" horiz-adv-x="606" >
<font-face units-per-em="1000" ascent="800" descent="-200" />
<missing-glyph horiz-adv-x="228" />
<glyph unicode="fi" horiz-adv-x="450" d="M106 0h-48v506c0 132 81 204 189 204c69 0 113 -31 143 -61c-2 -15 -14 -27 -25 -36c-39 40 -76 53 -119 53c-84 0 -140 -57 -140 -166v-20h278v-480h-44v436h-234v-436z" />
<glyph unicode="fl" horiz-adv-x="479" d="M416 -6c-46 0 -76 29 -76 89v583h-91c-97 0 -143 -57 -143 -161v-25h164v-44h-164v-436h-48v510c0 128 70 200 188 200h142v-634c0 -23 11 -37 33 -37c6 0 13 1 20 3c5 -9 6 -24 6 -37v-5c-11 -4 -21 -6 -31 -6z" />
<glyph horiz-adv-x="0" />
<glyph horiz-adv-x="0" />
<glyph unicode="&#xd;" horiz-adv-x="0" />
<glyph unicode=" "  horiz-adv-x="228" />
<glyph unicode="&#x09;" horiz-adv-x="228" />
<glyph unicode="&#xa0;" horiz-adv-x="228" />
<glyph unicode="#" horiz-adv-x="653" d="M358 0l47 220h-212l-47 -220h-52l47 220h-121l9 40h120l38 180h-123l9 40h123l47 220h52l-47 -220h212l47 220h52l-47 -220h121l-9 -40h-120l-38 -180h123l-9 -40h-123l-47 -220h-52zM239 440l-38 -180h213l38 180h-213z" />
<glyph unicode="$" horiz-adv-x="567" d="M264 -85v76c-120 9 -199 93 -220 189c9 11 35 16 49 16c16 -78 73 -150 171 -159v316c-127 38 -193 89 -193 186c0 80 62 162 193 170v76h46v-76c83 -8 149 -57 183 -113c-9 -15 -19 -23 -36 -31c-39 60 -89 92 -147 99v-280c137 -42 203 -92 203 -199 c0 -101 -87 -184 -203 -194v-76h-46zM463 184c0 75 -40 120 -153 156v-303c90 9 153 66 153 147zM117 541c0 -77 48 -111 147 -143v267c-90 -7 -147 -57 -147 -124z" />
<glyph unicode="%" horiz-adv-x="709" d="M208 710c90 0 167 -68 167 -169s-77 -169 -167 -169s-167 68 -167 169s77 169 167 169zM208 670c-74 0 -123 -57 -123 -129s49 -129 123 -129s123 57 123 129s-49 129 -123 129zM106 231l476 275l21 -37l-476 -275zM501 328c90 0 167 -68 167 -169s-77 -169 -167 -169 s-167 68 -167 169s77 169 167 169zM501 288c-74 0 -123 -57 -123 -129s49 -129 123 -129s123 57 123 129s-49 129 -123 129z" />
<glyph unicode="&#x26;" d="M434 559c0 -104 -83 -157 -183 -190l8 -8l183 -213c25 44 45 99 64 163c18 -3 29 -6 40 -15c-18 -75 -42 -136 -73 -183l98 -113h-59l-66 76c-49 -57 -111 -86 -187 -86c-133 0 -210 94 -210 197c0 99 45 159 129 198c-38 47 -68 95 -68 160c0 94 65 165 166 165 c94 0 158 -63 158 -151zM417 109l-211 243c-72 -33 -109 -86 -109 -165c0 -84 70 -153 165 -153c67 0 116 27 155 75zM158 544c0 -45 18 -83 66 -142c125 42 164 86 164 159c0 55 -36 105 -113 105c-66 0 -117 -48 -117 -122z" />
<glyph unicode="'" horiz-adv-x="174" d="M68 507l-10 193h58l-10 -193c-7 -2 -11 -3 -19 -3s-12 1 -19 3z" />
<glyph unicode="(" horiz-adv-x="309" d="M130 350c0 -170 54 -299 140 -385c-10 -15 -22 -24 -38 -27c-80 85 -152 216 -152 412s72 327 152 412c16 -3 28 -12 38 -27c-86 -86 -140 -215 -140 -385z" />
<glyph unicode=")" horiz-adv-x="309" d="M179 350c0 170 -54 299 -140 385c10 15 22 24 38 27c80 -85 152 -216 152 -412s-72 -327 -152 -412c-16 3 -28 12 -38 27c86 86 140 215 140 385z" />
<glyph unicode="*" horiz-adv-x="354" d="M150 700h54l-13 -121l98 72l27 -47l-111 -49l111 -49l-27 -47l-98 72l13 -121h-54l13 121l-98 -72l-27 47l111 49l-111 49l27 47l98 -72z" />
<glyph unicode="+" horiz-adv-x="448" d="M34 326v42h169v169h42v-169h169v-42h-169v-169h-42v169h-169z" />
<glyph unicode="," horiz-adv-x="219" d="M53 -101l37 176l68 -18l-67 -169c-17 0 -27 3 -38 11z" />
<glyph unicode="-" horiz-adv-x="354" d="M34 316v42h286v-42h-286z" />
<glyph unicode="." horiz-adv-x="228" d="M68 36c0 25 21 46 46 46s46 -21 46 -46s-21 -46 -46 -46s-46 21 -46 46z" />
<glyph unicode="/" horiz-adv-x="516" d="M26 0l412 700h52l-412 -700h-52z" />
<glyph unicode="0" horiz-adv-x="652" d="M326 -10c-157 0 -278 130 -278 360s118 360 278 360s278 -130 278 -360s-121 -360 -278 -360zM326 664c-137 0 -228 -131 -228 -314s91 -314 228 -314s228 131 228 314s-91 314 -228 314z" />
<glyph unicode="1" horiz-adv-x="275" d="M55 557c-11 10 -18 20 -22 41c55 24 82 46 124 102h50v-700h-50v632c-24 -31 -61 -61 -102 -75z" />
<glyph unicode="2" horiz-adv-x="536" d="M100 46h381v-46h-435v46c0 117 49 223 212 287c140 55 165 117 165 189c0 77 -59 142 -164 142c-76 0 -144 -46 -168 -136c-18 3 -32 11 -42 20c23 90 98 162 209 162c140 0 215 -82 215 -189c0 -102 -56 -172 -188 -224c-150 -59 -185 -153 -185 -251z" />
<glyph unicode="3" horiz-adv-x="554" d="M266 358h-36c-3 7 -4 15 -4 22s1 13 4 20h29c102 0 157 53 157 132c0 81 -57 134 -151 134c-76 0 -132 -41 -156 -130c-20 4 -36 9 -46 23c32 99 107 151 201 151c119 0 200 -68 200 -167c0 -82 -47 -139 -98 -160c71 -25 135 -82 135 -175c0 -125 -99 -218 -230 -218 c-135 0 -217 90 -235 176c13 14 26 18 45 20c22 -87 82 -150 190 -150c117 0 180 77 180 166c0 106 -85 154 -185 156z" />
<glyph unicode="4" horiz-adv-x="559" d="M50 184v46c85 195 207 365 336 470h50v-470h80v-46h-80v-184h-50v184h-336zM386 631c-94 -73 -223 -251 -281 -401h281v401z" />
<glyph unicode="5" horiz-adv-x="585" d="M64 319l37 381h396v-46h-355l-31 -259c34 44 98 95 190 95c124 0 232 -91 232 -249s-109 -251 -242 -251c-138 0 -215 93 -235 177c10 12 22 18 42 20c26 -88 80 -151 193 -151c120 0 192 82 192 205c0 128 -82 205 -189 205c-84 0 -156 -56 -184 -136 c-6 -1 -8 -1 -12 -1c-15 0 -24 4 -34 10z" />
<glyph unicode="6" horiz-adv-x="579" d="M313 664c-107 0 -196 -109 -212 -280c51 52 124 94 206 94c119 0 224 -90 224 -243c0 -150 -104 -245 -232 -245c-145 0 -251 112 -251 336c0 216 105 384 266 384c98 0 160 -56 194 -119c-7 -16 -18 -24 -37 -31c-36 71 -86 104 -158 104zM307 434 c-78 0 -162 -56 -209 -120c3 -174 81 -278 202 -278c104 0 181 76 181 199s-78 199 -174 199z" />
<glyph unicode="7" horiz-adv-x="483" d="M433 700v-46c0 -252 -208 -346 -208 -654h-50c3 330 212 400 212 654h-356v46h402z" />
<glyph unicode="8" horiz-adv-x="585" d="M495 533c0 -75 -36 -128 -83 -168c73 -35 121 -86 121 -158c0 -146 -112 -217 -237 -217c-124 0 -244 67 -244 219c0 100 60 166 117 198c-46 29 -80 73 -80 135c0 107 92 168 202 168c126 0 204 -79 204 -177zM283 362c-20 4 -41 10 -61 18c-55 -26 -117 -75 -117 -169 c0 -112 95 -175 191 -175c97 0 187 53 187 166c0 96 -103 139 -200 160zM309 402c18 -5 36 -10 52 -16c55 35 84 89 84 143c0 71 -64 133 -154 133c-77 0 -152 -40 -152 -119c0 -87 98 -122 170 -141z" />
<glyph unicode="9" horiz-adv-x="579" d="M266 36c116 0 201 109 213 290c-54 -59 -119 -104 -207 -104c-119 0 -224 90 -224 243c0 150 104 245 232 245c145 0 251 -113 251 -337c0 -223 -105 -383 -259 -383c-105 0 -170 61 -201 119c7 16 18 24 37 31c36 -71 86 -104 158 -104zM272 266c85 0 163 55 209 125 c-5 170 -84 273 -202 273c-104 0 -181 -76 -181 -199s78 -199 174 -199z" />
<glyph unicode=":" horiz-adv-x="228" d="M68 444c0 25 21 46 46 46s46 -21 46 -46s-21 -46 -46 -46s-46 21 -46 46zM68 36c0 25 21 46 46 46s46 -21 46 -46s-21 -46 -46 -46s-46 21 -46 46z" />
<glyph unicode=";" horiz-adv-x="224" d="M41 -101l37 176l68 -18l-67 -169c-17 0 -27 3 -38 11zM64 444c0 25 21 46 46 46s46 -21 46 -46s-21 -46 -46 -46s-46 21 -46 46z" />
<glyph unicode="&#x3c;" horiz-adv-x="472" d="M64 334l326 178c11 -10 18 -23 21 -41l-300 -161l300 -161c-3 -18 -10 -31 -21 -41l-326 178v48z" />
<glyph unicode="=" horiz-adv-x="448" d="M34 222v42h380v-42h-380zM34 396v42h380v-42h-380z" />
<glyph unicode="&#x3e;" horiz-adv-x="472" d="M82 512l326 -178v-48l-326 -178c-11 10 -18 23 -21 41l300 161l-300 161c3 18 10 31 21 41z" />
<glyph unicode="?" horiz-adv-x="485" d="M87 540c-18 4 -30 9 -38 23c32 94 105 147 202 147c127 0 184 -79 184 -168c0 -160 -168 -153 -168 -322v-46h-50v51c0 178 170 182 170 314c0 68 -50 131 -136 131c-73 0 -132 -41 -164 -130zM196 36c0 25 21 46 46 46s46 -21 46 -46s-21 -46 -46 -46s-46 21 -46 46z " />
<glyph unicode="@" horiz-adv-x="833" d="M558 4c-54 -27 -102 -40 -168 -40c-172 0 -336 120 -336 356c0 223 162 390 403 390c210 0 324 -154 324 -311c0 -178 -97 -282 -189 -282c-40 0 -68 24 -68 65c0 10 1 20 3 30c-36 -62 -92 -95 -155 -95c-97 0 -170 80 -170 205c0 155 123 241 231 241 c80 0 139 -41 169 -73l-37 -283c-1 -8 -1 -12 -1 -17c0 -18 13 -29 33 -29c61 0 136 87 136 237c0 152 -107 268 -282 268c-191 0 -349 -133 -349 -345c0 -216 147 -311 290 -311c69 0 101 14 143 37c13 -12 21 -25 23 -43zM435 519c-103 0 -185 -74 -185 -198 c0 -97 49 -160 134 -160c87 0 141 92 155 192l16 121c-31 27 -70 45 -120 45z" />
<glyph unicode="A" d="M277 700h52c90 -135 202 -432 259 -700h-54c-13 65 -29 131 -47 196h-368c-18 -65 -34 -131 -47 -196h-54c57 268 169 565 259 700zM303 656c-57 -94 -122 -253 -170 -414h340c-48 161 -114 320 -170 414z" />
<glyph unicode="B" horiz-adv-x="573" d="M68 0v700h190c143 0 221 -75 221 -180c0 -60 -23 -106 -62 -136c67 -36 111 -103 111 -179c0 -127 -97 -205 -239 -205h-221zM268 340c-58 0 -107 6 -150 15v-309h170c127 0 190 63 190 153c0 81 -47 133 -113 156c-28 -10 -60 -15 -97 -15zM429 520 c0 85 -53 134 -167 134h-144v-250c44 -11 106 -18 151 -18c107 0 160 49 160 134z" />
<glyph unicode="C" horiz-adv-x="689" d="M606 191c18 -6 29 -13 39 -27c-59 -113 -152 -174 -268 -174c-167 0 -327 120 -327 360s164 360 327 360c105 0 201 -48 261 -149c-6 -16 -17 -24 -35 -29c-51 88 -132 132 -224 132c-143 0 -279 -112 -279 -314s136 -314 279 -314c104 0 177 54 227 155z" />
<glyph unicode="D" horiz-adv-x="633" d="M76 0v700h171c177 0 336 -116 336 -350s-159 -350 -336 -350h-171zM533 350c0 203 -134 304 -284 304h-123v-608h123c146 0 284 101 284 304z" />
<glyph unicode="E" horiz-adv-x="534" d="M68 0v700h418v-46h-368v-266h248v-46h-248v-296h378v-46h-428z" />
<glyph unicode="F" horiz-adv-x="537" d="M68 0v700h429v-46h-379v-304h307v-46h-307v-304h-50z" />
<glyph unicode="G" horiz-adv-x="709" d="M383 318v46h268v-275c-71 -66 -161 -99 -259 -99c-179 0 -342 118 -342 360c0 240 160 360 327 360c103 0 199 -42 261 -142c-10 -19 -21 -26 -37 -31c-51 88 -131 127 -222 127c-146 0 -279 -112 -279 -314s139 -314 294 -314c90 0 151 32 207 72v210h-218z" />
<glyph unicode="H" horiz-adv-x="656" d="M68 0v700h50v-306h420v306h50v-700h-50v348h-420v-348h-50z" />
<glyph unicode="I" horiz-adv-x="186" d="M68 0v700h50v-700h-50z" />
<glyph unicode="J" horiz-adv-x="475" d="M38 115c6 16 23 26 42 30c26 -67 81 -109 154 -109c87 0 127 57 127 155v509h50v-507c0 -105 -57 -203 -177 -203c-103 0 -164 58 -196 125z" />
<glyph unicode="K" horiz-adv-x="552" d="M460 0l-258 367c-27 -25 -55 -49 -84 -70v-297h-50v700h50v-347c124 97 210 216 275 347h50c-44 -107 -118 -211 -205 -298l278 -402h-56z" />
<glyph unicode="L" horiz-adv-x="547" d="M68 0v700h50v-654h387v-46h-437z" />
<glyph unicode="M" horiz-adv-x="846" d="M452 0h-58c-72 245 -152 431 -276 642v-642h-50v700h69c129 -203 219 -416 286 -642c67 226 157 439 286 642h69v-700h-50v642c-124 -211 -204 -397 -276 -642z" />
<glyph unicode="N" horiz-adv-x="644" d="M68 0v700h50c160 -196 288 -392 408 -621v621h50v-700h-65c-104 215 -247 445 -393 622v-622h-50z" />
<glyph unicode="O" horiz-adv-x="744" d="M372 -10c-167 0 -322 122 -322 360s155 360 322 360s322 -122 322 -360s-155 -360 -322 -360zM372 664c-141 0 -272 -112 -272 -314s131 -314 272 -314s272 112 272 314s-131 314 -272 314z" />
<glyph unicode="P" horiz-adv-x="548" d="M68 0v700h179c152 0 253 -82 253 -220c0 -159 -116 -221 -229 -221c-69 0 -119 10 -153 21v-280h-50zM450 480c0 106 -73 174 -206 174h-126v-321c40 -18 95 -28 141 -28c123 0 191 61 191 175z" />
<glyph unicode="Q" horiz-adv-x="744" d="M372 -10c-167 0 -322 122 -322 360s155 360 322 360s322 -122 322 -360c0 -132 -48 -229 -119 -288c31 -30 69 -54 117 -72c-3 -17 -9 -30 -20 -42c-58 26 -101 54 -136 86c-49 -30 -106 -44 -164 -44zM372 664c-141 0 -272 -112 -272 -314s131 -314 272 -314 c46 0 90 11 130 34c-28 34 -49 73 -68 115c10 14 26 23 45 24c17 -39 37 -77 63 -110c61 53 102 138 102 251c0 202 -131 314 -272 314z" />
<glyph unicode="R" horiz-adv-x="540" d="M486 0h-50c-19 147 -70 237 -134 296h-24c-58 0 -115 5 -160 15v-311h-50v700h184c144 0 234 -64 234 -199c0 -105 -54 -161 -130 -193c59 -61 110 -160 130 -308zM436 498c0 100 -55 156 -173 156h-145v-293c53 -13 94 -19 145 -19c118 0 173 61 173 156z" />
<glyph unicode="S" horiz-adv-x="567" d="M117 541c0 -84 58 -117 178 -152c147 -43 218 -93 218 -204c0 -108 -100 -195 -228 -195c-132 0 -219 89 -241 190c9 11 35 16 49 16c17 -83 81 -160 192 -160c103 0 178 60 178 148c0 82 -47 127 -184 165s-208 89 -208 190c0 85 69 171 216 171c94 0 169 -53 206 -114 c-9 -15 -19 -23 -36 -31c-44 68 -103 101 -171 101c-102 0 -169 -52 -169 -125z" />
<glyph unicode="T" horiz-adv-x="522" d="M22 654v46h478v-46h-214v-654h-50v654h-214z" />
<glyph unicode="U" horiz-adv-x="664" d="M550 292v408h50v-411c0 -206 -113 -299 -268 -299s-268 93 -268 299v411h50v-408c0 -191 108 -256 218 -256s218 65 218 256z" />
<glyph unicode="V" horiz-adv-x="614" d="M277 0c-119 229 -198 429 -255 700h50c55 -265 138 -458 235 -648c97 190 180 383 235 648h50c-57 -271 -136 -471 -255 -700h-60z" />
<glyph unicode="W" horiz-adv-x="886" d="M443 592c-37 -213 -118 -454 -173 -592h-52c-80 206 -153 425 -198 700h48c34 -209 106 -453 179 -634c71 180 135 423 171 634h50c36 -211 100 -454 171 -634c73 181 145 425 179 634h48c-45 -275 -118 -494 -198 -700h-52c-55 138 -136 379 -173 592z" />
<glyph unicode="X" horiz-adv-x="516" d="M26 700h55c17 -104 76 -200 178 -294c92 86 150 184 177 294h55c-34 -145 -126 -259 -193 -323c106 -101 181 -237 209 -377h-55c-17 124 -100 253 -193 347c-88 -91 -164 -221 -192 -347h-58c40 147 119 274 215 376c-84 79 -162 165 -198 324z" />
<glyph unicode="Y" horiz-adv-x="522" d="M236 0v252c-100 140 -159 237 -216 448h50c45 -172 96 -281 191 -400c95 119 146 228 191 400h50c-57 -211 -116 -308 -216 -448v-252h-50z" />
<glyph unicode="Z" horiz-adv-x="548" d="M49 654v46h447v-21c0 -181 -408 -472 -408 -633h424v-46h-478v25c0 205 401 476 406 629h-391z" />
<glyph unicode="[" horiz-adv-x="258" d="M68 -170v870h150v-44h-102v-782h102v-44h-150z" />
<glyph unicode="\" horiz-adv-x="516" d="M78 700l412 -700h-52l-412 700h52z" />
<glyph unicode="]" horiz-adv-x="258" d="M190 700v-870h-150v44h102v782h-102v44h150z" />
<glyph unicode="^" horiz-adv-x="464" d="M34 455l180 245h36l180 -245c-8 -15 -18 -22 -34 -26l-164 228l-164 -228c-16 4 -26 11 -34 26z" />
<glyph unicode="_" horiz-adv-x="448" d="M24 -52v42h400v-42h-400z" />
<glyph unicode="`" horiz-adv-x="282" d="M71 699l175 -108c-3 -16 -8 -25 -16 -33l-194 75z" />
<glyph unicode="a" horiz-adv-x="539" d="M461 422v-305c0 -46 9 -70 53 -81c-5 -22 -10 -35 -20 -46c-48 14 -73 44 -79 87c-38 -60 -99 -87 -163 -87c-131 0 -208 101 -208 250c0 146 105 250 226 250c90 0 139 -30 191 -68zM269 446c-101 0 -177 -90 -177 -206s55 -206 167 -206c102 0 154 82 154 196v170 c-40 27 -84 46 -144 46z" />
<glyph unicode="b" horiz-adv-x="539" d="M60 95v615c15 6 29 10 48 11v-335c25 62 100 104 169 104c137 0 218 -105 218 -250c0 -142 -77 -250 -227 -250c-81 0 -150 33 -208 105zM270 34c112 0 177 87 177 206s-65 206 -169 206c-111 0 -170 -96 -170 -210v-117c38 -49 92 -85 162 -85z" />
<glyph unicode="c" horiz-adv-x="489" d="M422 99c12 -7 26 -18 29 -32c-41 -47 -102 -77 -177 -77c-133 0 -230 91 -230 250s103 250 230 250c88 0 142 -36 176 -76c-7 -16 -20 -27 -34 -35c-35 46 -75 67 -142 67c-117 0 -182 -98 -182 -207s64 -205 181 -205c58 0 102 17 149 65z" />
<glyph unicode="d" horiz-adv-x="549" d="M524 34c-2 -19 -4 -29 -14 -44c-44 13 -70 41 -79 80c-40 -48 -91 -80 -165 -80c-141 0 -222 106 -222 250s84 250 232 250c64 0 120 -24 156 -50v270c15 6 29 10 48 11v-609c0 -45 8 -66 44 -78zM270 446c-109 0 -178 -89 -178 -206s67 -206 174 -206 c115 0 166 91 166 192v154c-43 41 -89 66 -162 66z" />
<glyph unicode="e" horiz-adv-x="513" d="M459 355c0 -112 -112 -183 -363 -185c18 -81 83 -136 179 -136c74 0 119 31 172 86c16 -10 23 -18 30 -37c-45 -48 -116 -93 -198 -93c-148 0 -235 91 -235 230c0 192 159 270 256 270c114 0 159 -62 159 -135zM92 214c209 2 321 54 321 140c0 47 -33 92 -112 92 c-114 0 -209 -95 -209 -232z" />
<glyph unicode="f" horiz-adv-x="280" d="M106 0h-48v553c0 85 61 157 155 157c42 0 72 -13 94 -32c-3 -15 -9 -28 -21 -39c-26 19 -49 27 -77 27c-69 0 -103 -57 -103 -125v-61h145v-44h-145v-436z" />
<glyph unicode="g" horiz-adv-x="538" d="M430 -9v99c-39 -59 -104 -90 -169 -90c-133 0 -217 98 -217 245s97 245 234 245c68 0 150 -30 200 -74v-426c0 -157 -105 -220 -212 -220c-93 0 -155 38 -195 101c8 18 19 30 37 38c37 -60 79 -95 155 -95c100 0 167 68 167 177zM277 446c-115 0 -185 -88 -185 -201 s62 -201 172 -201s166 87 166 201v147c-35 26 -85 54 -153 54z" />
<glyph unicode="h" horiz-adv-x="511" d="M60 0v710c15 6 29 10 48 11v-297c40 34 100 66 173 66c108 0 170 -73 170 -178v-312h-48v308c0 89 -49 138 -127 138c-69 0 -134 -41 -168 -83v-363h-48z" />
<glyph unicode="i" horiz-adv-x="164" d="M40 626c0 23 19 42 42 42s42 -19 42 -42s-19 -42 -42 -42s-42 19 -42 42zM60 0v480h44v-480h-44z" />
<glyph unicode="j" horiz-adv-x="170" d="M66 -72v552h44v-548c0 -89 -53 -118 -98 -118c-8 0 -20 1 -33 5c0 17 3 32 9 43c7 -3 14 -4 21 -4c31 0 57 26 57 70zM46 626c0 23 19 42 42 42s42 -19 42 -42s-19 -42 -42 -42s-42 19 -42 42z" />
<glyph unicode="k" horiz-adv-x="423" d="M362 0l-163 253c-29 -24 -59 -45 -91 -65v-188h-48v710c15 6 29 10 48 11v-476c95 56 183 153 225 235h50c-41 -75 -90 -139 -147 -193l183 -287h-57z" />
<glyph unicode="l" horiz-adv-x="199" d="M136 -6c-46 0 -76 29 -76 89v627c15 6 29 10 48 11v-646c0 -23 11 -37 33 -37c6 0 13 1 20 3c5 -9 6 -23 6 -36v-5c-11 -4 -21 -6 -31 -6z" />
<glyph unicode="m" horiz-adv-x="708" d="M330 0v331c0 76 -38 115 -104 115c-47 0 -94 -27 -118 -55v-391h-48v414c46 48 104 76 169 76c67 0 108 -26 129 -68c31 35 91 68 152 68c92 0 138 -63 138 -150v-340h-48v333c0 69 -32 113 -92 113c-56 0 -106 -32 -130 -72v-374h-48z" />
<glyph unicode="n" horiz-adv-x="501" d="M60 0v393c52 62 124 97 197 97c112 0 184 -67 184 -182v-308h-48v300c0 92 -49 146 -139 146c-62 0 -117 -34 -146 -72v-374h-48z" />
<glyph unicode="o" horiz-adv-x="552" d="M276 490c125 0 232 -91 232 -250s-107 -250 -232 -250s-232 91 -232 250s107 250 232 250zM276 446c-107 0 -184 -81 -184 -206s77 -206 184 -206s184 81 184 206s-77 206 -184 206z" />
<glyph unicode="p" horiz-adv-x="538" d="M60 -220v488c0 134 94 222 215 222c135 0 219 -96 219 -250c0 -135 -78 -250 -220 -250c-63 0 -121 17 -166 48v-258h-48zM271 34c107 0 175 83 175 206s-64 206 -172 206c-102 0 -166 -80 -166 -206v-139c38 -40 98 -67 163 -67z" />
<glyph unicode="q" horiz-adv-x="538" d="M478 415v-635h-48v312c-27 -62 -104 -102 -167 -102c-140 0 -219 105 -219 250s82 250 234 250c69 0 148 -29 200 -75zM277 446c-121 0 -185 -92 -185 -206s60 -206 172 -206c106 0 166 93 166 206v151c-33 26 -91 55 -153 55z" />
<glyph unicode="r" horiz-adv-x="334" d="M319 474c-2 -18 -6 -30 -16 -44c-18 10 -37 16 -62 16c-71 0 -133 -47 -133 -182v-264h-48v263c0 174 85 227 183 227c31 0 59 -8 76 -16z" />
<glyph unicode="s" horiz-adv-x="452" d="M113 366c0 -54 50 -79 136 -97c93 -20 159 -57 159 -134c0 -91 -81 -145 -172 -145c-97 0 -177 59 -196 155c9 8 28 14 43 14h6c16 -86 78 -125 147 -125c74 0 122 40 122 97c0 45 -27 73 -136 96c-98 21 -155 62 -155 139c0 83 81 124 166 124c78 0 128 -34 158 -72 c-4 -17 -18 -29 -30 -37c-31 38 -70 67 -129 67c-66 0 -119 -32 -119 -82z" />
<glyph unicode="t" horiz-adv-x="321" d="M274 436h-168v-301c0 -63 40 -101 102 -101c25 0 43 9 62 26c15 -8 24 -19 26 -36c-24 -21 -52 -34 -87 -34c-91 0 -151 53 -151 149v492c15 6 29 10 48 11v-162h168v-44z" />
<glyph unicode="u" horiz-adv-x="501" d="M441 480v-393c-52 -62 -124 -97 -197 -97c-112 0 -184 67 -184 182v308h48v-300c0 -92 49 -146 139 -146c62 0 117 34 146 72v374h48z" />
<glyph unicode="v" horiz-adv-x="456" d="M394 480h50c-37 -183 -100 -329 -185 -480h-62c-85 151 -148 297 -185 480h50c35 -182 86 -292 166 -436c80 144 131 254 166 436z" />
<glyph unicode="w" horiz-adv-x="706" d="M353 400c-17 -126 -73 -278 -127 -400h-46c-77 140 -140 328 -165 480h53c20 -146 70 -289 132 -422c54 126 93 241 124 422h58c31 -181 70 -296 124 -422c62 133 112 276 132 422h53c-25 -152 -88 -340 -165 -480h-46c-54 122 -110 274 -127 400z" />
<glyph unicode="x" horiz-adv-x="404" d="M27 480h54c22 -75 63 -139 121 -190c50 51 98 114 123 190h53c-28 -81 -81 -167 -141 -222c77 -64 133 -160 159 -258h-57c-16 84 -77 176 -137 225c-58 -48 -116 -132 -137 -225h-57c26 100 78 190 159 258c-61 54 -112 136 -140 222z" />
<glyph unicode="y" horiz-adv-x="494" d="M71 -139c8 17 17 26 34 35c31 -55 85 -82 143 -82c86 0 138 60 138 159v64c-41 -27 -82 -47 -144 -47c-116 0 -184 71 -184 188v302h48v-308c0 -81 57 -138 140 -138c54 0 94 17 140 58v388h48v-512c0 -130 -81 -198 -186 -198c-86 0 -147 40 -177 91z" />
<glyph unicode="z" horiz-adv-x="411" d="M47 438v42h313v-21c0 -182 -267 -254 -270 -417h284v-42h-341v25c0 199 266 266 273 413h-259z" />
<glyph unicode="{" horiz-adv-x="260" d="M134 182v-218c0 -62 20 -90 77 -90h21v-44h-24c-91 0 -122 52 -122 134v229c0 35 -20 50 -50 50h-10v44h10c30 0 50 15 50 50v229c0 82 31 134 122 134h24v-44h-21c-57 0 -77 -28 -77 -90v-218c0 -43 -21 -74 -51 -83c30 -9 51 -40 51 -83z" />
<glyph unicode="|" horiz-adv-x="186" d="M68 -170v870h50v-870h-50z" />
<glyph unicode="}" horiz-adv-x="258" d="M124 -36v218c0 43 21 74 51 83c-30 9 -51 40 -51 83v218c0 62 -20 90 -77 90h-21v44h24c91 0 122 -52 122 -134v-229c0 -35 20 -50 50 -50h10v-44h-10c-30 0 -50 -15 -50 -50v-229c0 -82 -31 -134 -122 -134h-24v44h21c57 0 77 28 77 90z" />
<glyph unicode="~" horiz-adv-x="420" d="M62 284c-18 5 -26 12 -32 29c22 33 59 55 101 55c77 0 91 -41 159 -41c29 0 50 18 68 41c18 -5 26 -12 32 -29c-22 -33 -59 -55 -101 -55c-77 0 -91 41 -159 41c-29 0 -50 -18 -68 -41z" />
<glyph unicode="&#xa1;" horiz-adv-x="228" d="M139 306v-526h-50v526h50zM160 444c0 -25 -21 -46 -46 -46s-46 21 -46 46s21 46 46 46s46 -21 46 -46z" />
<glyph unicode="&#xa2;" horiz-adv-x="489" d="M249 575h46v-86c75 -5 124 -39 155 -75c-7 -16 -20 -27 -34 -35c-31 41 -66 62 -121 66v-410c47 4 86 22 127 64c12 -7 26 -18 29 -32c-37 -43 -91 -71 -156 -76v-76h-46v76c-120 11 -205 100 -205 249c0 148 89 238 205 249v86zM92 239c0 -102 55 -192 157 -204v409 c-101 -13 -157 -104 -157 -205z" />
<glyph unicode="&#xa3;" horiz-adv-x="545" d="M127 498c0 -42 9 -77 20 -111h182v-40h-166c18 -45 32 -85 32 -138c0 -68 -31 -115 -72 -163h218c49 0 88 25 115 72c20 -10 26 -15 35 -34c-36 -60 -74 -84 -145 -84h-274c-13 13 -18 22 -22 46c48 23 95 92 95 164c0 51 -16 94 -33 137h-83v40h68 c-10 31 -18 65 -18 106c0 126 79 217 207 217c110 0 170 -62 199 -141c-9 -14 -28 -21 -42 -23c-30 81 -80 118 -158 118c-105 0 -158 -77 -158 -166z" />
<glyph unicode="&#xa5;" horiz-adv-x="514" d="M87 263v42h117c-86 109 -133 203 -184 395h50c45 -170 90 -270 187 -389c97 119 142 219 187 389h50c-52 -192 -99 -286 -185 -395h118v-42h-145v-77h145v-42h-145v-144h-50v144h-145v42h145v77h-145z" />
<glyph unicode="&#xa6;" horiz-adv-x="186" d="M118 342h-50v358h50v-358zM68 188h50v-358h-50v358z" />
<glyph unicode="&#xa7;" horiz-adv-x="531" d="M467 253c0 -56 -26 -91 -57 -117c29 -29 44 -65 44 -111c0 -84 -76 -157 -189 -157c-102 0 -168 52 -201 111c6 15 18 26 35 33c36 -57 87 -100 165 -100c84 0 140 49 140 116c0 72 -54 114 -178 146c-104 27 -165 70 -165 151c0 55 25 90 57 116c-29 29 -44 65 -44 112 c0 84 76 157 189 157c102 0 168 -52 201 -111c-6 -15 -18 -26 -35 -33c-36 57 -87 100 -165 100c-84 0 -140 -49 -140 -116c0 -72 54 -114 178 -146c104 -27 165 -70 165 -151zM282 362c-51 14 -93 30 -125 49c-27 -20 -46 -48 -46 -80c0 -62 46 -91 135 -115 c51 -14 93 -30 125 -50c27 20 46 48 46 81c0 62 -46 91 -135 115z" />
<glyph unicode="&#xa8;" horiz-adv-x="298" d="M182 626c0 24 20 44 44 44s44 -20 44 -44s-20 -44 -44 -44s-44 20 -44 44zM28 626c0 24 20 44 44 44s44 -20 44 -44s-20 -44 -44 -44s-44 20 -44 44z" />
<glyph unicode="&#xa9;" horiz-adv-x="816" d="M50 350c0 199 152 360 358 360s358 -161 358 -360s-152 -360 -358 -360s-358 161 -358 360zM100 350c0 -172 131 -314 308 -314s308 142 308 314s-131 314 -308 314s-308 -142 -308 -314zM550 250c17 -8 27 -17 33 -33c-40 -51 -93 -87 -173 -87c-118 0 -207 87 -207 220 s92 220 210 220c85 0 137 -44 164 -86c-7 -16 -19 -27 -33 -33c-32 44 -69 75 -130 75c-104 0 -163 -81 -163 -176s58 -176 163 -176c59 0 97 25 136 76z" />
<glyph unicode="&#xaa;" horiz-adv-x="446" d="M382 654v-246c0 -38 9 -57 45 -66c-2 -18 -10 -33 -18 -42c-40 11 -60 36 -65 71c-31 -49 -81 -71 -134 -71c-108 0 -173 83 -173 205c0 120 83 205 188 205c74 0 115 -24 157 -56zM224 668c-81 0 -141 -71 -141 -163s44 -163 133 -163c80 0 121 72 121 155v134 c-35 24 -73 37 -113 37z" />
<glyph unicode="&#xab;" horiz-adv-x="461" d="M217 323l171 178c14 -7 23 -15 28 -35l-148 -156l148 -156c-5 -20 -14 -28 -28 -35l-171 178v26zM59 323l171 178c14 -7 23 -15 28 -35l-148 -156l148 -156c-5 -20 -14 -28 -28 -35l-171 178v26z" />
<glyph unicode="&#xac;" horiz-adv-x="459" d="M31 326v42h373v-192h-42v150h-331z" />
<glyph unicode="&#xae;" horiz-adv-x="816" d="M50 350c0 199 152 360 358 360s358 -161 358 -360s-152 -360 -358 -360s-358 161 -358 360zM100 350c0 -172 131 -314 308 -314s308 142 308 314s-131 314 -308 314s-308 -142 -308 -314zM422 322c-40 0 -80 6 -113 15v-188h-48v421h163c80 0 135 -42 135 -125 c0 -47 -22 -85 -61 -106c39 -43 63 -107 72 -190h-52c-4 67 -28 129 -70 175c-7 -1 -17 -2 -26 -2zM511 444c0 54 -39 82 -89 82h-113v-142c38 -10 60 -18 110 -18c53 0 92 26 92 78z" />
<glyph unicode="&#xaf;" horiz-adv-x="286" d="M42 592v42h202v-42h-202z" />
<glyph unicode="&#xb0;" horiz-adv-x="302" d="M36 595c0 67 52 115 115 115s115 -48 115 -115s-52 -115 -115 -115s-115 48 -115 115zM76 595c0 -43 32 -77 75 -77s75 34 75 77s-32 77 -75 77s-75 -34 -75 -77z" />
<glyph unicode="&#xb1;" horiz-adv-x="448" d="M34 326v42h169v169h42v-169h169v-42h-169v-169h-42v169h-169zM34 0v42h380v-42h-380z" />
<glyph unicode="&#xb2;" horiz-adv-x="334" d="M86 336h205v-36h-248v36c0 67 23 121 121 161c69 28 85 59 85 100c0 39 -34 72 -82 72c-44 0 -76 -27 -89 -73c-15 1 -28 6 -36 14c13 51 55 95 125 95c77 0 122 -47 122 -108c0 -59 -32 -100 -108 -131s-95 -74 -95 -130z" />
<glyph unicode="&#xb3;" horiz-adv-x="330" d="M164 501h-21c-2 5 -3 11 -3 17s1 11 3 17h13c46 0 85 25 85 72c0 32 -28 62 -75 62c-42 0 -70 -21 -83 -66c-14 2 -27 7 -35 16c18 55 60 86 118 86c68 0 112 -38 112 -95c0 -43 -20 -70 -50 -88c43 -18 70 -50 70 -103c0 -71 -57 -124 -131 -124c-77 0 -122 50 -134 101 c7 7 29 15 39 15c11 -46 42 -80 95 -80c56 0 91 38 91 85c0 55 -41 84 -94 85z" />
<glyph unicode="&#xb4;" horiz-adv-x="282" d="M36 591l175 108l35 -66l-194 -75c-8 8 -13 17 -16 33z" />
<glyph unicode="&#xb5;" horiz-adv-x="501" d="M441 480v-393c-52 -62 -124 -97 -197 -97c-57 0 -104 17 -136 50v-260h-48v700h48v-300c0 -92 49 -146 139 -146c62 0 117 34 146 72v374h48z" />
<glyph unicode="&#xb6;" horiz-adv-x="590" d="M522 -170h-50v824h-90v-824h-50v487c-21 -11 -47 -23 -95 -23c-94 0 -189 57 -189 193c0 138 101 213 240 213h234v-870zM98 488c0 -89 46 -148 144 -148c32 0 62 8 90 24v290h-41c-112 0 -193 -60 -193 -166z" />
<glyph unicode="&#xb7;" horiz-adv-x="228" d="M68 350c0 25 21 46 46 46s46 -21 46 -46s-21 -46 -46 -46s-46 21 -46 46z" />
<glyph unicode="&#xb8;" horiz-adv-x="218" d="M58 -220c-4 5 -5 11 -5 18c0 6 1 13 5 19c50 0 79 18 79 53c0 24 -16 44 -49 44c-9 0 -14 -1 -22 -3l30 100l36 -3l-23 -64c40 -3 68 -29 68 -71c0 -60 -51 -93 -119 -93z" />
<glyph unicode="&#xb9;" horiz-adv-x="219" d="M52 607c-6 6 -12 19 -15 34c35 12 56 27 80 59h40v-400h-40v351c-12 -20 -37 -36 -65 -44z" />
<glyph unicode="&#xba;" horiz-adv-x="456" d="M228 710c103 0 191 -75 191 -205s-88 -205 -191 -205s-191 75 -191 205s88 205 191 205zM228 668c-85 0 -145 -65 -145 -163s60 -163 145 -163s145 65 145 163s-60 163 -145 163z" />
<glyph unicode="&#xbb;" horiz-adv-x="461" d="M244 297l-171 -178c-14 7 -23 15 -28 35l148 156l-148 156c5 20 14 28 28 35l171 -178v-26zM402 297l-171 -178c-14 7 -23 15 -28 35l148 156l-148 156c5 20 14 28 28 35l171 -178v-26z" />
<glyph unicode="&#xbc;" horiz-adv-x="708" d="M392 95v36c38 113 122 215 191 269h40v-269h35v-36h-35v-95h-40v95h-191zM165 159l366 409l31 -28l-366 -410zM583 350c-48 -35 -122 -132 -149 -219h149v219zM52 607c-6 6 -12 19 -15 34c35 12 56 27 80 59h40v-400h-40v351c-12 -20 -37 -36 -65 -44z" />
<glyph unicode="&#xbd;" horiz-adv-x="770" d="M165 159l366 409l31 -28l-366 -410zM52 607c-6 6 -12 19 -15 34c35 12 56 27 80 59h40v-400h-40v351c-12 -20 -37 -36 -65 -44zM501 36h205v-36h-248v36c0 67 23 121 121 161c69 28 85 59 85 100c0 39 -34 72 -82 72c-44 0 -76 -27 -89 -73c-15 1 -28 6 -36 14 c13 51 55 95 125 95c77 0 122 -47 122 -108c0 -59 -32 -100 -108 -131s-95 -74 -95 -130z" />
<glyph unicode="&#xbe;" horiz-adv-x="727" d="M411 95v36c38 113 122 215 191 269h40v-269h35v-36h-35v-95h-40v95h-191zM214 159l366 409l31 -28l-366 -410zM602 350c-48 -35 -122 -132 -149 -219h149v219zM164 501h-21c-2 5 -3 11 -3 17s1 11 3 17h13c46 0 85 25 85 72c0 32 -28 62 -75 62c-42 0 -70 -21 -83 -66 c-14 2 -27 7 -35 16c18 55 60 86 118 86c68 0 112 -38 112 -95c0 -43 -20 -70 -50 -88c43 -18 70 -50 70 -103c0 -71 -57 -124 -131 -124c-77 0 -122 50 -134 101c7 7 29 15 39 15c11 -46 42 -80 95 -80c56 0 91 38 91 85c0 55 -41 84 -94 85z" />
<glyph unicode="&#xbf;" horiz-adv-x="485" d="M398 -60c18 -4 30 -9 38 -23c-32 -94 -105 -147 -202 -147c-127 0 -184 79 -184 168c0 160 168 153 168 322v46h50v-51c0 -178 -170 -182 -170 -314c0 -68 50 -131 136 -131c73 0 132 41 164 130zM289 444c0 -25 -21 -46 -46 -46s-46 21 -46 46s21 46 46 46 s46 -21 46 -46z" />
<glyph unicode="&#xc0;" d="M277 700h52c90 -135 202 -432 259 -700h-54c-13 65 -29 131 -47 196h-368c-18 -65 -34 -131 -47 -196h-54c57 268 169 565 259 700zM303 656c-57 -94 -122 -253 -170 -414h340c-48 161 -114 320 -170 414zM224 919l175 -108c-3 -16 -8 -25 -16 -33l-194 75z" />
<glyph unicode="&#xc1;" d="M277 700h52c90 -135 202 -432 259 -700h-54c-13 65 -29 131 -47 196h-368c-18 -65 -34 -131 -47 -196h-54c57 268 169 565 259 700zM303 656c-57 -94 -122 -253 -170 -414h340c-48 161 -114 320 -170 414zM188 811l175 108l35 -66l-194 -75c-8 8 -13 17 -16 33z" />
<glyph unicode="&#xc2;" d="M277 700h52c90 -135 202 -432 259 -700h-54c-13 65 -29 131 -47 196h-368c-18 -65 -34 -131 -47 -196h-54c57 268 169 565 259 700zM303 656c-57 -94 -122 -253 -170 -414h340c-48 161 -114 320 -170 414zM161 820l142 110l142 -110c-5 -14 -11 -22 -22 -31l-120 73 l-120 -73c-11 9 -17 17 -22 31z" />
<glyph unicode="&#xc3;" d="M277 700h52c90 -135 202 -432 259 -700h-54c-13 65 -29 131 -47 196h-368c-18 -65 -34 -131 -47 -196h-54c57 268 169 565 259 700zM303 656c-57 -94 -122 -253 -170 -414h340c-48 161 -114 320 -170 414zM173 802c-18 5 -26 12 -32 29c25 31 59 49 95 49 c63 0 84 -41 132 -41c29 0 48 12 66 35c18 -5 26 -12 32 -29c-25 -31 -59 -49 -95 -49c-63 0 -84 41 -132 41c-29 0 -48 -12 -66 -35z" />
<glyph unicode="&#xc4;" d="M277 700h52c90 -135 202 -432 259 -700h-54c-13 65 -29 131 -47 196h-368c-18 -65 -34 -131 -47 -196h-54c57 268 169 565 259 700zM303 656c-57 -94 -122 -253 -170 -414h340c-48 161 -114 320 -170 414zM336 846c0 24 20 44 44 44s44 -20 44 -44s-20 -44 -44 -44 s-44 20 -44 44zM182 846c0 24 20 44 44 44s44 -20 44 -44s-20 -44 -44 -44s-44 20 -44 44z" />
<glyph unicode="&#xc5;" d="M277 700h52c90 -135 202 -432 259 -700h-54c-13 65 -29 131 -47 196h-368c-18 -65 -34 -131 -47 -196h-54c57 268 169 565 259 700zM303 656c-57 -94 -122 -253 -170 -414h340c-48 161 -114 320 -170 414zM203 864c0 55 45 100 100 100s100 -45 100 -100 s-45 -100 -100 -100s-100 45 -100 100zM239 864c0 -35 29 -64 64 -64s64 29 64 64s-29 64 -64 64s-64 -29 -64 -64z" />
<glyph unicode="&#xc6;" horiz-adv-x="856" d="M390 0v196h-273c-19 -65 -34 -131 -45 -196h-54c51 272 169 563 272 700h518v-46h-368v-266h248v-46h-248v-296h378v-46h-428zM321 654c-65 -91 -138 -245 -190 -412h259v412h-69z" />
<glyph unicode="&#xc7;" horiz-adv-x="689" d="M321 -220c-4 5 -5 11 -5 18c0 6 1 13 5 19c50 0 79 18 79 53c0 24 -16 44 -49 44c-9 0 -14 -1 -22 -3l24 79c-158 12 -303 131 -303 360c0 240 164 360 327 360c105 0 201 -48 261 -149c-6 -16 -17 -24 -35 -29c-51 88 -132 132 -224 132c-143 0 -279 -112 -279 -314 s136 -314 279 -314c104 0 177 54 227 155c18 -6 29 -13 39 -27c-57 -109 -146 -170 -257 -174l-16 -46c40 -3 68 -29 68 -71c0 -60 -51 -93 -119 -93z" />
<glyph unicode="&#xc8;" horiz-adv-x="534" d="M68 0v700h418v-46h-368v-266h248v-46h-248v-296h378v-46h-428zM211 919l175 -108c-3 -16 -8 -25 -16 -33l-194 75z" />
<glyph unicode="&#xc9;" horiz-adv-x="534" d="M68 0v700h418v-46h-368v-266h248v-46h-248v-296h378v-46h-428zM175 811l175 108l35 -66l-194 -75c-8 8 -13 17 -16 33z" />
<glyph unicode="&#xca;" horiz-adv-x="534" d="M68 0v700h418v-46h-368v-266h248v-46h-248v-296h378v-46h-428zM140 820l142 110l142 -110c-5 -14 -11 -22 -22 -31l-120 73l-120 -73c-11 9 -17 17 -22 31z" />
<glyph unicode="&#xcb;" horiz-adv-x="534" d="M68 0v700h418v-46h-368v-266h248v-46h-248v-296h378v-46h-428zM313 846c0 24 20 44 44 44s44 -20 44 -44s-20 -44 -44 -44s-44 20 -44 44zM159 846c0 24 20 44 44 44s44 -20 44 -44s-20 -44 -44 -44s-44 20 -44 44z" />
<glyph unicode="&#xcc;" horiz-adv-x="186" d="M68 0v700h50v-700h-50zM23 919l175 -108c-3 -16 -8 -25 -16 -33l-194 75z" />
<glyph unicode="&#xcd;" horiz-adv-x="186" d="M68 0v700h50v-700h-50zM-12 811l175 108l35 -66l-194 -75c-8 8 -13 17 -16 33z" />
<glyph unicode="&#xce;" horiz-adv-x="186" d="M68 0v700h50v-700h-50zM-49 820l142 110l142 -110c-5 -14 -11 -22 -22 -31l-120 73l-120 -73c-11 9 -17 17 -22 31z" />
<glyph unicode="&#xcf;" horiz-adv-x="186" d="M68 0v700h50v-700h-50zM126 846c0 24 20 44 44 44s44 -20 44 -44s-20 -44 -44 -44s-44 20 -44 44zM-28 846c0 24 20 44 44 44s44 -20 44 -44s-20 -44 -44 -44s-44 20 -44 44z" />
<glyph unicode="&#xd0;" horiz-adv-x="653" d="M25 328v44h71v328h171c177 0 336 -116 336 -350s-159 -350 -336 -350h-171v328h-71zM553 350c0 203 -134 304 -284 304h-123v-282h165v-44h-165v-282h123c146 0 284 101 284 304z" />
<glyph unicode="&#xd1;" horiz-adv-x="644" d="M68 0v700h50c160 -196 288 -392 408 -621v621h50v-700h-65c-104 215 -247 445 -393 622v-622h-50zM192 802c-18 5 -26 12 -32 29c25 31 59 49 95 49c63 0 84 -41 132 -41c29 0 48 12 66 35c18 -5 26 -12 32 -29c-25 -31 -59 -49 -95 -49c-63 0 -84 41 -132 41 c-29 0 -48 -12 -66 -35z" />
<glyph unicode="&#xd2;" horiz-adv-x="744" d="M372 -10c-167 0 -322 122 -322 360s155 360 322 360s322 -122 322 -360s-155 -360 -322 -360zM372 664c-141 0 -272 -112 -272 -314s131 -314 272 -314s272 112 272 314s-131 314 -272 314zM314 919l175 -108c-3 -16 -8 -25 -16 -33l-194 75z" />
<glyph unicode="&#xd3;" horiz-adv-x="744" d="M372 -10c-167 0 -322 122 -322 360s155 360 322 360s322 -122 322 -360s-155 -360 -322 -360zM372 664c-141 0 -272 -112 -272 -314s131 -314 272 -314s272 112 272 314s-131 314 -272 314zM257 811l175 108l35 -66l-194 -75c-8 8 -13 17 -16 33z" />
<glyph unicode="&#xd4;" horiz-adv-x="744" d="M372 -10c-167 0 -322 122 -322 360s155 360 322 360s322 -122 322 -360s-155 -360 -322 -360zM372 664c-141 0 -272 -112 -272 -314s131 -314 272 -314s272 112 272 314s-131 314 -272 314zM230 820l142 110l142 -110c-5 -14 -11 -22 -22 -31l-120 73l-120 -73 c-11 9 -17 17 -22 31z" />
<glyph unicode="&#xd5;" horiz-adv-x="744" d="M372 -10c-167 0 -322 122 -322 360s155 360 322 360s322 -122 322 -360s-155 -360 -322 -360zM372 664c-141 0 -272 -112 -272 -314s131 -314 272 -314s272 112 272 314s-131 314 -272 314zM242 802c-18 5 -26 12 -32 29c25 31 59 49 95 49c63 0 84 -41 132 -41 c29 0 48 12 66 35c18 -5 26 -12 32 -29c-25 -31 -59 -49 -95 -49c-63 0 -84 41 -132 41c-29 0 -48 -12 -66 -35z" />
<glyph unicode="&#xd6;" horiz-adv-x="744" d="M372 -10c-167 0 -322 122 -322 360s155 360 322 360s322 -122 322 -360s-155 -360 -322 -360zM372 664c-141 0 -272 -112 -272 -314s131 -314 272 -314s272 112 272 314s-131 314 -272 314zM405 846c0 24 20 44 44 44s44 -20 44 -44s-20 -44 -44 -44s-44 20 -44 44z M251 846c0 24 20 44 44 44s44 -20 44 -44s-20 -44 -44 -44s-44 20 -44 44z" />
<glyph unicode="&#xd7;" horiz-adv-x="404" d="M82 198l-29 29l120 120l-120 120l29 29l120 -120l120 120l29 -29l-120 -120l120 -120l-29 -29l-120 120z" />
<glyph unicode="&#xd8;" horiz-adv-x="744" d="M372 -10c-64 0 -126 18 -178 53l-33 -48c-16 4 -29 13 -37 26l34 51c-65 60 -108 153 -108 278c0 238 155 360 322 360c64 0 126 -18 178 -53l33 48c16 -4 29 -13 37 -26l-34 -51c65 -60 108 -153 108 -278c0 -238 -155 -360 -322 -360zM372 664 c-141 0 -272 -112 -272 -314c0 -103 35 -182 87 -236l336 501c-45 32 -97 49 -151 49zM644 350c0 103 -35 182 -87 236l-336 -501c45 -32 97 -49 151 -49c141 0 272 112 272 314z" />
<glyph unicode="&#xd9;" horiz-adv-x="664" d="M550 292v408h50v-411c0 -206 -113 -299 -268 -299s-268 93 -268 299v411h50v-408c0 -191 108 -256 218 -256s218 65 218 256zM264 919l175 -108c-3 -16 -8 -25 -16 -33l-194 75z" />
<glyph unicode="&#xda;" horiz-adv-x="664" d="M550 292v408h50v-411c0 -206 -113 -299 -268 -299s-268 93 -268 299v411h50v-408c0 -191 108 -256 218 -256s218 65 218 256zM226 811l175 108l35 -66l-194 -75c-8 8 -13 17 -16 33z" />
<glyph unicode="&#xdb;" horiz-adv-x="664" d="M550 292v408h50v-411c0 -206 -113 -299 -268 -299s-268 93 -268 299v411h50v-408c0 -191 108 -256 218 -256s218 65 218 256zM190 820l142 110l142 -110c-5 -14 -11 -22 -22 -31l-120 73l-120 -73c-11 9 -17 17 -22 31z" />
<glyph unicode="&#xdc;" horiz-adv-x="664" d="M550 292v408h50v-411c0 -206 -113 -299 -268 -299s-268 93 -268 299v411h50v-408c0 -191 108 -256 218 -256s218 65 218 256zM365 846c0 24 20 44 44 44s44 -20 44 -44s-20 -44 -44 -44s-44 20 -44 44zM211 846c0 24 20 44 44 44s44 -20 44 -44s-20 -44 -44 -44 s-44 20 -44 44z" />
<glyph unicode="&#xdd;" horiz-adv-x="522" d="M236 0v252c-100 140 -159 237 -216 448h50c45 -172 96 -281 191 -400c95 119 146 228 191 400h50c-57 -211 -116 -308 -216 -448v-252h-50zM156 811l175 108l35 -66l-194 -75c-8 8 -13 17 -16 33z" />
<glyph unicode="&#xde;" horiz-adv-x="548" d="M68 0v700h50v-130h129c152 0 253 -82 253 -220c0 -159 -116 -221 -229 -221c-69 0 -119 12 -153 23v-152h-50zM450 350c0 106 -73 174 -206 174h-126v-319c40 -19 95 -30 141 -30c123 0 191 61 191 175z" />
<glyph unicode="&#xdf;" horiz-adv-x="474" d="M108 0h-48v522c0 122 77 188 172 188s166 -64 166 -150c0 -96 -91 -134 -91 -187c0 -63 133 -98 133 -214c0 -115 -85 -169 -171 -169c-42 0 -71 8 -94 18c0 19 4 32 13 44c32 -12 57 -18 82 -18c77 0 122 43 122 126c0 97 -131 121 -131 217c0 65 89 100 89 182 c0 67 -57 107 -120 107c-68 0 -122 -50 -122 -144v-522z" />
<glyph unicode="&#xe0;" horiz-adv-x="539" d="M461 117v305c-52 38 -101 68 -191 68c-121 0 -226 -104 -226 -250c0 -149 77 -250 208 -250c64 0 125 27 163 87c6 -43 31 -73 79 -87c10 11 15 24 20 46c-44 11 -53 35 -53 81zM269 446c60 0 104 -19 144 -46v-170c0 -114 -52 -196 -154 -196c-112 0 -167 90 -167 206 s76 206 177 206zM202 699l175 -108c-3 -16 -8 -25 -16 -33l-194 75z" />
<glyph unicode="&#xe1;" horiz-adv-x="539" d="M461 117v305c-52 38 -101 68 -191 68c-121 0 -226 -104 -226 -250c0 -149 77 -250 208 -250c64 0 125 27 163 87c6 -43 31 -73 79 -87c10 11 15 24 20 46c-44 11 -53 35 -53 81zM269 446c60 0 104 -19 144 -46v-170c0 -114 -52 -196 -154 -196c-112 0 -167 90 -167 206 s76 206 177 206zM164 591l175 108l35 -66l-194 -75c-8 8 -13 17 -16 33z" />
<glyph unicode="&#xe2;" horiz-adv-x="539" d="M461 117v305c-52 38 -101 68 -191 68c-121 0 -226 -104 -226 -250c0 -149 77 -250 208 -250c64 0 125 27 163 87c6 -43 31 -73 79 -87c10 11 15 24 20 46c-44 11 -53 35 -53 81zM269 446c60 0 104 -19 144 -46v-170c0 -114 -52 -196 -154 -196c-112 0 -167 90 -167 206 s76 206 177 206zM134 600l142 110l142 -110c-5 -14 -11 -22 -22 -31l-120 73l-120 -73c-11 9 -17 17 -22 31z" />
<glyph unicode="&#xe3;" horiz-adv-x="539" d="M461 117v305c-52 38 -101 68 -191 68c-121 0 -226 -104 -226 -250c0 -149 77 -250 208 -250c64 0 125 27 163 87c6 -43 31 -73 79 -87c10 11 15 24 20 46c-44 11 -53 35 -53 81zM269 446c60 0 104 -19 144 -46v-170c0 -114 -52 -196 -154 -196c-112 0 -167 90 -167 206 s76 206 177 206zM154 582c-18 5 -26 12 -32 29c25 31 59 49 95 49c63 0 84 -41 132 -41c29 0 48 12 66 35c18 -5 26 -12 32 -29c-25 -31 -59 -49 -95 -49c-63 0 -84 41 -132 41c-29 0 -48 -12 -66 -35z" />
<glyph unicode="&#xe4;" horiz-adv-x="539" d="M461 117v305c-52 38 -101 68 -191 68c-121 0 -226 -104 -226 -250c0 -149 77 -250 208 -250c64 0 125 27 163 87c6 -43 31 -73 79 -87c10 11 15 24 20 46c-44 11 -53 35 -53 81zM269 446c60 0 104 -19 144 -46v-170c0 -114 -52 -196 -154 -196c-112 0 -167 90 -167 206 s76 206 177 206zM307 626c0 24 20 44 44 44s44 -20 44 -44s-20 -44 -44 -44s-44 20 -44 44zM153 626c0 24 20 44 44 44s44 -20 44 -44s-20 -44 -44 -44s-44 20 -44 44z" />
<glyph unicode="&#xe5;" horiz-adv-x="539" d="M461 117v305c-52 38 -101 68 -191 68c-121 0 -226 -104 -226 -250c0 -149 77 -250 208 -250c64 0 125 27 163 87c6 -43 31 -73 79 -87c10 11 15 24 20 46c-44 11 -53 35 -53 81zM269 446c60 0 104 -19 144 -46v-170c0 -114 -52 -196 -154 -196c-112 0 -167 90 -167 206 s76 206 177 206zM174 644c0 55 45 100 100 100s100 -45 100 -100s-45 -100 -100 -100s-100 45 -100 100zM210 644c0 -35 29 -64 64 -64s64 29 64 64s-29 64 -64 64s-64 -29 -64 -64z" />
<glyph unicode="&#xe6;" horiz-adv-x="835" d="M236 490c95 0 151 -61 169 -124c54 86 150 124 217 124c114 0 159 -62 159 -134c0 -102 -100 -186 -259 -186c-33 0 -66 3 -106 14c14 -87 80 -150 181 -150c74 0 119 31 172 86c16 -10 23 -18 30 -37c-45 -48 -116 -93 -198 -93c-104 0 -178 44 -213 119 c-33 -73 -91 -119 -179 -119c-90 0 -165 55 -165 157c0 98 76 155 166 155c67 0 115 -25 156 -49v40c0 103 -58 153 -133 153c-69 0 -111 -46 -129 -85c-19 7 -27 13 -37 28c25 55 87 101 169 101zM623 446c-112 0 -206 -87 -209 -217c39 -14 70 -19 106 -19 c141 0 215 74 215 142c0 49 -33 94 -112 94zM218 34c86 0 148 74 148 159v10c-54 33 -102 55 -154 55c-83 0 -122 -56 -122 -111c0 -66 44 -113 128 -113z" />
<glyph unicode="&#xe7;" horiz-adv-x="489" d="M207 -220c-4 5 -5 11 -5 18c0 6 1 13 5 19c50 0 79 18 79 53c0 24 -16 44 -49 44c-9 0 -14 -1 -22 -3l24 81c-115 14 -195 103 -195 248c0 159 103 250 230 250c88 0 142 -36 176 -76c-7 -16 -20 -27 -34 -35c-35 46 -75 67 -142 67c-117 0 -182 -98 -182 -207 s64 -205 181 -205c58 0 102 17 149 65c12 -7 26 -18 29 -32c-41 -47 -102 -77 -177 -77l-16 -46c40 -3 68 -29 68 -71c0 -60 -51 -93 -119 -93z" />
<glyph unicode="&#xe8;" horiz-adv-x="513" d="M459 355c0 -112 -112 -183 -363 -185c18 -81 83 -136 179 -136c74 0 119 31 172 86c16 -10 23 -18 30 -37c-45 -48 -116 -93 -198 -93c-148 0 -235 91 -235 230c0 192 159 270 256 270c114 0 159 -62 159 -135zM92 214c209 2 321 54 321 140c0 47 -33 92 -112 92 c-114 0 -209 -95 -209 -232zM222 699l175 -108c-3 -16 -8 -25 -16 -33l-194 75z" />
<glyph unicode="&#xe9;" horiz-adv-x="513" d="M459 355c0 -112 -112 -183 -363 -185c18 -81 83 -136 179 -136c74 0 119 31 172 86c16 -10 23 -18 30 -37c-45 -48 -116 -93 -198 -93c-148 0 -235 91 -235 230c0 192 159 270 256 270c114 0 159 -62 159 -135zM92 214c209 2 321 54 321 140c0 47 -33 92 -112 92 c-114 0 -209 -95 -209 -232zM166 591l175 108l35 -66l-194 -75c-8 8 -13 17 -16 33z" />
<glyph unicode="&#xea;" horiz-adv-x="513" d="M459 355c0 -112 -112 -183 -363 -185c18 -81 83 -136 179 -136c74 0 119 31 172 86c16 -10 23 -18 30 -37c-45 -48 -116 -93 -198 -93c-148 0 -235 91 -235 230c0 192 159 270 256 270c114 0 159 -62 159 -135zM92 214c209 2 321 54 321 140c0 47 -33 92 -112 92 c-114 0 -209 -95 -209 -232zM141 600l142 110l142 -110c-5 -14 -11 -22 -22 -31l-120 73l-120 -73c-11 9 -17 17 -22 31z" />
<glyph unicode="&#xeb;" horiz-adv-x="513" d="M459 355c0 -112 -112 -183 -363 -185c18 -81 83 -136 179 -136c74 0 119 31 172 86c16 -10 23 -18 30 -37c-45 -48 -116 -93 -198 -93c-148 0 -235 91 -235 230c0 192 159 270 256 270c114 0 159 -62 159 -135zM92 214c209 2 321 54 321 140c0 47 -33 92 -112 92 c-114 0 -209 -95 -209 -232zM316 626c0 24 20 44 44 44s44 -20 44 -44s-20 -44 -44 -44s-44 20 -44 44zM162 626c0 24 20 44 44 44s44 -20 44 -44s-20 -44 -44 -44s-44 20 -44 44z" />
<glyph unicode="&#xec;" horiz-adv-x="164" d="M60 0v480h44v-480h-44zM12 699l175 -108c-3 -16 -8 -25 -16 -33l-194 75z" />
<glyph unicode="&#xed;" horiz-adv-x="164" d="M60 0v480h44v-480h-44zM-23 591l175 108l35 -66l-194 -75c-8 8 -13 17 -16 33z" />
<glyph unicode="&#xee;" horiz-adv-x="164" d="M60 0v480h44v-480h-44zM-60 600l142 110l142 -110c-5 -14 -11 -22 -22 -31l-120 73l-120 -73c-11 9 -17 17 -22 31z" />
<glyph unicode="&#xef;" horiz-adv-x="164" d="M60 0v480h44v-480h-44zM115 626c0 24 20 44 44 44s44 -20 44 -44s-20 -44 -44 -44s-44 20 -44 44zM-39 626c0 24 20 44 44 44s44 -20 44 -44s-20 -44 -44 -44s-44 20 -44 44z" />
<glyph unicode="&#xf0;" horiz-adv-x="569" d="M293 531l-16 42l113 43c-32 32 -72 50 -116 50c-38 0 -60 -7 -91 -22c-11 10 -16 28 -16 43c29 14 62 23 104 23c71 0 126 -28 167 -76l105 40l17 -42l-95 -36c39 -68 58 -161 58 -265c0 -217 -104 -341 -243 -341c-129 0 -236 100 -236 250s100 250 227 250 c87 0 150 -36 198 -88c-5 73 -23 132 -50 176zM277 446c-103 0 -185 -75 -185 -206s85 -206 187 -206c131 0 191 133 194 293c-46 69 -111 119 -196 119z" />
<glyph unicode="&#xf1;" horiz-adv-x="501" d="M60 0v393c52 62 124 97 197 97c112 0 184 -67 184 -182v-308h-48v300c0 92 -49 146 -139 146c-62 0 -117 -34 -146 -72v-374h-48zM110 582c-18 5 -26 12 -32 29c25 31 59 49 95 49c63 0 84 -41 132 -41c29 0 48 12 66 35c18 -5 26 -12 32 -29c-25 -31 -59 -49 -95 -49 c-63 0 -84 41 -132 41c-29 0 -48 -12 -66 -35z" />
<glyph unicode="&#xf2;" horiz-adv-x="552" d="M276 490c125 0 232 -91 232 -250s-107 -250 -232 -250s-232 91 -232 250s107 250 232 250zM276 446c-107 0 -184 -81 -184 -206s77 -206 184 -206s184 81 184 206s-77 206 -184 206zM218 699l175 -108c-3 -16 -8 -25 -16 -33l-194 75z" />
<glyph unicode="&#xf3;" horiz-adv-x="552" d="M276 490c125 0 232 -91 232 -250s-107 -250 -232 -250s-232 91 -232 250s107 250 232 250zM276 446c-107 0 -184 -81 -184 -206s77 -206 184 -206s184 81 184 206s-77 206 -184 206zM161 591l175 108l35 -66l-194 -75c-8 8 -13 17 -16 33z" />
<glyph unicode="&#xf4;" horiz-adv-x="552" d="M276 490c125 0 232 -91 232 -250s-107 -250 -232 -250s-232 91 -232 250s107 250 232 250zM276 446c-107 0 -184 -81 -184 -206s77 -206 184 -206s184 81 184 206s-77 206 -184 206zM134 600l142 110l142 -110c-5 -14 -11 -22 -22 -31l-120 73l-120 -73 c-11 9 -17 17 -22 31z" />
<glyph unicode="&#xf5;" horiz-adv-x="552" d="M276 490c125 0 232 -91 232 -250s-107 -250 -232 -250s-232 91 -232 250s107 250 232 250zM276 446c-107 0 -184 -81 -184 -206s77 -206 184 -206s184 81 184 206s-77 206 -184 206zM146 582c-18 5 -26 12 -32 29c25 31 59 49 95 49c63 0 84 -41 132 -41 c29 0 48 12 66 35c18 -5 26 -12 32 -29c-25 -31 -59 -49 -95 -49c-63 0 -84 41 -132 41c-29 0 -48 -12 -66 -35z" />
<glyph unicode="&#xf6;" horiz-adv-x="552" d="M276 490c125 0 232 -91 232 -250s-107 -250 -232 -250s-232 91 -232 250s107 250 232 250zM276 446c-107 0 -184 -81 -184 -206s77 -206 184 -206s184 81 184 206s-77 206 -184 206zM309 626c0 24 20 44 44 44s44 -20 44 -44s-20 -44 -44 -44s-44 20 -44 44zM155 626 c0 24 20 44 44 44s44 -20 44 -44s-20 -44 -44 -44s-44 20 -44 44z" />
<glyph unicode="&#xf7;" horiz-adv-x="448" d="M189 444c0 25 21 46 46 46s46 -21 46 -46s-21 -46 -46 -46s-46 21 -46 46zM189 36c0 25 21 46 46 46s46 -21 46 -46s-21 -46 -46 -46s-46 21 -46 46zM34 219v42h380v-42h-380z" />
<glyph unicode="&#xf8;" horiz-adv-x="552" d="M276 490c50 0 98 -14 136 -42l34 42c17 -5 28 -15 36 -28l-36 -45c38 -42 62 -102 62 -177c0 -159 -107 -250 -232 -250c-50 0 -98 14 -136 42l-34 -42c-17 5 -28 15 -36 28l36 45c-38 42 -62 102 -62 177c0 159 107 250 232 250zM276 446c-107 0 -184 -81 -184 -206 c0 -57 16 -105 43 -140l249 312c-30 22 -67 34 -108 34zM460 240c0 57 -16 105 -43 140l-249 -312c30 -22 66 -34 108 -34c107 0 184 81 184 206z" />
<glyph unicode="&#xf9;" horiz-adv-x="501" d="M441 480v-393c-52 -62 -124 -97 -197 -97c-112 0 -184 67 -184 182v308h48v-300c0 -92 49 -146 139 -146c62 0 117 34 146 72v374h48zM182 699l175 -108c-3 -16 -8 -25 -16 -33l-194 75z" />
<glyph unicode="&#xfa;" horiz-adv-x="501" d="M441 480v-393c-52 -62 -124 -97 -197 -97c-112 0 -184 67 -184 182v308h48v-300c0 -92 49 -146 139 -146c62 0 117 34 146 72v374h48zM144 591l175 108l35 -66l-194 -75c-8 8 -13 17 -16 33z" />
<glyph unicode="&#xfb;" horiz-adv-x="501" d="M441 480v-393c-52 -62 -124 -97 -197 -97c-112 0 -184 67 -184 182v308h48v-300c0 -92 49 -146 139 -146c62 0 117 34 146 72v374h48zM105 600l142 110l142 -110c-5 -14 -11 -22 -22 -31l-120 73l-120 -73c-11 9 -17 17 -22 31z" />
<glyph unicode="&#xfc;" horiz-adv-x="501" d="M441 480v-393c-52 -62 -124 -97 -197 -97c-112 0 -184 67 -184 182v308h48v-300c0 -92 49 -146 139 -146c62 0 117 34 146 72v374h48zM287 626c0 24 20 44 44 44s44 -20 44 -44s-20 -44 -44 -44s-44 20 -44 44zM133 626c0 24 20 44 44 44s44 -20 44 -44s-20 -44 -44 -44 s-44 20 -44 44z" />
<glyph unicode="&#xfd;" horiz-adv-x="494" d="M71 -139c8 17 17 26 34 35c31 -55 85 -82 143 -82c86 0 138 60 138 159v64c-41 -27 -82 -47 -144 -47c-116 0 -184 71 -184 188v302h48v-308c0 -81 57 -138 140 -138c54 0 94 17 140 58v388h48v-512c0 -130 -81 -198 -186 -198c-86 0 -147 40 -177 91zM143 591l175 108 l35 -66l-194 -75c-8 8 -13 17 -16 33z" />
<glyph unicode="&#xfe;" horiz-adv-x="538" d="M60 -220v930c15 6 29 10 48 11v-320c32 51 92 89 167 89c135 0 219 -96 219 -250c0 -135 -78 -250 -220 -250c-63 0 -119 18 -166 51v-261h-48zM271 34c107 0 175 83 175 206s-64 206 -172 206c-102 0 -166 -80 -166 -206v-139c38 -40 98 -67 163 -67z" />
<glyph unicode="&#xff;" horiz-adv-x="494" d="M71 -139c8 17 17 26 34 35c31 -55 85 -82 143 -82c86 0 138 60 138 159v64c-41 -27 -82 -47 -144 -47c-116 0 -184 71 -184 188v302h48v-308c0 -81 57 -138 140 -138c54 0 94 17 140 58v388h48v-512c0 -130 -81 -198 -186 -198c-86 0 -147 40 -177 91zM282 626 c0 24 20 44 44 44s44 -20 44 -44s-20 -44 -44 -44s-44 20 -44 44zM128 626c0 24 20 44 44 44s44 -20 44 -44s-20 -44 -44 -44s-44 20 -44 44z" />
<glyph unicode="&#x131;" horiz-adv-x="164" d="M60 0v480h44v-480h-44z" />
<glyph unicode="&#x141;" horiz-adv-x="564" d="M16 202l-21 37l90 52v409h50v-380l155 90l21 -37l-176 -102v-225h387v-46h-437v242z" />
<glyph unicode="&#x142;" horiz-adv-x="243" d="M11 204l-21 37l94 54v415c15 6 29 10 48 11v-398l74 43l21 -37l-95 -55v-199c0 -23 11 -37 33 -37c6 0 13 1 20 3c5 -9 6 -23 6 -36v-5c-11 -4 -21 -6 -31 -6c-46 0 -76 29 -76 89v163z" />
<glyph unicode="&#x152;" horiz-adv-x="1110" d="M372 -10c-167 0 -322 122 -322 360s155 360 322 360c109 0 213 -52 272 -155v145h418v-46h-368v-266h248v-46h-248v-296h378v-46h-428v144c-59 -102 -163 -154 -272 -154zM372 664c-141 0 -272 -112 -272 -314s131 -314 272 -314s272 112 272 314s-131 314 -272 314z" />
<glyph unicode="&#x153;" horiz-adv-x="929" d="M276 490c93 0 176 -51 213 -142c50 99 155 142 227 142c114 0 159 -62 159 -134c0 -113 -112 -184 -363 -186c18 -81 83 -136 179 -136c74 0 119 31 172 86c16 -10 23 -18 30 -37c-45 -48 -116 -93 -198 -93c-106 0 -181 46 -215 124c-39 -80 -117 -124 -204 -124 c-125 0 -232 91 -232 250s107 250 232 250zM276 446c-107 0 -184 -81 -184 -206s77 -206 184 -206s184 81 184 206s-77 206 -184 206zM508 214c209 2 321 54 321 138c0 49 -33 94 -112 94c-114 0 -209 -95 -209 -232z" />
<glyph unicode="&#x160;" horiz-adv-x="567" d="M117 541c0 -84 58 -117 178 -152c147 -43 218 -93 218 -204c0 -108 -100 -195 -228 -195c-132 0 -219 89 -241 190c9 11 35 16 49 16c17 -83 81 -160 192 -160c103 0 178 60 178 148c0 82 -47 127 -184 165s-208 89 -208 190c0 85 69 171 216 171c94 0 169 -53 206 -114 c-9 -15 -19 -23 -36 -31c-44 68 -103 101 -171 101c-102 0 -169 -52 -169 -125zM428 899l-142 -110l-142 110c5 14 11 22 22 31l120 -73l120 73c11 -9 17 -17 22 -31z" />
<glyph unicode="&#x161;" horiz-adv-x="452" d="M113 366c0 -54 50 -79 136 -97c93 -20 159 -57 159 -134c0 -91 -81 -145 -172 -145c-97 0 -177 59 -196 155c9 8 28 14 43 14h6c16 -86 78 -125 147 -125c74 0 122 40 122 97c0 45 -27 73 -136 96c-98 21 -155 62 -155 139c0 83 81 124 166 124c78 0 128 -34 158 -72 c-4 -17 -18 -29 -30 -37c-31 38 -70 67 -129 67c-66 0 -119 -32 -119 -82zM377 679l-142 -110l-142 110c5 14 11 22 22 31l120 -73l120 73c11 -9 17 -17 22 -31z" />
<glyph unicode="&#x178;" horiz-adv-x="522" d="M236 0v252c-100 140 -159 237 -216 448h50c45 -172 96 -281 191 -400c95 119 146 228 191 400h50c-57 -211 -116 -308 -216 -448v-252h-50zM294 846c0 24 20 44 44 44s44 -20 44 -44s-20 -44 -44 -44s-44 20 -44 44zM140 846c0 24 20 44 44 44s44 -20 44 -44 s-20 -44 -44 -44s-44 20 -44 44z" />
<glyph unicode="&#x17d;" horiz-adv-x="548" d="M49 654v46h447v-21c0 -181 -408 -472 -408 -633h424v-46h-478v25c0 205 401 476 406 629h-391zM408 899l-142 -110l-142 110c5 14 11 22 22 31l120 -73l120 73c11 -9 17 -17 22 -31z" />
<glyph unicode="&#x17e;" horiz-adv-x="411" d="M47 438v42h313v-21c0 -182 -267 -254 -270 -417h284v-42h-341v25c0 199 266 266 273 413h-259zM347 679l-142 -110l-142 110c5 14 11 22 22 31l120 -73l120 73c11 -9 17 -17 22 -31z" />
<glyph unicode="&#x192;" horiz-adv-x="349" d="M120 -97v650c0 85 61 157 155 157c42 0 72 -13 94 -32c-3 -15 -9 -28 -21 -39c-26 19 -49 27 -77 27c-69 0 -103 -57 -103 -125v-61h145v-44h-145v-531c0 -67 -29 -135 -118 -135c-42 0 -73 16 -86 32c3 15 9 27 21 38c21 -18 43 -26 68 -26c45 0 67 38 67 89z" />
<glyph unicode="&#x2c6;" horiz-adv-x="356" d="M36 600l142 110l142 -110c-5 -14 -11 -22 -22 -31l-120 73l-120 -73c-11 9 -17 17 -22 31z" />
<glyph unicode="&#x2c7;" horiz-adv-x="356" d="M320 679l-142 -110l-142 110c5 14 11 22 22 31l120 -73l120 73c11 -9 17 -17 22 -31z" />
<glyph unicode="&#x2d8;" horiz-adv-x="268" d="M230 642c-10 -45 -47 -74 -96 -74s-86 29 -96 74c7 10 21 16 34 16c7 -35 30 -54 62 -54s55 19 62 54c13 0 27 -6 34 -16z" />
<glyph unicode="&#x2d9;" horiz-adv-x="164" d="M40 626c0 23 19 42 42 42s42 -19 42 -42s-19 -42 -42 -42s-42 19 -42 42z" />
<glyph unicode="&#x2da;" horiz-adv-x="280" d="M40 644c0 55 45 100 100 100s100 -45 100 -100s-45 -100 -100 -100s-100 45 -100 100zM76 644c0 -35 29 -64 64 -64s64 29 64 64s-29 64 -64 64s-64 -29 -64 -64z" />
<glyph unicode="&#x2db;" horiz-adv-x="229" d="M186 -220c-90 0 -132 44 -132 107c0 45 29 96 88 136l38 -18c-60 -37 -81 -79 -81 -118c0 -41 34 -63 87 -63c2 -6 3 -14 3 -22c0 -9 -1 -16 -3 -22z" />
<glyph unicode="&#x2dc;" horiz-adv-x="389" d="M64 582c-18 5 -26 12 -32 29c25 31 59 49 95 49c63 0 84 -41 132 -41c29 0 48 12 66 35c18 -5 26 -12 32 -29c-25 -31 -59 -49 -95 -49c-63 0 -84 41 -132 41c-29 0 -48 -12 -66 -35z" />
<glyph unicode="&#x2dd;" horiz-adv-x="418" d="M206 549l139 151l53 -56l-166 -124c-11 6 -20 14 -26 29zM20 549l139 151l53 -56l-166 -124c-11 6 -20 14 -26 29z" />
<glyph unicode="&#x2206;" horiz-adv-x="636" d="M18 0l269 700h62l269 -700h-600zM318 654l-232 -608h464z" />
<glyph unicode="&#x2126;" horiz-adv-x="730" d="M365 710c163 0 319 -106 319 -319c0 -141 -88 -261 -181 -345h149v-46h-223v32c85 81 205 190 205 361c0 179 -126 271 -269 271s-269 -92 -269 -271c0 -171 120 -280 205 -361v-32h-223v46h149c-93 84 -181 204 -181 345c0 213 156 319 319 319z" />
<glyph unicode="&#x2013;" horiz-adv-x="468" d="M34 316v42h400v-42h-400z" />
<glyph unicode="&#x2014;" horiz-adv-x="848" d="M34 316v42h780v-42h-780z" />
<glyph unicode="&#x2018;" horiz-adv-x="206" d="M172 694l-74 -177l-64 31l107 162c11 -2 24 -8 31 -16z" />
<glyph unicode="&#x2019;" horiz-adv-x="206" d="M34 533l74 177l64 -31l-107 -162c-11 2 -24 8 -31 16z" />
<glyph unicode="&#x201a;" horiz-adv-x="206" d="M34 -94l74 177l64 -31l-107 -162c-11 2 -24 8 -31 16z" />
<glyph unicode="&#x201c;" horiz-adv-x="334" d="M172 694l-74 -177l-64 31l107 162c11 -2 24 -8 31 -16zM300 694l-74 -177l-64 31l107 162c11 -2 24 -8 31 -16z" />
<glyph unicode="&#x201d;" horiz-adv-x="334" d="M162 533l74 177l64 -31l-107 -162c-11 2 -24 8 -31 16zM34 533l74 177l64 -31l-107 -162c-11 2 -24 8 -31 16z" />
<glyph unicode="&#x201e;" horiz-adv-x="334" d="M162 -94l74 177l64 -31l-107 -162c-11 2 -24 8 -31 16zM34 -94l74 177l64 -31l-107 -162c-11 2 -24 8 -31 16z" />
<glyph unicode="&#x2020;" horiz-adv-x="358" d="M36 434v46h118v220h50v-220h118v-46h-118v-604h-50v604h-118z" />
<glyph unicode="&#x2021;" horiz-adv-x="358" d="M36 434v46h118v220h50v-220h118v-46h-118v-338h118v-46h-118v-220h-50v220h-118v46h118v338h-118z" />
<glyph unicode="&#x2022;" horiz-adv-x="228" d="M54 350c0 34 26 60 60 60s60 -26 60 -60s-26 -60 -60 -60s-60 26 -60 60z" />
<glyph unicode="&#x2030;" horiz-adv-x="999" d="M501 328c61 0 116 -31 145 -82c29 51 84 82 145 82c90 0 167 -68 167 -169s-77 -169 -167 -169c-61 0 -116 31 -145 82c-29 -51 -84 -82 -145 -82c-90 0 -167 68 -167 169s77 169 167 169zM208 710c90 0 167 -68 167 -169s-77 -169 -167 -169s-167 68 -167 169 s77 169 167 169zM208 670c-74 0 -123 -57 -123 -129s49 -129 123 -129s123 57 123 129s-49 129 -123 129zM791 288c-74 0 -123 -57 -123 -129s49 -129 123 -129s123 57 123 129s-49 129 -123 129zM501 288c-74 0 -123 -57 -123 -129s49 -129 123 -129s123 57 123 129 s-49 129 -123 129zM106 231l476 275l21 -37l-476 -275z" />
<glyph unicode="&#x2039;" horiz-adv-x="303" d="M59 323l171 178c14 -7 23 -15 28 -35l-148 -156l148 -156c-5 -20 -14 -28 -28 -35l-171 178v26z" />
<glyph unicode="&#x203a;" horiz-adv-x="303" d="M73 501l171 -178v-26l-171 -178c-14 7 -23 15 -28 35l148 156l-148 156c5 20 14 28 28 35z" />
<glyph unicode="&#x2044;" horiz-adv-x="585" d="M44 231l476 275l21 -37l-476 -275z" />
<glyph unicode="&#x20ac;" horiz-adv-x="671" d="M28 416v42h74c33 168 147 252 279 252c108 0 193 -52 243 -149c-6 -16 -21 -24 -39 -29c-42 82 -113 132 -204 132c-111 0 -198 -73 -228 -206h255v-42h-263c-3 -21 -3 -43 -3 -66s0 -45 3 -66h263v-42h-255c29 -134 115 -206 230 -206c104 0 158 58 203 149 c16 -4 29 -12 39 -24c-49 -100 -122 -171 -244 -171c-136 0 -247 84 -279 252h-74v42h67c-2 21 -3 43 -3 66s1 45 3 66h-67z" />
<glyph unicode="&#x2122;" horiz-adv-x="786" d="M577 300h-46c-32 132 -75 243 -134 339v-339h-46v400h59c66 -103 124 -232 144 -334c20 102 78 231 144 334h59v-400h-46v339c-59 -96 -102 -207 -134 -339zM26 662v38h266v-38h-110v-362h-46v362h-110z" />
<glyph unicode="&#x2202;" horiz-adv-x="563" d="M179 644c-11 10 -16 28 -16 43c29 14 62 23 104 23c176 0 252 -183 252 -382c0 -232 -104 -338 -243 -338c-127 0 -232 91 -232 241s100 241 225 241c85 0 148 -34 196 -88c-7 161 -89 282 -195 282c-38 0 -60 -7 -91 -22zM273 428c-103 0 -181 -66 -181 -197 s87 -197 183 -197c131 0 194 110 194 275c-46 69 -111 119 -196 119z" />
<glyph unicode="&#x220f;" horiz-adv-x="588" d="M68 0v700h452v-700h-50v654h-352v-654h-50z" />
<glyph unicode="&#x2211;" horiz-adv-x="527" d="M327 350l-220 -304h375v-46h-440v35l230 315l-214 315v35h404v-46h-337z" />
<glyph unicode="&#x2212;" horiz-adv-x="448" d="M34 326v42h380v-42h-380z" />
<glyph unicode="&#x221a;" horiz-adv-x="568" d="M500 700h46l-283 -700h-42l-109 306h-88v42h122l98 -283z" />
<glyph unicode="&#x221e;" horiz-adv-x="705" d="M197 534c69 0 118 -35 149 -78c31 55 78 96 148 96c110 0 171 -86 171 -198c0 -114 -59 -205 -182 -205c-78 0 -137 49 -164 92c-28 -43 -72 -73 -126 -73c-87 0 -153 74 -153 181s72 185 157 185zM358 344c-4 -20 -10 -41 -17 -60c27 -48 73 -91 143 -91 c92 0 135 81 135 161s-41 154 -126 154c-86 0 -116 -81 -135 -164zM197 212c88 0 111 105 130 190c-29 52 -76 88 -126 88c-65 0 -115 -57 -115 -141c0 -82 40 -137 111 -137z" />
<glyph unicode="&#x222b;" horiz-adv-x="349" d="M120 -97v650c0 85 61 157 155 157c42 0 72 -13 94 -32c-3 -15 -9 -28 -21 -39c-26 19 -49 27 -77 27c-69 0 -103 -57 -103 -125v-636c0 -67 -29 -135 -118 -135c-42 0 -73 16 -86 32c3 15 9 27 21 38c21 -18 43 -26 68 -26c45 0 67 38 67 89z" />
<glyph unicode="&#x2248;" horiz-adv-x="420" d="M62 353c-18 5 -26 12 -32 29c22 33 59 55 101 55c77 0 91 -41 159 -41c29 0 50 18 68 41c18 -5 26 -12 32 -29c-22 -33 -59 -55 -101 -55c-77 0 -91 41 -159 41c-29 0 -50 -18 -68 -41zM62 184c-18 5 -26 12 -32 29c22 33 59 55 101 55c77 0 91 -41 159 -41 c29 0 50 18 68 41c18 -5 26 -12 32 -29c-22 -33 -59 -55 -101 -55c-77 0 -91 41 -159 41c-29 0 -50 -18 -68 -41z" />
<glyph unicode="&#x2260;" horiz-adv-x="448" d="M34 396v42h228l89 154l36 -21l-76 -133h103v-42h-127l-77 -132h204v-42h-228l-89 -154l-36 21l76 133h-103v42h127l77 132h-204z" />
<glyph unicode="&#x3c0;" horiz-adv-x="629" d="M37 436v44h520v-44h-116v-326c0 -50 27 -76 67 -76c21 0 36 8 55 25c14 -7 22 -20 24 -34c-21 -22 -43 -35 -78 -35c-74 0 -116 45 -116 121v325h-199v-436h-48v436h-109z" />
<glyph unicode="&#x2264;" horiz-adv-x="464" d="M60 395l326 178c11 -10 18 -23 21 -41l-300 -161l300 -161c-3 -18 -10 -31 -21 -41l-326 178v48zM42 0v42h380v-42h-380z" />
<glyph unicode="&#x2265;" horiz-adv-x="464" d="M80 573l326 -178v-48l-326 -178c-11 10 -18 23 -21 41l300 161l-300 161c3 18 10 31 21 41zM42 0v42h380v-42h-380z" />
<glyph unicode="&#x25ca;" horiz-adv-x="556" d="M255 0l-237 350l237 350h46l237 -350l-237 -350h-46zM278 658l-206 -308l206 -308l206 308z" />
<glyph unicode="&#x2026;" horiz-adv-x="600" d="M68 36c0 25 21 46 46 46s46 -21 46 -46s-21 -46 -46 -46s-46 21 -46 46zM254 36c0 25 21 46 46 46s46 -21 46 -46s-21 -46 -46 -46s-46 21 -46 46zM440 36c0 25 21 46 46 46s46 -21 46 -46s-21 -46 -46 -46s-46 21 -46 46z" />
<glyph unicode="&#x22;" horiz-adv-x="292" d="M186 507l-10 193h58l-10 -193c-7 -2 -11 -3 -19 -3s-12 1 -19 3zM68 507l-10 193h58l-10 -193c-7 -2 -11 -3 -19 -3s-12 1 -19 3z" />
<glyph unicode="!" horiz-adv-x="228" d="M89 174v526h50v-526h-50zM68 36c0 25 21 46 46 46s46 -21 46 -46s-21 -46 -46 -46s-46 21 -46 46z" />
</font>
</defs>
</svg>
