<?xml version="1.0" standalone="no"?>
<!DOCTYPE svg PUBLIC "-//W3C//DTD SVG 1.1//EN" "http://www.w3.org/Graphics/SVG/1.1/DTD/svg11.dtd" >
<svg xmlns="http://www.w3.org/2000/svg" xmlns:xlink="http://www.w3.org/1999/xlink" version="1.1">
<metadata></metadata>
<defs>
<font id="eirmedium" horiz-adv-x="604" >
<font-face units-per-em="1000" ascent="800" descent="-200" />
<missing-glyph horiz-adv-x="228" />
<glyph unicode="fi" horiz-adv-x="502" d="M158 0h-100v497c0 141 90 213 223 213c64 0 122 -24 161 -62c-3 -36 -33 -65 -53 -76c-39 36 -69 54 -116 54c-72 0 -115 -51 -115 -129v-17h273v-480h-100v400h-173v-400z" />
<glyph unicode="fl" horiz-adv-x="524" d="M158 0h-100v515c0 117 81 195 194 195h179v-595c0 -21 10 -35 31 -35c5 0 10 1 14 2c12 -23 17 -44 17 -79c-16 -6 -34 -9 -52 -9c-74 0 -110 38 -110 119v513h-68c-63 0 -105 -38 -105 -117v-29h127v-80h-127v-400z" />
<glyph horiz-adv-x="0" />
<glyph horiz-adv-x="0" />
<glyph unicode="&#xd;" horiz-adv-x="0" />
<glyph unicode=" "  horiz-adv-x="228" />
<glyph unicode="&#x09;" horiz-adv-x="228" />
<glyph unicode="&#xa0;" horiz-adv-x="228" />
<glyph unicode="#" horiz-adv-x="667" d="M333 0l44 205h-149l-43 -205h-97l43 205h-111l18 85h111l26 120h-110l18 85h110l44 205h97l-44 -205h149l43 205h97l-43 -205h111l-18 -85h-111l-26 -120h110l-18 -85h-110l-44 -205h-97zM272 410l-26 -120h149l26 120h-149z" />
<glyph unicode="$" d="M258 -85v78c-120 17 -193 100 -214 197c20 19 53 31 87 31c6 0 11 0 17 -1c11 -59 53 -108 110 -125v237c-119 35 -181 102 -181 196c0 85 59 163 181 179v78h94v-78c87 -13 144 -64 178 -117c-14 -31 -46 -56 -75 -66c-28 42 -62 74 -103 88v-206 c134 -42 198 -91 198 -210c0 -111 -86 -187 -198 -203v-78h-94zM444 193c0 48 -21 82 -92 111v-212c56 12 92 47 92 101zM179 531c0 -42 25 -69 79 -93v177c-50 -12 -79 -43 -79 -84z" />
<glyph unicode="%" horiz-adv-x="723" d="M215 710c93 0 174 -68 174 -169s-81 -169 -174 -169s-174 68 -174 169s81 169 174 169zM215 636c-55 0 -92 -42 -92 -95s37 -95 92 -95s92 42 92 95s-37 95 -92 95zM104 246l476 275l39 -67l-476 -275zM508 328c93 0 174 -68 174 -169s-81 -169 -174 -169 s-174 68 -174 169s81 169 174 169zM508 254c-55 0 -92 -42 -92 -95s37 -95 92 -95s92 42 92 95s-37 95 -92 95z" />
<glyph unicode="&#x26;" horiz-adv-x="660" d="M471 556c0 -93 -65 -159 -159 -196l138 -159c19 40 34 87 47 136c33 0 67 -13 91 -32c-17 -71 -42 -131 -73 -179l110 -126h-120l-49 55c-48 -42 -107 -65 -177 -65c-137 0 -230 94 -230 204c0 87 36 149 118 194c-32 42 -55 84 -55 152c0 98 74 170 184 170 c97 0 175 -64 175 -154zM290 80c43 0 78 16 107 44l-173 198c-46 -27 -73 -64 -73 -118c0 -69 61 -124 139 -124zM209 536c0 -35 11 -63 48 -110c83 33 118 74 118 129c0 39 -30 73 -80 73c-46 0 -86 -33 -86 -92z" />
<glyph unicode="'" horiz-adv-x="210" d="M70 494l-12 206h94l-12 -206c-9 -3 -26 -4 -35 -4s-26 1 -35 4z" />
<glyph unicode="(" horiz-adv-x="352" d="M180 350c0 -149 50 -263 133 -355c-15 -33 -42 -56 -77 -61c-80 83 -156 209 -156 416s76 333 156 416c35 -5 62 -28 77 -61c-83 -92 -133 -206 -133 -355z" />
<glyph unicode=")" horiz-adv-x="352" d="M172 350c0 149 -50 263 -133 355c15 33 42 56 77 61c80 -83 156 -209 156 -416s-76 -333 -156 -416c-35 5 -62 28 -77 61c83 92 133 206 133 355z" />
<glyph unicode="*" horiz-adv-x="392" d="M149 700h94l-14 -98l78 61l47 -81l-91 -37l91 -37l-47 -81l-78 61l14 -98h-94l14 98l-78 -61l-47 81l91 37l-91 37l47 81l78 -61z" />
<glyph unicode="+" horiz-adv-x="490" d="M34 301v92h165v165h92v-165h165v-92h-165v-165h-92v165h-165z" />
<glyph unicode="," horiz-adv-x="276" d="M53 -116l42 226l120 -35l-90 -215c-28 0 -53 9 -72 24z" />
<glyph unicode="-" horiz-adv-x="390" d="M34 291v92h322v-92h-322z" />
<glyph unicode="." horiz-adv-x="284" d="M68 64c0 41 33 74 74 74s74 -33 74 -74s-33 -74 -74 -74s-74 33 -74 74z" />
<glyph unicode="/" horiz-adv-x="574" d="M26 0l412 700h110l-412 -700h-110z" />
<glyph unicode="0" horiz-adv-x="684" d="M342 -10c-165 0 -294 125 -294 360s129 360 294 360s294 -125 294 -360s-129 -360 -294 -360zM342 612c-109 0 -186 -108 -186 -262s77 -262 186 -262s186 108 186 262s-77 262 -186 262z" />
<glyph unicode="1" horiz-adv-x="351" d="M74 511c-21 18 -38 48 -41 85c61 26 102 52 142 104h108v-700h-108v572c-28 -31 -60 -49 -101 -61z" />
<glyph unicode="2" horiz-adv-x="559" d="M157 98h-110c0 119 70 209 212 260c116 42 140 92 140 150c0 57 -47 108 -127 108c-63 0 -115 -40 -137 -115c-34 2 -69 17 -89 38c23 89 100 171 225 171c149 0 228 -82 228 -194c0 -120 -59 -185 -192 -237c-107 -42 -149 -109 -150 -181zM47 0v98h457v-98h-457z" />
<glyph unicode="3" horiz-adv-x="579" d="M276 330h-36c-6 10 -9 27 -9 45c0 17 3 35 9 48h32c87 0 123 43 123 103c0 52 -44 96 -117 96c-63 0 -109 -41 -130 -108c-33 3 -70 18 -88 40c29 97 106 156 219 156c131 0 214 -68 214 -167c0 -78 -45 -133 -88 -155c68 -29 121 -82 121 -176 c0 -129 -95 -222 -240 -222c-146 0 -226 92 -250 184c20 26 57 40 96 40c24 -79 74 -126 152 -126c94 0 134 51 134 122c0 81 -62 120 -142 120z" />
<glyph unicode="4" horiz-adv-x="597" d="M50 160v92c75 172 192 339 327 448h108v-448h69v-92h-69v-160h-108v160h-327zM377 564c-69 -55 -169 -199 -213 -312h213v312z" />
<glyph unicode="5" horiz-adv-x="607" d="M64 319l37 381h421v-90h-335l-20 -178c27 29 83 58 150 58c134 0 238 -91 238 -249s-112 -251 -251 -251c-146 0 -225 91 -248 179c20 22 57 41 93 41c24 -69 67 -122 155 -122c89 0 151 61 151 153s-69 153 -150 153c-64 0 -119 -38 -139 -98c-6 -1 -13 -1 -19 -1 c-34 0 -65 9 -83 24z" />
<glyph unicode="6" horiz-adv-x="603" d="M325 620c-89 0 -147 -84 -167 -199c42 34 96 57 161 57c135 0 236 -90 236 -243c0 -158 -116 -245 -244 -245c-156 0 -263 112 -263 336c0 216 109 384 278 384c104 0 174 -55 212 -123c-16 -33 -47 -52 -80 -60c-28 57 -72 93 -133 93zM314 390c-62 0 -120 -32 -164 -83 c5 -142 64 -227 159 -227c81 0 144 59 144 155s-64 155 -139 155z" />
<glyph unicode="7" horiz-adv-x="510" d="M460 700v-82c0 -231 -194 -339 -194 -618h-108c3 320 198 400 198 602h-325v98h429z" />
<glyph unicode="8" horiz-adv-x="603" d="M518 535c0 -71 -30 -121 -70 -160c66 -38 103 -92 103 -164c0 -150 -110 -221 -246 -221c-130 0 -253 67 -253 218c0 90 49 152 104 187c-41 34 -69 80 -69 139c0 114 98 176 213 176c131 0 218 -75 218 -175zM284 334c-17 4 -33 9 -49 15c-44 -28 -78 -73 -78 -134 c0 -89 74 -132 147 -132c70 0 145 37 145 119c0 75 -77 110 -165 132zM333 420l29 -8c34 28 56 70 56 110c0 52 -48 100 -118 100c-63 0 -115 -32 -115 -89c0 -62 61 -90 148 -113z" />
<glyph unicode="9" horiz-adv-x="603" d="M282 80c87 0 144 80 163 203c-46 -39 -98 -61 -157 -61c-139 0 -240 90 -240 243c0 158 116 245 244 245c159 0 263 -112 263 -328c0 -228 -105 -392 -271 -392c-111 0 -181 55 -219 123c16 33 47 52 80 60c28 -57 72 -93 137 -93zM289 310c68 0 118 30 164 86 c-4 146 -64 224 -159 224c-81 0 -144 -59 -144 -155s64 -155 139 -155z" />
<glyph unicode=":" horiz-adv-x="284" d="M68 416c0 41 33 74 74 74s74 -33 74 -74s-33 -74 -74 -74s-74 33 -74 74zM68 64c0 41 33 74 74 74s74 -33 74 -74s-33 -74 -74 -74s-74 33 -74 74z" />
<glyph unicode=";" horiz-adv-x="288" d="M72 416c0 41 33 74 74 74s74 -33 74 -74s-33 -74 -74 -74s-74 33 -74 74zM41 -116l42 226l120 -35l-90 -215c-28 0 -53 9 -72 24z" />
<glyph unicode="&#x3c;" horiz-adv-x="514" d="M64 349l348 190c23 -20 40 -51 41 -83l-276 -146l276 -146c-1 -32 -18 -63 -41 -83l-348 190v78z" />
<glyph unicode="=" horiz-adv-x="490" d="M34 200v86h422v-86h-422zM34 374v86h422v-86h-422z" />
<glyph unicode="&#x3e;" horiz-adv-x="514" d="M102 539l348 -190v-78l-348 -190c-23 20 -40 51 -41 83l276 146l-276 146c1 32 18 63 41 83z" />
<glyph unicode="?" horiz-adv-x="517" d="M182 64c0 41 33 74 74 74s74 -33 74 -74s-33 -74 -74 -74s-74 33 -74 74zM135 515c-35 0 -72 16 -86 43c30 94 111 152 216 152c132 0 202 -79 202 -173c0 -160 -160 -156 -160 -294v-25h-102v20c0 177 162 192 162 292c0 53 -44 88 -104 88c-64 0 -108 -40 -128 -103z " />
<glyph unicode="@" horiz-adv-x="866" d="M594 13c-62 -34 -122 -49 -188 -49c-189 0 -352 120 -352 356c0 226 172 390 419 390c221 0 341 -141 341 -301c0 -183 -102 -292 -207 -292c-52 0 -81 26 -81 61c0 7 0 11 1 19c-32 -56 -84 -80 -145 -80c-91 0 -173 76 -173 205c0 155 124 241 240 241 c80 0 141 -35 181 -73l-32 -243c-1 -8 -1 -12 -1 -17c0 -18 6 -29 26 -29c40 0 100 69 100 197c0 142 -106 230 -260 230c-172 0 -319 -110 -319 -307c0 -179 126 -275 264 -275c64 0 105 16 148 40c23 -17 36 -40 38 -73zM444 480c-79 0 -147 -65 -147 -161 c0 -70 40 -118 105 -118c69 0 105 52 116 133l15 112c-27 24 -52 34 -89 34z" />
<glyph unicode="A" horiz-adv-x="646" d="M370 700c101 -153 202 -417 258 -700h-112c-11 56 -23 114 -38 170h-310c-15 -56 -27 -114 -38 -170h-112c56 283 157 547 258 700h94zM323 568c-45 -75 -89 -182 -126 -300h252c-37 118 -81 225 -126 300z" />
<glyph unicode="B" horiz-adv-x="611" d="M68 0v700h212c146 0 239 -66 239 -187c0 -53 -21 -97 -54 -129c61 -36 101 -94 101 -179c0 -127 -99 -205 -262 -205h-236zM299 323c-47 0 -85 3 -123 9v-234h144c84 0 142 36 142 116c0 61 -38 100 -92 118c-23 -6 -46 -9 -71 -9zM419 508c0 63 -41 102 -126 102h-117 v-190c39 -8 73 -10 117 -10c85 0 126 40 126 98z" />
<glyph unicode="C" horiz-adv-x="719" d="M582 229c33 -5 73 -25 93 -52c-58 -124 -164 -187 -287 -187c-174 0 -338 120 -338 360s169 360 340 360c127 0 218 -57 278 -157c-17 -32 -55 -55 -89 -60c-43 73 -109 119 -191 119c-119 0 -230 -94 -230 -262s108 -262 229 -262c90 0 153 51 195 141z" />
<glyph unicode="D" horiz-adv-x="683" d="M76 0v700h209c181 0 348 -105 348 -350s-167 -350 -348 -350h-209zM525 350c0 169 -104 252 -242 252h-99v-504h99c138 0 242 83 242 252z" />
<glyph unicode="E" horiz-adv-x="581" d="M68 0v700h465v-98h-357v-188h237v-98h-237v-218h367v-98h-475z" />
<glyph unicode="F" horiz-adv-x="582" d="M68 0v700h474v-98h-366v-226h294v-98h-294v-278h-108z" />
<glyph unicode="G" horiz-adv-x="733" d="M382 280v98h290v-294c-79 -64 -166 -94 -266 -94c-198 0 -356 124 -356 360c0 240 172 360 343 360c135 0 229 -58 282 -155c-16 -30 -52 -52 -88 -62c-38 79 -113 119 -196 119c-118 0 -233 -93 -233 -262s104 -262 248 -262c71 0 119 19 162 51v141h-186z" />
<glyph unicode="H" horiz-adv-x="712" d="M68 0v700h108v-280h360v280h108v-700h-108v322h-360v-322h-108z" />
<glyph unicode="I" horiz-adv-x="244" d="M68 0v700h108v-700h-108z" />
<glyph unicode="J" horiz-adv-x="534" d="M38 132c17 28 55 51 91 55c25 -66 68 -99 126 -99c67 0 107 44 107 125v487h108v-485c0 -138 -82 -225 -210 -225c-124 0 -192 64 -222 142z" />
<glyph unicode="K" horiz-adv-x="619" d="M456 0l-226 321c-18 -15 -36 -29 -54 -43v-278h-108v700h108v-292c98 87 162 180 220 292h112c-53 -119 -123 -221 -200 -303l275 -397h-127z" />
<glyph unicode="L" horiz-adv-x="590" d="M68 0v700h108v-602h372v-98h-480z" />
<glyph unicode="M" horiz-adv-x="886" d="M495 0h-104c-47 191 -121 381 -215 522v-522h-108v700h131c97 -151 200 -359 244 -528c44 169 147 377 244 528h131v-700h-108v522c-94 -141 -168 -331 -215 -522z" />
<glyph unicode="N" horiz-adv-x="684" d="M68 0v700h104c114 -143 262 -346 336 -505v505h108v-700h-128c-78 185 -205 393 -312 513v-513h-108z" />
<glyph unicode="O" horiz-adv-x="774" d="M387 -10c-176 0 -337 118 -337 360s161 360 337 360s337 -118 337 -360s-161 -360 -337 -360zM387 612c-121 0 -229 -92 -229 -262s108 -262 229 -262s229 92 229 262s-108 262 -229 262z" />
<glyph unicode="P" horiz-adv-x="585" d="M68 0v700h209c156 0 260 -81 260 -220c0 -144 -110 -221 -248 -221c-41 0 -77 2 -113 11v-270h-108zM429 483c0 71 -57 119 -155 119h-98v-227c36 -13 72 -18 111 -18c87 0 142 48 142 126z" />
<glyph unicode="Q" horiz-adv-x="774" d="M387 -10c-176 0 -337 118 -337 360s161 360 337 360s337 -118 337 -360c0 -124 -43 -216 -108 -275c30 -27 65 -50 106 -66c-2 -31 -16 -66 -39 -84c-57 22 -107 55 -150 95c-45 -20 -95 -30 -146 -30zM387 612c-121 0 -229 -92 -229 -262s108 -262 229 -262 c27 0 53 4 78 13c-22 32 -39 65 -53 100c16 26 52 47 86 48c14 -33 31 -64 50 -93c41 44 68 109 68 194c0 170 -108 262 -229 262z" />
<glyph unicode="R" horiz-adv-x="598" d="M544 0h-115c-18 133 -61 221 -128 288c-52 0 -95 4 -125 11v-299h-108v700h226c149 0 243 -73 243 -205c0 -104 -68 -165 -120 -188c61 -70 108 -162 127 -307zM433 494c0 69 -41 112 -137 112h-120v-209c39 -10 75 -15 120 -15c96 0 137 48 137 112z" />
<glyph unicode="S" d="M179 531c0 -58 48 -88 155 -119c147 -43 216 -92 216 -216c0 -126 -110 -206 -245 -206c-148 0 -237 91 -261 200c20 19 53 31 87 31c6 0 11 0 17 -1c14 -74 76 -132 157 -132c82 0 139 37 139 105c0 61 -33 101 -163 133c-134 33 -204 102 -204 202c0 96 75 182 230 182 c113 0 184 -58 223 -120c-14 -31 -46 -56 -75 -66c-37 57 -88 96 -149 96c-79 0 -127 -36 -127 -89z" />
<glyph unicode="T" horiz-adv-x="572" d="M22 602v98h528v-98h-210v-602h-108v602h-210z" />
<glyph unicode="U" horiz-adv-x="692" d="M520 294v406h108v-404c0 -207 -108 -306 -282 -306s-282 99 -282 306v404h108v-406c0 -148 77 -206 174 -206s174 58 174 206z" />
<glyph unicode="V" horiz-adv-x="656" d="M281 0c-108 184 -204 419 -259 700h112c42 -218 117 -416 194 -564c77 148 152 346 194 564h112c-55 -281 -151 -516 -259 -700h-94z" />
<glyph unicode="W" horiz-adv-x="924" d="M462 483c-34 -171 -97 -358 -150 -483h-95c-83 206 -155 425 -197 700h108c32 -209 76 -368 138 -537c60 157 108 326 144 537h104c36 -211 84 -380 144 -537c62 169 106 328 138 537h108c-42 -275 -114 -494 -197 -700h-95c-53 125 -116 312 -150 483z" />
<glyph unicode="X" horiz-adv-x="558" d="M29 700h108c24 -109 71 -187 142 -259c71 72 119 151 146 259h105c-24 -135 -106 -250 -176 -326c103 -102 168 -228 195 -374h-108c-23 116 -78 214 -162 309c-81 -96 -127 -193 -159 -309h-111c30 151 102 271 201 373c-77 74 -155 177 -181 327z" />
<glyph unicode="Y" horiz-adv-x="566" d="M229 0v234c-106 162 -166 279 -209 466h114c38 -162 83 -248 149 -346c66 98 111 184 149 346h114c-43 -187 -103 -304 -209 -466v-234h-108z" />
<glyph unicode="Z" horiz-adv-x="570" d="M47 602v98h473v-43c0 -102 -68 -175 -194 -315c-91 -101 -157 -173 -165 -244h373v-98h-500v44c0 130 92 231 216 360c75 79 133 143 141 198h-344z" />
<glyph unicode="[" horiz-adv-x="312" d="M68 -170v870h204v-92h-104v-686h104v-92h-204z" />
<glyph unicode="\" horiz-adv-x="574" d="M136 700l412 -700h-110l-412 700h110z" />
<glyph unicode="]" horiz-adv-x="312" d="M244 700v-870h-204v92h104v686h-104v92h204z" />
<glyph unicode="^" horiz-adv-x="514" d="M300 700l180 -244c-15 -30 -40 -47 -80 -51l-143 198l-143 -198c-40 4 -65 21 -80 51l180 244h86z" />
<glyph unicode="_" horiz-adv-x="482" d="M24 -102v92h434v-92h-434z" />
<glyph unicode="`" horiz-adv-x="318" d="M88 719l194 -119c-4 -28 -14 -49 -32 -64l-214 84z" />
<glyph unicode="a" d="M514 416v-236c0 -60 20 -89 65 -102c-4 -41 -16 -69 -36 -88c-55 4 -96 43 -106 83c-41 -57 -93 -83 -161 -83c-134 0 -232 91 -232 250s117 250 251 250c88 0 162 -32 219 -74zM285 78c77 0 129 55 129 147v136c-36 25 -71 41 -124 41c-86 0 -144 -70 -144 -162 s50 -162 139 -162z" />
<glyph unicode="b" horiz-adv-x="581" d="M60 84v608c26 19 61 29 100 29v-292c31 35 91 61 149 61c131 0 228 -87 228 -250c0 -162 -107 -250 -247 -250c-89 0 -166 33 -230 94zM160 245v-113c34 -33 79 -54 131 -54c95 0 146 69 146 162s-52 162 -142 162c-80 0 -135 -62 -135 -157z" />
<glyph unicode="c" horiz-adv-x="541" d="M433 150c32 -9 59 -30 70 -55c-50 -67 -115 -105 -211 -105c-126 0 -248 91 -248 250s116 250 251 250c95 0 160 -38 198 -102c-16 -27 -41 -43 -74 -58c-26 42 -73 72 -123 72c-96 0 -150 -67 -150 -162c0 -94 57 -162 153 -162c55 0 98 24 134 72z" />
<glyph unicode="d" horiz-adv-x="607" d="M521 168c0 -53 17 -78 61 -92c-4 -34 -15 -61 -34 -86c-60 0 -93 42 -106 80c-39 -47 -90 -80 -163 -80c-132 0 -235 90 -235 250s111 250 234 250c62 0 109 -16 143 -39v241c26 19 61 29 100 29v-553zM286 78c85 0 135 68 135 159v112c-36 31 -82 53 -131 53 c-85 0 -144 -68 -144 -162s52 -162 140 -162z" />
<glyph unicode="e" horiz-adv-x="554" d="M498 345c0 -136 -150 -183 -336 -192c23 -48 69 -79 136 -79c68 0 111 26 160 78c28 -14 48 -36 60 -65c-57 -60 -125 -97 -222 -97c-148 0 -252 91 -252 230c0 174 130 270 272 270c123 0 182 -65 182 -145zM144 234v-5c158 8 254 44 254 112c0 38 -31 65 -85 65 c-92 0 -169 -73 -169 -172z" />
<glyph unicode="f" horiz-adv-x="310" d="M158 0h-100v533c0 107 70 177 172 177c46 0 78 -12 107 -33c-3 -37 -21 -59 -38 -79c-18 18 -40 28 -64 28c-49 0 -77 -33 -77 -89v-57h137v-80h-137v-400z" />
<glyph unicode="g" horiz-adv-x="580" d="M520 409v-409c0 -152 -97 -230 -233 -230c-115 0 -184 52 -222 113c12 34 43 59 75 68c32 -57 81 -93 146 -93c83 0 134 50 134 130v69c-26 -30 -80 -57 -141 -57c-131 0 -235 84 -235 245s118 245 256 245c87 0 166 -35 220 -81zM283 88c90 0 137 62 137 156v115 c-32 24 -78 43 -127 43c-89 0 -147 -64 -147 -157c0 -91 52 -157 137 -157z" />
<glyph unicode="h" horiz-adv-x="562" d="M60 692c26 19 61 29 100 29v-273c36 25 95 42 153 42c120 0 189 -73 189 -193v-297h-100v293c0 68 -48 109 -115 109c-43 0 -97 -20 -127 -51v-351h-100v692z" />
<glyph unicode="i" horiz-adv-x="220" d="M60 0v480h100v-480h-100zM40 626c0 39 31 70 70 70s70 -31 70 -70s-31 -70 -70 -70s-70 31 -70 70z" />
<glyph unicode="j" horiz-adv-x="216" d="M56 480h100v-528c0 -85 -51 -138 -122 -138c-25 0 -35 3 -55 10c0 33 6 57 16 82c7 -3 14 -4 21 -4c23 0 40 16 40 44v534zM36 626c0 39 31 70 70 70s70 -31 70 -70s-31 -70 -70 -70s-70 31 -70 70z" />
<glyph unicode="k" horiz-adv-x="479" d="M60 692c26 19 61 29 100 29v-426c69 48 125 111 164 185h108c-31 -67 -80 -136 -138 -196l181 -284h-116l-139 216c-20 -16 -40 -30 -60 -43v-173h-100v692z" />
<glyph unicode="l" horiz-adv-x="253" d="M60 113v579c26 19 61 29 100 29v-604c0 -21 10 -35 31 -35c6 0 11 1 14 2c12 -23 17 -46 17 -81c-16 -6 -34 -9 -52 -9c-74 0 -110 38 -110 119z" />
<glyph unicode="m" horiz-adv-x="786" d="M626 0v307c0 62 -31 95 -84 95c-40 0 -79 -20 -99 -45v-357h-100v312c0 51 -31 90 -88 90c-35 0 -73 -18 -95 -37v-365h-100v408c58 51 122 82 201 82c60 0 106 -19 139 -56c31 28 85 56 155 56c120 0 171 -75 171 -178v-312h-100z" />
<glyph unicode="n" horiz-adv-x="551" d="M391 0v288c0 72 -43 114 -116 114c-44 0 -88 -21 -115 -45v-357h-100v402c61 53 133 88 226 88c132 0 205 -72 205 -199v-291h-100z" />
<glyph unicode="o" horiz-adv-x="588" d="M294 490c132 0 250 -91 250 -250s-118 -250 -250 -250s-250 91 -250 250s118 250 250 250zM294 402c-88 0 -148 -65 -148 -162s60 -162 148 -162s148 65 148 162s-60 162 -148 162z" />
<glyph unicode="p" horiz-adv-x="583" d="M60 -220v471c0 150 105 239 237 239c141 0 242 -92 242 -250c0 -152 -110 -250 -242 -250c-52 0 -100 12 -137 37v-247h-100zM296 402c-81 0 -136 -61 -136 -153v-116c28 -33 78 -55 130 -55c91 0 147 65 147 162s-56 162 -141 162z" />
<glyph unicode="q" horiz-adv-x="580" d="M520 410v-630h-100v267c-25 -26 -81 -57 -144 -57c-134 0 -232 90 -232 250s112 250 256 250c88 0 170 -38 220 -80zM286 78c87 0 134 66 134 161v120c-30 23 -71 43 -125 43c-92 0 -149 -71 -149 -162s52 -162 140 -162z" />
<glyph unicode="r" horiz-adv-x="387" d="M372 466c-5 -40 -17 -62 -35 -88c-17 14 -41 24 -67 24c-68 0 -110 -39 -110 -131v-271h-100v274c0 152 96 216 208 216c49 0 80 -10 104 -24z" />
<glyph unicode="s" horiz-adv-x="486" d="M163 359c0 -38 39 -60 122 -76c97 -19 157 -54 157 -135c0 -96 -82 -158 -190 -158c-103 0 -194 59 -212 155c19 16 43 25 72 25c6 0 13 0 20 -1c16 -66 64 -94 123 -94c52 0 92 23 92 64c0 40 -28 57 -120 76c-83 17 -156 53 -156 139c0 91 82 136 179 136 c85 0 140 -35 174 -74c-14 -33 -32 -50 -60 -66c-25 36 -64 62 -115 62c-53 0 -86 -21 -86 -53z" />
<glyph unicode="t" horiz-adv-x="364" d="M158 480h147v-80h-147v-241c0 -55 36 -83 74 -83c28 0 46 7 67 24c23 -19 33 -37 40 -71c-37 -30 -67 -39 -116 -39c-99 0 -165 62 -165 174v449c26 19 61 29 100 29v-162z" />
<glyph unicode="u" horiz-adv-x="551" d="M160 480v-288c0 -72 43 -114 116 -114c44 0 88 21 115 45v357h100v-402c-61 -53 -133 -88 -226 -88c-132 0 -205 72 -205 199v291h100z" />
<glyph unicode="v" horiz-adv-x="510" d="M209 0c-85 134 -160 296 -197 480h108c28 -144 78 -263 135 -358c57 95 107 214 135 358h108c-37 -184 -112 -346 -197 -480h-92z" />
<glyph unicode="w" horiz-adv-x="740" d="M424 480c19 -121 58 -273 98 -362c41 82 88 244 103 362h100c-26 -168 -94 -358 -161 -480h-88c-39 89 -86 221 -106 331c-20 -110 -67 -242 -106 -331h-88c-67 122 -135 312 -161 480h100c15 -118 62 -280 103 -362c40 89 79 241 98 362h108z" />
<glyph unicode="x" horiz-adv-x="450" d="M321 480h102c-29 -97 -68 -154 -129 -220c71 -61 128 -156 148 -260h-108c-11 76 -58 160 -109 202c-54 -43 -94 -126 -109 -202h-108c23 102 79 199 148 260c-62 63 -100 129 -128 220h102c19 -59 55 -124 95 -163c41 39 77 104 96 163z" />
<glyph unicode="y" horiz-adv-x="547" d="M158 480v-281c0 -72 44 -121 116 -121c44 0 84 16 113 41v361h100v-486c0 -138 -77 -224 -215 -224c-104 0 -172 46 -204 96c12 38 40 60 69 70c28 -49 76 -78 134 -78c76 0 116 49 116 124v43c-32 -22 -72 -35 -123 -35c-132 0 -206 84 -206 201v289h100z" />
<glyph unicode="z" horiz-adv-x="441" d="M49 400v80h339v-32c0 -174 -230 -244 -244 -368h260v-80h-371v40c0 178 218 246 249 360h-233z" />
<glyph unicode="{" horiz-adv-x="303" d="M135 265c27 -10 49 -34 49 -83v-177c0 -59 25 -83 64 -83h27v-92h-41c-105 0 -150 62 -150 166v173c0 36 -14 51 -41 51h-17v90h17c27 0 41 15 41 51v173c0 104 45 166 150 166h41v-92h-27c-39 0 -64 -24 -64 -83v-177c0 -49 -22 -73 -49 -83z" />
<glyph unicode="|" horiz-adv-x="244" d="M68 -170v870h108v-870h-108z" />
<glyph unicode="}" horiz-adv-x="301" d="M166 265c-27 10 -49 34 -49 83v177c0 59 -25 83 -64 83h-27v92h41c105 0 150 -62 150 -166v-173c0 -36 14 -51 41 -51h17v-90h-17c-27 0 -41 -15 -41 -51v-173c0 -104 -45 -166 -150 -166h-41v92h27c39 0 64 24 64 83v177c0 49 22 73 49 83z" />
<glyph unicode="~" horiz-adv-x="458" d="M85 262c-28 5 -50 26 -55 54c23 43 70 71 118 71c67 0 105 -39 155 -39c29 0 54 18 70 42c28 -5 50 -26 55 -54c-23 -43 -70 -71 -118 -71c-67 0 -105 39 -155 39c-29 0 -54 -18 -70 -42z" />
<glyph unicode="&#xa1;" horiz-adv-x="284" d="M91 -220v482h102v-482h-102zM68 416c0 41 33 74 74 74s74 -33 74 -74s-33 -74 -74 -74s-74 33 -74 74z" />
<glyph unicode="&#xa2;" horiz-adv-x="541" d="M250 -85v78c-110 18 -206 106 -206 247s91 228 206 246v89h90v-88c71 -11 121 -46 153 -99c-16 -27 -41 -43 -74 -58c-18 29 -47 54 -79 66v-314c36 9 66 32 93 68c32 -9 59 -30 70 -55c-41 -55 -93 -91 -163 -101v-79h-90zM146 240c0 -77 38 -136 104 -155v313 c-67 -19 -104 -80 -104 -158z" />
<glyph unicode="&#xa3;" horiz-adv-x="575" d="M29 328v78h54c-6 25 -10 53 -10 87c0 126 97 217 225 217c111 0 183 -59 213 -142c-17 -32 -53 -48 -86 -50c-23 64 -64 102 -128 102c-72 0 -124 -53 -124 -130c0 -30 5 -58 12 -84h175v-78h-153c10 -33 18 -67 18 -105c0 -59 -19 -96 -50 -131h173c54 0 82 17 109 64 c25 -8 54 -31 64 -59c-34 -61 -81 -97 -157 -97h-296c-15 18 -26 50 -26 88c57 25 83 74 83 145c0 36 -8 65 -18 95h-78z" />
<glyph unicode="&#xa5;" horiz-adv-x="572" d="M95 254v82h78c-74 114 -114 192 -153 364h115c36 -162 80 -250 151 -354c71 104 115 192 151 354h115c-39 -172 -79 -250 -153 -364h78v-82h-137v-53h137v-82h-137v-119h-108v119h-137v82h137v53h-137z" />
<glyph unicode="&#xa6;" horiz-adv-x="244" d="M176 322h-108v378h108v-378zM68 208h108v-378h-108v378z" />
<glyph unicode="&#xa7;" horiz-adv-x="569" d="M505 250c0 -48 -24 -86 -54 -115c21 -29 31 -64 31 -104c0 -90 -81 -163 -196 -163c-111 0 -178 50 -212 117c13 30 43 51 75 60c34 -57 71 -91 134 -91c59 0 102 33 102 83c0 61 -57 91 -146 115c-110 30 -178 79 -178 176c0 48 23 86 54 114c-21 30 -31 64 -31 105 c0 90 81 163 196 163c111 0 178 -50 212 -117c-13 -30 -43 -51 -75 -60c-34 57 -71 91 -134 91c-59 0 -102 -33 -102 -83c0 -61 57 -91 146 -115c110 -30 178 -79 178 -176zM278 347c-37 10 -68 22 -94 36c-14 -16 -21 -35 -21 -52c0 -55 44 -78 125 -100 c37 -10 68 -22 94 -37c13 17 21 35 21 53c0 55 -44 78 -125 100z" />
<glyph unicode="&#xa8;" horiz-adv-x="366" d="M208 626c0 36 29 65 65 65s65 -29 65 -65s-29 -65 -65 -65s-65 29 -65 65zM28 626c0 36 29 65 65 65s65 -29 65 -65s-29 -65 -65 -65s-65 29 -65 65z" />
<glyph unicode="&#xa9;" horiz-adv-x="820" d="M50 350c0 199 154 360 360 360s360 -161 360 -360s-154 -360 -360 -360s-360 161 -360 360zM124 350c0 -160 119 -294 286 -294s286 134 286 294s-119 294 -286 294s-286 -134 -286 -294zM534 278c22 -7 51 -28 58 -54c-42 -55 -91 -94 -180 -94c-120 0 -217 87 -217 220 s100 220 220 220c91 0 144 -49 172 -92c-12 -28 -39 -48 -63 -55c-25 41 -56 69 -109 69c-85 0 -134 -65 -134 -142s48 -142 134 -142c54 0 86 23 119 70z" />
<glyph unicode="&#xaa;" horiz-adv-x="491" d="M419 649v-189c0 -50 16 -73 53 -84c-3 -34 -13 -61 -29 -76c-46 3 -78 34 -86 67c-31 -46 -76 -67 -132 -67c-109 0 -188 74 -188 205c0 130 94 205 204 205c72 0 131 -26 178 -61zM233 377c63 0 102 43 102 115v109c-27 22 -55 32 -98 32c-68 0 -114 -53 -114 -128 c0 -76 37 -128 110 -128z" />
<glyph unicode="&#xab;" horiz-adv-x="526" d="M239 332l186 198c25 -11 48 -36 56 -65l-146 -155l146 -155c-8 -29 -31 -54 -56 -65l-186 198v44zM59 332l186 198c25 -11 48 -36 56 -65l-146 -155l146 -155c-8 -29 -31 -54 -56 -65l-186 198v44z" />
<glyph unicode="&#xac;" horiz-adv-x="497" d="M31 305v84h411v-233h-86v149h-325z" />
<glyph unicode="&#xae;" horiz-adv-x="820" d="M50 350c0 199 154 360 360 360s360 -161 360 -360s-154 -360 -360 -360s-360 161 -360 360zM124 350c0 -160 119 -294 286 -294s286 134 286 294s-119 294 -286 294s-286 -134 -286 -294zM426 318c-39 0 -65 4 -96 11v-180h-72v421h168c86 0 145 -49 145 -126 c0 -48 -24 -85 -62 -106c36 -40 65 -107 73 -189h-75c-5 60 -25 120 -69 169h-12zM497 442c0 45 -25 68 -73 68h-94v-117c32 -9 54 -13 92 -13c48 0 75 22 75 62z" />
<glyph unicode="&#xaf;" horiz-adv-x="312" d="M42 574v78h228v-78h-228z" />
<glyph unicode="&#xb0;" horiz-adv-x="302" d="M36 595c0 67 52 115 115 115s115 -48 115 -115s-52 -115 -115 -115s-115 48 -115 115zM102 595c0 -28 21 -51 49 -51s49 23 49 51s-21 51 -49 51s-49 -23 -49 -51z" />
<glyph unicode="&#xb1;" horiz-adv-x="490" d="M34 307v92h165v165h92v-165h165v-92h-165v-165h-92v165h-165zM34 0v92h422v-92h-422z" />
<glyph unicode="&#xb2;" horiz-adv-x="370" d="M45 300v48c0 79 53 135 130 169c52 23 63 41 63 70c0 25 -18 48 -54 48c-30 0 -57 -21 -63 -58c-30 0 -63 12 -79 26c15 61 63 102 140 102c79 0 137 -42 137 -110c0 -67 -28 -99 -108 -138c-53 -25 -68 -49 -70 -87h186v-70h-282z" />
<glyph unicode="&#xb3;" horiz-adv-x="356" d="M175 484h-28c-3 7 -5 24 -5 35c0 10 2 26 5 34h25c34 0 56 16 56 43c0 22 -17 40 -49 40c-35 0 -51 -21 -56 -49c-29 2 -61 13 -76 29c18 56 70 89 131 89c78 0 130 -39 130 -101c0 -39 -20 -68 -45 -82c35 -19 61 -47 61 -101c0 -81 -63 -126 -142 -126 c-88 0 -135 52 -149 108c14 20 55 30 79 30c9 -40 28 -63 69 -63c37 0 63 20 63 56c0 38 -22 57 -69 58z" />
<glyph unicode="&#xb4;" horiz-adv-x="318" d="M36 600l194 119l52 -99l-214 -84c-18 15 -28 36 -32 64z" />
<glyph unicode="&#xb5;" horiz-adv-x="551" d="M160 480v-288c0 -72 43 -114 116 -114c44 0 88 21 115 45v357h100v-402c-61 -53 -133 -88 -226 -88c-41 0 -76 7 -105 20v-230h-100v700h100z" />
<glyph unicode="&#xb6;" horiz-adv-x="657" d="M434 -170h-104v469c-29 -8 -47 -11 -80 -11c-109 0 -202 69 -202 198c0 147 118 214 251 214h290v-870h-104v776h-51v-776zM291 606c-88 0 -139 -42 -139 -118c0 -69 44 -106 101 -106c28 0 50 7 77 20v204h-39z" />
<glyph unicode="&#xb7;" horiz-adv-x="284" d="M68 350c0 41 33 74 74 74s74 -33 74 -74s-33 -74 -74 -74s-74 33 -74 74z" />
<glyph unicode="&#xb8;" horiz-adv-x="241" d="M62 -220c-6 7 -9 21 -9 32c0 10 3 25 9 32c40 0 61 6 61 29c0 15 -14 25 -41 25c-7 0 -15 -1 -24 -3l33 118l72 -5l-24 -62c35 -9 61 -34 61 -74c0 -61 -54 -92 -138 -92z" />
<glyph unicode="&#xb9;" horiz-adv-x="280" d="M62 568c-13 16 -24 43 -25 67c46 14 75 35 98 65h83v-400h-83v305c-15 -16 -46 -30 -73 -37z" />
<glyph unicode="&#xba;" horiz-adv-x="484" d="M242 710c108 0 205 -75 205 -205c0 -131 -97 -205 -205 -205s-205 74 -205 205c0 130 97 205 205 205zM242 633c-72 0 -119 -49 -119 -128c0 -80 47 -128 119 -128s119 48 119 128c0 79 -47 128 -119 128z" />
<glyph unicode="&#xbb;" horiz-adv-x="526" d="M281 530l186 -198v-44l-186 -198c-25 11 -48 36 -56 65l146 155l-146 155c8 29 31 54 56 65zM101 530l186 -198v-44l-186 -198c-25 11 -48 36 -56 65l146 155l-146 155c8 29 31 54 56 65z" />
<glyph unicode="&#xbc;" horiz-adv-x="725" d="M379 79v63c39 103 117 202 190 258h76v-258h30v-63h-30v-79h-76v79h-190zM152 169l366 410l53 -49l-366 -410zM569 304c-49 -45 -87 -101 -108 -162h108v162zM62 568c-13 16 -24 43 -25 67c46 14 75 35 98 65h83v-400h-83v305c-15 -16 -46 -30 -73 -37z" />
<glyph unicode="&#xbd;" horiz-adv-x="802" d="M157 169l366 410l53 -49l-366 -410zM62 568c-13 16 -24 43 -25 67c46 14 75 35 98 65h83v-400h-83v305c-15 -16 -46 -30 -73 -37zM456 0v48c0 79 53 135 130 169c52 23 63 41 63 70c0 25 -18 48 -54 48c-30 0 -57 -21 -63 -58c-30 0 -63 12 -79 26c15 61 63 102 140 102 c79 0 137 -42 137 -110c0 -67 -28 -99 -108 -138c-53 -25 -68 -49 -70 -87h186v-70h-282z" />
<glyph unicode="&#xbe;" horiz-adv-x="808" d="M462 79v63c39 103 117 202 190 258h76v-258h30v-63h-30v-79h-76v79h-190zM235 169l366 410l53 -49l-366 -410zM652 304c-49 -45 -87 -101 -108 -162h108v162zM175 484h-28c-3 7 -5 24 -5 35c0 10 2 26 5 34h25c34 0 56 16 56 43c0 22 -17 40 -49 40 c-35 0 -51 -21 -56 -49c-29 2 -61 13 -76 29c18 56 70 89 131 89c78 0 130 -39 130 -101c0 -39 -20 -68 -45 -82c35 -19 61 -47 61 -101c0 -81 -63 -126 -142 -126c-88 0 -135 52 -149 108c14 20 55 30 79 30c9 -40 28 -63 69 -63c37 0 63 20 63 56c0 38 -22 57 -69 58z" />
<glyph unicode="&#xbf;" horiz-adv-x="517" d="M335 416c0 -41 -33 -74 -74 -74s-74 33 -74 74s33 74 74 74s74 -33 74 -74zM382 -35c35 0 72 -16 86 -43c-30 -94 -111 -152 -216 -152c-132 0 -202 79 -202 173c0 160 160 156 160 294v25h102v-20c0 -177 -162 -192 -162 -292c0 -53 44 -88 104 -88c64 0 108 40 128 103 z" />
<glyph unicode="&#xc0;" horiz-adv-x="646" d="M370 700c101 -153 202 -417 258 -700h-112c-11 56 -23 114 -38 170h-310c-15 -56 -27 -114 -38 -170h-112c56 283 157 547 258 700h94zM323 568c-45 -75 -89 -182 -126 -300h252c-37 118 -81 225 -126 300zM242 939l194 -119c-4 -28 -14 -49 -32 -64l-214 84z" />
<glyph unicode="&#xc1;" horiz-adv-x="646" d="M370 700c101 -153 202 -417 258 -700h-112c-11 56 -23 114 -38 170h-310c-15 -56 -27 -114 -38 -170h-112c56 283 157 547 258 700h94zM323 568c-45 -75 -89 -182 -126 -300h252c-37 118 -81 225 -126 300zM200 820l194 119l52 -99l-214 -84c-18 15 -28 36 -32 64z" />
<glyph unicode="&#xc2;" horiz-adv-x="646" d="M370 700c101 -153 202 -417 258 -700h-112c-11 56 -23 114 -38 170h-310c-15 -56 -27 -114 -38 -170h-112c56 283 157 547 258 700h94zM323 568c-45 -75 -89 -182 -126 -300h252c-37 118 -81 225 -126 300zM156 811l167 119l167 -119c-6 -23 -23 -46 -39 -58l-128 73 l-128 -73c-16 12 -33 35 -39 58z" />
<glyph unicode="&#xc3;" horiz-adv-x="646" d="M370 700c101 -153 202 -417 258 -700h-112c-11 56 -23 114 -38 170h-310c-15 -56 -27 -114 -38 -170h-112c56 283 157 547 258 700h94zM323 568c-45 -75 -89 -182 -126 -300h252c-37 118 -81 225 -126 300zM204 779c-27 5 -50 24 -56 52c24 42 69 67 115 67 c67 0 79 -38 129 -38c30 0 50 15 66 38c27 -5 50 -24 56 -52c-24 -42 -69 -67 -115 -67c-67 0 -79 38 -129 38c-30 0 -50 -15 -66 -38z" />
<glyph unicode="&#xc4;" horiz-adv-x="646" d="M370 700c101 -153 202 -417 258 -700h-112c-11 56 -23 114 -38 170h-310c-15 -56 -27 -114 -38 -170h-112c56 283 157 547 258 700h94zM323 568c-45 -75 -89 -182 -126 -300h252c-37 118 -81 225 -126 300zM362 846c0 36 29 65 65 65s65 -29 65 -65s-29 -65 -65 -65 s-65 29 -65 65zM182 846c0 36 29 65 65 65s65 -29 65 -65s-29 -65 -65 -65s-65 29 -65 65z" />
<glyph unicode="&#xc5;" horiz-adv-x="646" d="M370 700c101 -153 202 -417 258 -700h-112c-11 56 -23 114 -38 170h-310c-15 -56 -27 -114 -38 -170h-112c56 283 157 547 258 700h94zM323 568c-45 -75 -89 -182 -126 -300h252c-37 118 -81 225 -126 300zM221 864c0 58 46 104 104 104s104 -46 104 -104 s-46 -104 -104 -104s-104 46 -104 104zM289 864c0 -20 16 -36 36 -36s36 16 36 36s-16 36 -36 36s-36 -16 -36 -36z" />
<glyph unicode="&#xc6;" horiz-adv-x="900" d="M387 0v170h-222c-15 -56 -27 -113 -35 -170h-112c44 294 171 563 270 700h564v-98h-357v-188h237v-98h-237v-218h367v-98h-475zM346 602c-50 -76 -107 -197 -152 -334h193v334h-41z" />
<glyph unicode="&#xc7;" horiz-adv-x="719" d="M328 -220c-6 7 -9 21 -9 32c0 10 3 25 9 32c40 0 61 6 61 29c0 15 -14 25 -41 25c-7 0 -15 -1 -24 -3l27 97c-160 16 -301 135 -301 358c0 240 169 360 340 360c127 0 218 -57 278 -157c-17 -32 -55 -55 -89 -60c-43 73 -109 119 -191 119c-119 0 -230 -94 -230 -262 s108 -262 229 -262c90 0 153 51 195 141c33 -5 73 -25 93 -52c-53 -113 -145 -174 -253 -185l-17 -46c35 -9 61 -34 61 -74c0 -61 -54 -92 -138 -92z" />
<glyph unicode="&#xc8;" horiz-adv-x="581" d="M68 0v700h465v-98h-357v-188h237v-98h-237v-218h367v-98h-475zM230 939l194 -119c-4 -28 -14 -49 -32 -64l-214 84z" />
<glyph unicode="&#xc9;" horiz-adv-x="581" d="M68 0v700h465v-98h-357v-188h237v-98h-237v-218h367v-98h-475zM178 820l194 119l52 -99l-214 -84c-18 15 -28 36 -32 64z" />
<glyph unicode="&#xca;" horiz-adv-x="581" d="M68 0v700h465v-98h-357v-188h237v-98h-237v-218h367v-98h-475zM138 811l167 119l167 -119c-6 -23 -23 -46 -39 -58l-128 73l-128 -73c-16 12 -33 35 -39 58z" />
<glyph unicode="&#xcb;" horiz-adv-x="581" d="M68 0v700h465v-98h-357v-188h237v-98h-237v-218h367v-98h-475zM329 846c0 36 29 65 65 65s65 -29 65 -65s-29 -65 -65 -65s-65 29 -65 65zM149 846c0 36 29 65 65 65s65 -29 65 -65s-29 -65 -65 -65s-65 29 -65 65z" />
<glyph unicode="&#xcc;" horiz-adv-x="244" d="M68 0v700h108v-700h-108zM51 939l194 -119c-4 -28 -14 -49 -32 -64l-214 84z" />
<glyph unicode="&#xcd;" horiz-adv-x="244" d="M68 0v700h108v-700h-108zM-1 820l194 119l52 -99l-214 -84c-18 15 -28 36 -32 64z" />
<glyph unicode="&#xce;" horiz-adv-x="244" d="M68 0v700h108v-700h-108zM-45 811l167 119l167 -119c-6 -23 -23 -46 -39 -58l-128 73l-128 -73c-16 12 -33 35 -39 58z" />
<glyph unicode="&#xcf;" horiz-adv-x="244" d="M68 0v700h108v-700h-108zM147 846c0 36 29 65 65 65s65 -29 65 -65s-29 -65 -65 -65s-65 29 -65 65zM-33 846c0 36 29 65 65 65s65 -29 65 -65s-29 -65 -65 -65s-65 29 -65 65z" />
<glyph unicode="&#xd0;" horiz-adv-x="705" d="M25 304v92h73v304h209c181 0 348 -105 348 -350s-167 -350 -348 -350h-209v304h-73zM547 350c0 169 -104 252 -242 252h-99v-206h137v-92h-137v-206h99c138 0 242 83 242 252z" />
<glyph unicode="&#xd1;" horiz-adv-x="684" d="M68 0v700h104c114 -143 262 -346 336 -505v505h108v-700h-128c-78 185 -205 393 -312 513v-513h-108zM223 779c-27 5 -50 24 -56 52c24 42 69 67 115 67c67 0 79 -38 129 -38c30 0 50 15 66 38c27 -5 50 -24 56 -52c-24 -42 -69 -67 -115 -67c-67 0 -79 38 -129 38 c-30 0 -50 -15 -66 -38z" />
<glyph unicode="&#xd2;" horiz-adv-x="774" d="M387 -10c-176 0 -337 118 -337 360s161 360 337 360s337 -118 337 -360s-161 -360 -337 -360zM387 612c-121 0 -229 -92 -229 -262s108 -262 229 -262s229 92 229 262s-108 262 -229 262zM327 939l194 -119c-4 -28 -14 -49 -32 -64l-214 84z" />
<glyph unicode="&#xd3;" horiz-adv-x="774" d="M387 -10c-176 0 -337 118 -337 360s161 360 337 360s337 -118 337 -360s-161 -360 -337 -360zM387 612c-121 0 -229 -92 -229 -262s108 -262 229 -262s229 92 229 262s-108 262 -229 262zM264 820l194 119l52 -99l-214 -84c-18 15 -28 36 -32 64z" />
<glyph unicode="&#xd4;" horiz-adv-x="774" d="M387 -10c-176 0 -337 118 -337 360s161 360 337 360s337 -118 337 -360s-161 -360 -337 -360zM387 612c-121 0 -229 -92 -229 -262s108 -262 229 -262s229 92 229 262s-108 262 -229 262zM220 811l167 119l167 -119c-6 -23 -23 -46 -39 -58l-128 73l-128 -73 c-16 12 -33 35 -39 58z" />
<glyph unicode="&#xd5;" horiz-adv-x="774" d="M387 -10c-176 0 -337 118 -337 360s161 360 337 360s337 -118 337 -360s-161 -360 -337 -360zM387 612c-121 0 -229 -92 -229 -262s108 -262 229 -262s229 92 229 262s-108 262 -229 262zM268 779c-27 5 -50 24 -56 52c24 42 69 67 115 67c67 0 79 -38 129 -38 c30 0 50 15 66 38c27 -5 50 -24 56 -52c-24 -42 -69 -67 -115 -67c-67 0 -79 38 -129 38c-30 0 -50 -15 -66 -38z" />
<glyph unicode="&#xd6;" horiz-adv-x="774" d="M387 -10c-176 0 -337 118 -337 360s161 360 337 360s337 -118 337 -360s-161 -360 -337 -360zM387 612c-121 0 -229 -92 -229 -262s108 -262 229 -262s229 92 229 262s-108 262 -229 262zM426 846c0 36 29 65 65 65s65 -29 65 -65s-29 -65 -65 -65s-65 29 -65 65z M246 846c0 36 29 65 65 65s65 -29 65 -65s-29 -65 -65 -65s-65 29 -65 65z" />
<glyph unicode="&#xd7;" horiz-adv-x="470" d="M118 165l-65 65l117 117l-117 117l65 65l117 -117l117 117l65 -65l-117 -117l117 -117l-65 -65l-117 117z" />
<glyph unicode="&#xd8;" horiz-adv-x="774" d="M387 -10c-57 0 -112 12 -161 37l-25 -37c-33 4 -62 22 -78 50l27 41c-61 60 -100 149 -100 269c0 242 161 360 337 360c57 0 112 -12 161 -37l25 37c33 -4 62 -22 78 -50l-27 -41c61 -60 100 -149 100 -269c0 -242 -161 -360 -337 -360zM387 612 c-121 0 -229 -92 -229 -262c0 -75 20 -134 54 -177l279 415c-32 16 -67 24 -104 24zM616 350c0 75 -20 134 -54 177l-279 -415c32 -16 67 -24 104 -24c121 0 229 92 229 262z" />
<glyph unicode="&#xd9;" horiz-adv-x="692" d="M520 294v406h108v-404c0 -207 -108 -306 -282 -306s-282 99 -282 306v404h108v-406c0 -148 77 -206 174 -206s174 58 174 206zM275 939l194 -119c-4 -28 -14 -49 -32 -64l-214 84z" />
<glyph unicode="&#xda;" horiz-adv-x="692" d="M520 294v406h108v-404c0 -207 -108 -306 -282 -306s-282 99 -282 306v404h108v-406c0 -148 77 -206 174 -206s174 58 174 206zM234 820l194 119l52 -99l-214 -84c-18 15 -28 36 -32 64z" />
<glyph unicode="&#xdb;" horiz-adv-x="692" d="M520 294v406h108v-404c0 -207 -108 -306 -282 -306s-282 99 -282 306v404h108v-406c0 -148 77 -206 174 -206s174 58 174 206zM179 811l167 119l167 -119c-6 -23 -23 -46 -39 -58l-128 73l-128 -73c-16 12 -33 35 -39 58z" />
<glyph unicode="&#xdc;" horiz-adv-x="692" d="M520 294v406h108v-404c0 -207 -108 -306 -282 -306s-282 99 -282 306v404h108v-406c0 -148 77 -206 174 -206s174 58 174 206zM385 846c0 36 29 65 65 65s65 -29 65 -65s-29 -65 -65 -65s-65 29 -65 65zM205 846c0 36 29 65 65 65s65 -29 65 -65s-29 -65 -65 -65 s-65 29 -65 65z" />
<glyph unicode="&#xdd;" horiz-adv-x="566" d="M229 0v234c-106 162 -166 279 -209 466h114c38 -162 83 -248 149 -346c66 98 111 184 149 346h114c-43 -187 -103 -304 -209 -466v-234h-108zM171 820l194 119l52 -99l-214 -84c-18 15 -28 36 -32 64z" />
<glyph unicode="&#xde;" horiz-adv-x="585" d="M68 0v700h108v-130h101c156 0 260 -81 260 -220c0 -144 -110 -221 -248 -221c-41 0 -77 2 -113 11v-140h-108zM429 353c0 71 -57 119 -155 119h-98v-227c36 -13 72 -18 111 -18c87 0 142 48 142 126z" />
<glyph unicode="&#xdf;" horiz-adv-x="512" d="M160 0h-100v512c0 132 91 198 194 198c102 0 184 -56 184 -155c0 -97 -81 -129 -81 -177c0 -60 121 -78 121 -216c0 -116 -89 -172 -181 -172c-48 0 -85 8 -108 18c0 35 10 66 25 88c30 -13 51 -18 78 -18c55 0 93 30 93 82c0 91 -121 108 -121 215c0 77 74 105 74 169 c0 47 -37 82 -86 82c-54 0 -92 -46 -92 -109v-517z" />
<glyph unicode="&#xe0;" d="M514 416v-236c0 -60 20 -89 65 -102c-4 -41 -16 -69 -36 -88c-55 4 -96 43 -106 83c-41 -57 -93 -83 -161 -83c-134 0 -232 91 -232 250s117 250 251 250c88 0 162 -32 219 -74zM285 78c77 0 129 55 129 147v136c-36 25 -71 41 -124 41c-86 0 -144 -70 -144 -162 s50 -162 139 -162zM229 719l194 -119c-4 -28 -14 -49 -32 -64l-214 84z" />
<glyph unicode="&#xe1;" d="M514 416v-236c0 -60 20 -89 65 -102c-4 -41 -16 -69 -36 -88c-55 4 -96 43 -106 83c-41 -57 -93 -83 -161 -83c-134 0 -232 91 -232 250s117 250 251 250c88 0 162 -32 219 -74zM285 78c77 0 129 55 129 147v136c-36 25 -71 41 -124 41c-86 0 -144 -70 -144 -162 s50 -162 139 -162zM190 600l194 119l52 -99l-214 -84c-18 15 -28 36 -32 64z" />
<glyph unicode="&#xe2;" d="M514 416v-236c0 -60 20 -89 65 -102c-4 -41 -16 -69 -36 -88c-55 4 -96 43 -106 83c-41 -57 -93 -83 -161 -83c-134 0 -232 91 -232 250s117 250 251 250c88 0 162 -32 219 -74zM285 78c77 0 129 55 129 147v136c-36 25 -71 41 -124 41c-86 0 -144 -70 -144 -162 s50 -162 139 -162zM141 591l167 119l167 -119c-6 -23 -23 -46 -39 -58l-128 73l-128 -73c-16 12 -33 35 -39 58z" />
<glyph unicode="&#xe3;" d="M514 416v-236c0 -60 20 -89 65 -102c-4 -41 -16 -69 -36 -88c-55 4 -96 43 -106 83c-41 -57 -93 -83 -161 -83c-134 0 -232 91 -232 250s117 250 251 250c88 0 162 -32 219 -74zM285 78c77 0 129 55 129 147v136c-36 25 -71 41 -124 41c-86 0 -144 -70 -144 -162 s50 -162 139 -162zM183 559c-27 5 -50 24 -56 52c24 42 69 67 115 67c67 0 79 -38 129 -38c30 0 50 15 66 38c27 -5 50 -24 56 -52c-24 -42 -69 -67 -115 -67c-67 0 -79 38 -129 38c-30 0 -50 -15 -66 -38z" />
<glyph unicode="&#xe4;" d="M514 416v-236c0 -60 20 -89 65 -102c-4 -41 -16 -69 -36 -88c-55 4 -96 43 -106 83c-41 -57 -93 -83 -161 -83c-134 0 -232 91 -232 250s117 250 251 250c88 0 162 -32 219 -74zM285 78c77 0 129 55 129 147v136c-36 25 -71 41 -124 41c-86 0 -144 -70 -144 -162 s50 -162 139 -162zM331 626c0 36 29 65 65 65s65 -29 65 -65s-29 -65 -65 -65s-65 29 -65 65zM151 626c0 36 29 65 65 65s65 -29 65 -65s-29 -65 -65 -65s-65 29 -65 65z" />
<glyph unicode="&#xe5;" d="M514 416v-236c0 -60 20 -89 65 -102c-4 -41 -16 -69 -36 -88c-55 4 -96 43 -106 83c-41 -57 -93 -83 -161 -83c-134 0 -232 91 -232 250s117 250 251 250c88 0 162 -32 219 -74zM285 78c77 0 129 55 129 147v136c-36 25 -71 41 -124 41c-86 0 -144 -70 -144 -162 s50 -162 139 -162zM200 644c0 58 46 104 104 104s104 -46 104 -104s-46 -104 -104 -104s-104 46 -104 104zM268 644c0 -20 16 -36 36 -36s36 16 36 36s-16 36 -36 36s-36 -16 -36 -36z" />
<glyph unicode="&#xe6;" horiz-adv-x="866" d="M546 158c-32 0 -54 1 -75 5c24 -54 79 -89 140 -89c66 0 107 24 159 78c29 -13 51 -38 60 -65c-54 -59 -129 -97 -222 -97c-90 0 -165 34 -204 90c-38 -54 -96 -90 -182 -90c-96 0 -178 55 -178 157c0 98 79 155 182 155c63 0 96 -14 130 -28v33c0 52 -40 99 -99 99 c-48 0 -89 -29 -108 -64c-30 6 -64 26 -74 46c25 55 94 102 179 102c79 0 137 -32 170 -87c49 57 125 87 204 87c123 0 182 -65 182 -145c0 -104 -126 -187 -264 -187zM625 406c-92 0 -163 -74 -167 -166c27 -6 47 -8 75 -8c126 0 177 46 177 109c0 34 -31 65 -85 65z M234 74c57 0 122 47 122 106v9c-42 22 -83 37 -117 37c-60 0 -95 -30 -95 -76c0 -44 33 -76 90 -76z" />
<glyph unicode="&#xe7;" horiz-adv-x="541" d="M227 -220c-6 7 -9 21 -9 32c0 10 3 25 9 32c40 0 61 6 61 29c0 15 -14 25 -41 25c-7 0 -15 -1 -24 -3l27 98c-110 17 -206 105 -206 247c0 159 116 250 251 250c95 0 160 -38 198 -102c-16 -27 -41 -43 -74 -58c-26 42 -73 74 -123 74c-96 0 -150 -69 -150 -164 c0 -94 57 -162 153 -162c55 0 98 24 134 72c32 -9 59 -30 70 -55c-45 -60 -102 -97 -182 -104l-17 -45c35 -9 61 -34 61 -74c0 -61 -54 -92 -138 -92z" />
<glyph unicode="&#xe8;" horiz-adv-x="554" d="M498 345c0 -136 -150 -183 -336 -192c23 -48 69 -79 136 -79c68 0 111 26 160 78c28 -14 48 -36 60 -65c-57 -60 -125 -97 -222 -97c-148 0 -252 91 -252 230c0 174 130 270 272 270c123 0 182 -65 182 -145zM144 234v-5c158 8 254 44 254 112c0 38 -31 65 -85 65 c-92 0 -169 -73 -169 -172zM235 719l194 -119c-4 -28 -14 -49 -32 -64l-214 84z" />
<glyph unicode="&#xe9;" horiz-adv-x="554" d="M498 345c0 -136 -150 -183 -336 -192c23 -48 69 -79 136 -79c68 0 111 26 160 78c28 -14 48 -36 60 -65c-57 -60 -125 -97 -222 -97c-148 0 -252 91 -252 230c0 174 130 270 272 270c123 0 182 -65 182 -145zM144 234v-5c158 8 254 44 254 112c0 38 -31 65 -85 65 c-92 0 -169 -73 -169 -172zM168 600l194 119l52 -99l-214 -84c-18 15 -28 36 -32 64z" />
<glyph unicode="&#xea;" horiz-adv-x="554" d="M498 345c0 -136 -150 -183 -336 -192c23 -48 69 -79 136 -79c68 0 111 26 160 78c28 -14 48 -36 60 -65c-57 -60 -125 -97 -222 -97c-148 0 -252 91 -252 230c0 174 130 270 272 270c123 0 182 -65 182 -145zM144 234v-5c158 8 254 44 254 112c0 38 -31 65 -85 65 c-92 0 -169 -73 -169 -172zM136 591l167 119l167 -119c-6 -23 -23 -46 -39 -58l-128 73l-128 -73c-16 12 -33 35 -39 58z" />
<glyph unicode="&#xeb;" horiz-adv-x="554" d="M498 345c0 -136 -150 -183 -336 -192c23 -48 69 -79 136 -79c68 0 111 26 160 78c28 -14 48 -36 60 -65c-57 -60 -125 -97 -222 -97c-148 0 -252 91 -252 230c0 174 130 270 272 270c123 0 182 -65 182 -145zM144 234v-5c158 8 254 44 254 112c0 38 -31 65 -85 65 c-92 0 -169 -73 -169 -172zM329 626c0 36 29 65 65 65s65 -29 65 -65s-29 -65 -65 -65s-65 29 -65 65zM149 626c0 36 29 65 65 65s65 -29 65 -65s-29 -65 -65 -65s-65 29 -65 65z" />
<glyph unicode="&#xec;" horiz-adv-x="220" d="M60 0v480h100v-480h-100zM39 719l194 -119c-4 -28 -14 -49 -32 -64l-214 84z" />
<glyph unicode="&#xed;" horiz-adv-x="220" d="M60 0v480h100v-480h-100zM-13 600l194 119l52 -99l-214 -84c-18 15 -28 36 -32 64z" />
<glyph unicode="&#xee;" horiz-adv-x="220" d="M60 0v480h100v-480h-100zM-57 591l167 119l167 -119c-6 -23 -23 -46 -39 -58l-128 73l-128 -73c-16 12 -33 35 -39 58z" />
<glyph unicode="&#xef;" horiz-adv-x="220" d="M60 0v480h100v-480h-100zM135 626c0 36 29 65 65 65s65 -29 65 -65s-29 -65 -65 -65s-65 29 -65 65zM-45 626c0 36 29 65 65 65s65 -29 65 -65s-29 -65 -65 -65s-65 29 -65 65z" />
<glyph unicode="&#xf0;" horiz-adv-x="592" d="M293 511l-24 67l77 29c-17 8 -37 15 -60 15c-40 0 -71 -9 -97 -21c-21 19 -31 46 -32 81c29 14 81 28 123 28c73 0 127 -26 167 -66l112 43l24 -67l-93 -35c40 -74 53 -169 53 -249c0 -231 -111 -346 -254 -346c-134 0 -245 100 -245 250s109 250 236 250 c74 0 123 -22 165 -59c-7 36 -22 82 -45 120zM289 402c-80 0 -143 -59 -143 -162s65 -162 144 -162c86 0 153 89 158 232c-38 52 -92 92 -159 92z" />
<glyph unicode="&#xf1;" horiz-adv-x="551" d="M391 0v288c0 72 -43 114 -116 114c-44 0 -88 -21 -115 -45v-357h-100v402c61 53 133 88 226 88c132 0 205 -72 205 -199v-291h-100zM148 559c-27 5 -50 24 -56 52c24 42 69 67 115 67c67 0 79 -38 129 -38c30 0 50 15 66 38c27 -5 50 -24 56 -52 c-24 -42 -69 -67 -115 -67c-67 0 -79 38 -129 38c-30 0 -50 -15 -66 -38z" />
<glyph unicode="&#xf2;" horiz-adv-x="588" d="M294 490c132 0 250 -91 250 -250s-118 -250 -250 -250s-250 91 -250 250s118 250 250 250zM294 402c-88 0 -148 -65 -148 -162s60 -162 148 -162s148 65 148 162s-60 162 -148 162zM234 719l194 -119c-4 -28 -14 -49 -32 -64l-214 84z" />
<glyph unicode="&#xf3;" horiz-adv-x="588" d="M294 490c132 0 250 -91 250 -250s-118 -250 -250 -250s-250 91 -250 250s118 250 250 250zM294 402c-88 0 -148 -65 -148 -162s60 -162 148 -162s148 65 148 162s-60 162 -148 162zM166 600l194 119l52 -99l-214 -84c-18 15 -28 36 -32 64z" />
<glyph unicode="&#xf4;" horiz-adv-x="588" d="M294 490c132 0 250 -91 250 -250s-118 -250 -250 -250s-250 91 -250 250s118 250 250 250zM294 402c-88 0 -148 -65 -148 -162s60 -162 148 -162s148 65 148 162s-60 162 -148 162zM127 591l167 119l167 -119c-6 -23 -23 -46 -39 -58l-128 73l-128 -73 c-16 12 -33 35 -39 58z" />
<glyph unicode="&#xf5;" horiz-adv-x="588" d="M294 490c132 0 250 -91 250 -250s-118 -250 -250 -250s-250 91 -250 250s118 250 250 250zM294 402c-88 0 -148 -65 -148 -162s60 -162 148 -162s148 65 148 162s-60 162 -148 162zM167 559c-27 5 -50 24 -56 52c24 42 69 67 115 67c67 0 79 -38 129 -38 c30 0 50 15 66 38c27 -5 50 -24 56 -52c-24 -42 -69 -67 -115 -67c-67 0 -79 38 -129 38c-30 0 -50 -15 -66 -38z" />
<glyph unicode="&#xf6;" horiz-adv-x="588" d="M294 490c132 0 250 -91 250 -250s-118 -250 -250 -250s-250 91 -250 250s118 250 250 250zM294 402c-88 0 -148 -65 -148 -162s60 -162 148 -162s148 65 148 162s-60 162 -148 162zM319 626c0 36 29 65 65 65s65 -29 65 -65s-29 -65 -65 -65s-65 29 -65 65zM139 626 c0 36 29 65 65 65s65 -29 65 -65s-29 -65 -65 -65s-65 29 -65 65z" />
<glyph unicode="&#xf7;" horiz-adv-x="490" d="M34 199v82h422v-82h-422zM166 416c0 41 33 74 74 74s74 -33 74 -74s-33 -74 -74 -74s-74 33 -74 74zM166 64c0 41 33 74 74 74s74 -33 74 -74s-33 -74 -74 -74s-74 33 -74 74z" />
<glyph unicode="&#xf8;" horiz-adv-x="588" d="M294 490c43 0 83 -10 119 -27l25 31c31 -6 60 -29 73 -55l-25 -32c36 -41 58 -97 58 -167c0 -159 -118 -250 -250 -250c-43 0 -83 10 -119 27l-25 -31c-31 6 -60 29 -73 55l25 32c-36 41 -58 97 -58 167c0 159 118 250 250 250zM294 402c-88 0 -148 -65 -148 -162 c0 -34 7 -63 20 -88l189 238c-18 8 -39 12 -61 12zM442 240c0 34 -7 63 -20 88l-189 -238c18 -8 38 -12 61 -12c88 0 148 65 148 162z" />
<glyph unicode="&#xf9;" horiz-adv-x="551" d="M160 480v-288c0 -72 43 -114 116 -114c44 0 88 21 115 45v357h100v-402c-61 -53 -133 -88 -226 -88c-132 0 -205 72 -205 199v291h100zM206 719l194 -119c-4 -28 -14 -49 -32 -64l-214 84z" />
<glyph unicode="&#xfa;" horiz-adv-x="551" d="M160 480v-288c0 -72 43 -114 116 -114c44 0 88 21 115 45v357h100v-402c-61 -53 -133 -88 -226 -88c-132 0 -205 72 -205 199v291h100zM157 600l194 119l52 -99l-214 -84c-18 15 -28 36 -32 64z" />
<glyph unicode="&#xfb;" horiz-adv-x="551" d="M160 480v-288c0 -72 43 -114 116 -114c44 0 88 21 115 45v357h100v-402c-61 -53 -133 -88 -226 -88c-132 0 -205 72 -205 199v291h100zM105 591l167 119l167 -119c-6 -23 -23 -46 -39 -58l-128 73l-128 -73c-16 12 -33 35 -39 58z" />
<glyph unicode="&#xfc;" horiz-adv-x="551" d="M160 480v-288c0 -72 43 -114 116 -114c44 0 88 21 115 45v357h100v-402c-61 -53 -133 -88 -226 -88c-132 0 -205 72 -205 199v291h100zM300 626c0 36 29 65 65 65s65 -29 65 -65s-29 -65 -65 -65s-65 29 -65 65zM120 626c0 36 29 65 65 65s65 -29 65 -65s-29 -65 -65 -65 s-65 29 -65 65z" />
<glyph unicode="&#xfd;" horiz-adv-x="547" d="M158 480v-281c0 -72 44 -121 116 -121c44 0 84 16 113 41v361h100v-486c0 -138 -77 -224 -215 -224c-104 0 -172 46 -204 96c12 38 40 60 69 70c28 -49 76 -78 134 -78c76 0 116 49 116 124v43c-32 -22 -72 -35 -123 -35c-132 0 -206 84 -206 201v289h100zM161 600 l194 119l52 -99l-214 -84c-18 15 -28 36 -32 64z" />
<glyph unicode="&#xfe;" horiz-adv-x="583" d="M60 -220v912c26 19 61 29 100 29v-283c34 30 81 52 142 52c136 0 237 -92 237 -250c0 -152 -110 -250 -242 -250c-52 0 -100 12 -137 37v-247h-100zM296 402c-81 0 -136 -61 -136 -153v-116c28 -33 78 -55 130 -55c91 0 147 65 147 162s-56 162 -141 162z" />
<glyph unicode="&#xff;" horiz-adv-x="547" d="M158 480v-281c0 -72 44 -121 116 -121c44 0 84 16 113 41v361h100v-486c0 -138 -77 -224 -215 -224c-104 0 -172 46 -204 96c12 38 40 60 69 70c28 -49 76 -78 134 -78c76 0 116 49 116 124v43c-32 -22 -72 -35 -123 -35c-132 0 -206 84 -206 201v289h100zM299 626 c0 36 29 65 65 65s65 -29 65 -65s-29 -65 -65 -65s-65 29 -65 65zM119 626c0 36 29 65 65 65s65 -29 65 -65s-29 -65 -65 -65s-65 29 -65 65z" />
<glyph unicode="&#x131;" horiz-adv-x="220" d="M60 0v480h100v-480h-100z" />
<glyph unicode="&#x141;" horiz-adv-x="610" d="M35 176l-40 72l93 53v399h108v-337l133 76l40 -72l-173 -99v-170h372v-98h-480v206z" />
<glyph unicode="&#x142;" horiz-adv-x="308" d="M30 174l-40 72l96 55v391c26 19 61 29 100 29v-362l66 38l40 -72l-106 -61v-149c0 -21 10 -35 31 -35c6 0 10 1 14 2c12 -23 17 -44 17 -79c-16 -6 -34 -9 -52 -9c-74 0 -110 38 -110 119v93z" />
<glyph unicode="&#x152;" horiz-adv-x="1129" d="M387 -10c-176 0 -337 118 -337 360s161 360 337 360c85 0 167 -28 229 -84v74h465v-98h-357v-188h237v-98h-237v-218h367v-98h-475v74c-62 -56 -144 -84 -229 -84zM387 612c-121 0 -229 -92 -229 -262s108 -262 229 -262s229 92 229 262s-108 262 -229 262z" />
<glyph unicode="&#x153;" horiz-adv-x="953" d="M897 345c0 -136 -150 -183 -336 -192c23 -48 69 -79 136 -79c68 0 111 26 160 78c28 -14 48 -36 60 -65c-57 -60 -125 -97 -222 -97c-89 0 -162 32 -206 88c-47 -57 -118 -88 -195 -88c-132 0 -250 91 -250 250s118 250 250 250c82 0 158 -35 204 -100 c51 65 132 100 217 100c123 0 182 -65 182 -145zM294 402c-88 0 -148 -65 -148 -162s60 -162 148 -162s148 65 148 162s-60 162 -148 162zM544 229c158 8 255 44 255 112c0 34 -33 65 -87 65c-90 0 -165 -70 -168 -177z" />
<glyph unicode="&#x160;" d="M179 531c0 -58 48 -88 155 -119c147 -43 216 -92 216 -216c0 -126 -110 -206 -245 -206c-148 0 -237 91 -261 200c20 19 53 31 87 31c6 0 11 0 17 -1c14 -74 76 -132 157 -132c82 0 139 37 139 105c0 61 -33 101 -163 133c-134 33 -204 102 -204 202c0 96 75 182 230 182 c113 0 184 -58 223 -120c-14 -31 -46 -56 -75 -66c-37 57 -88 96 -149 96c-79 0 -127 -36 -127 -89zM304 753l-167 119c6 23 23 46 39 58l128 -73l128 73c16 -12 33 -35 39 -58z" />
<glyph unicode="&#x161;" horiz-adv-x="486" d="M163 359c0 -38 39 -60 122 -76c97 -19 157 -54 157 -135c0 -96 -82 -158 -190 -158c-103 0 -194 59 -212 155c19 16 43 25 72 25c6 0 13 0 20 -1c16 -66 64 -94 123 -94c52 0 92 23 92 64c0 40 -28 57 -120 76c-83 17 -156 53 -156 139c0 91 82 136 179 136 c85 0 140 -35 174 -74c-14 -33 -32 -50 -60 -66c-25 36 -64 62 -115 62c-53 0 -86 -21 -86 -53zM252 533l-167 119c6 23 23 46 39 58l128 -73l128 73c16 -12 33 -35 39 -58z" />
<glyph unicode="&#x178;" horiz-adv-x="566" d="M229 0v234c-106 162 -166 279 -209 466h114c38 -162 83 -248 149 -346c66 98 111 184 149 346h114c-43 -187 -103 -304 -209 -466v-234h-108zM308 846c0 36 29 65 65 65s65 -29 65 -65s-29 -65 -65 -65s-65 29 -65 65zM128 846c0 36 29 65 65 65s65 -29 65 -65 s-29 -65 -65 -65s-65 29 -65 65z" />
<glyph unicode="&#x17d;" horiz-adv-x="570" d="M47 602v98h473v-43c0 -102 -68 -175 -194 -315c-91 -101 -157 -173 -165 -244h373v-98h-500v44c0 130 92 231 216 360c75 79 133 143 141 198h-344zM277 753l-167 119c6 23 23 46 39 58l128 -73l128 73c16 -12 33 -35 39 -58z" />
<glyph unicode="&#x17e;" horiz-adv-x="441" d="M49 400v80h339v-32c0 -174 -230 -244 -244 -368h260v-80h-371v40c0 178 218 246 249 360h-233zM220 533l-167 119c6 23 23 46 39 58l128 -73l128 73c16 -12 33 -35 39 -58z" />
<glyph unicode="&#x192;" horiz-adv-x="376" d="M117 -69v602c0 107 70 177 172 177c46 0 78 -12 107 -33c-3 -37 -21 -59 -38 -79c-18 18 -40 28 -64 28c-49 0 -77 -33 -77 -89v-57h137v-80h-137v-457c0 -107 -52 -173 -154 -173c-44 0 -74 12 -99 33c3 37 18 61 38 77c18 -18 37 -26 58 -26c39 0 57 32 57 77z" />
<glyph unicode="&#x2c6;" horiz-adv-x="406" d="M36 591l167 119l167 -119c-6 -23 -23 -46 -39 -58l-128 73l-128 -73c-16 12 -33 35 -39 58z" />
<glyph unicode="&#x2c7;" horiz-adv-x="406" d="M203 533l-167 119c6 23 23 46 39 58l128 -73l128 73c16 -12 33 -35 39 -58z" />
<glyph unicode="&#x2d8;" horiz-adv-x="294" d="M256 641c-9 -44 -48 -79 -109 -79s-100 35 -109 79c13 19 40 31 70 31c3 -25 18 -39 39 -39s36 14 39 39c30 0 57 -12 70 -31z" />
<glyph unicode="&#x2d9;" horiz-adv-x="220" d="M40 626c0 39 31 70 70 70s70 -31 70 -70s-31 -70 -70 -70s-70 31 -70 70z" />
<glyph unicode="&#x2da;" horiz-adv-x="288" d="M40 644c0 58 46 104 104 104s104 -46 104 -104s-46 -104 -104 -104s-104 46 -104 104zM108 644c0 -20 16 -36 36 -36s36 16 36 36s-16 36 -36 36s-36 -16 -36 -36z" />
<glyph unicode="&#x2db;" horiz-adv-x="253" d="M206 -220c-112 0 -152 44 -152 107c0 45 29 98 90 143l65 -30c-62 -45 -74 -78 -74 -104c0 -31 25 -49 71 -49c5 -6 7 -19 7 -33s-2 -28 -7 -34z" />
<glyph unicode="&#x2dc;" horiz-adv-x="430" d="M88 559c-27 5 -50 24 -56 52c24 42 69 67 115 67c67 0 79 -38 129 -38c30 0 50 15 66 38c27 -5 50 -24 56 -52c-24 -42 -69 -67 -115 -67c-67 0 -79 38 -129 38c-30 0 -50 -15 -66 -38z" />
<glyph unicode="&#x2dd;" horiz-adv-x="465" d="M217 552l153 165l75 -79l-180 -138c-20 8 -39 30 -48 52zM20 552l153 165l75 -79l-180 -138c-20 8 -39 30 -48 52z" />
<glyph unicode="&#x2206;" horiz-adv-x="674" d="M18 0l268 700h102l268 -700h-638zM337 566l-178 -476h356z" />
<glyph unicode="&#x2126;" horiz-adv-x="746" d="M373 710c169 0 327 -106 327 -319c0 -133 -73 -242 -137 -301h112v-90h-256v70c78 65 173 183 173 325c0 140 -103 215 -219 215s-219 -75 -219 -215c0 -142 95 -260 173 -325v-70h-256v90h112c-64 59 -137 168 -137 301c0 213 158 319 327 319z" />
<glyph unicode="&#x2013;" horiz-adv-x="504" d="M34 291v92h436v-92h-436z" />
<glyph unicode="&#x2014;" horiz-adv-x="875" d="M34 291v92h807v-92h-807z" />
<glyph unicode="&#x2018;" horiz-adv-x="248" d="M214 678l-81 -195l-99 48l120 179c25 -4 45 -15 60 -32z" />
<glyph unicode="&#x2019;" horiz-adv-x="248" d="M34 515l81 195l99 -48l-120 -179c-25 4 -45 15 -60 32z" />
<glyph unicode="&#x201a;" horiz-adv-x="248" d="M34 -79l81 195l99 -48l-120 -179c-25 4 -45 15 -60 32z" />
<glyph unicode="&#x201c;" horiz-adv-x="400" d="M214 678l-81 -195l-99 48l120 179c25 -4 45 -15 60 -32zM366 678l-81 -195l-99 48l120 179c25 -4 45 -15 60 -32z" />
<glyph unicode="&#x201d;" horiz-adv-x="400" d="M186 515l81 195l99 -48l-120 -179c-25 4 -45 15 -60 32zM34 515l81 195l99 -48l-120 -179c-25 4 -45 15 -60 32z" />
<glyph unicode="&#x201e;" horiz-adv-x="400" d="M186 -79l81 195l99 -48l-120 -179c-25 4 -45 15 -60 32zM34 -79l81 195l99 -48l-120 -179c-25 4 -45 15 -60 32z" />
<glyph unicode="&#x2020;" horiz-adv-x="394" d="M36 386v94h107v220h108v-220h107v-94h-107v-556h-108v556h-107z" />
<glyph unicode="&#x2021;" horiz-adv-x="394" d="M36 386v94h107v220h108v-220h107v-94h-107v-242h107v-94h-107v-220h-108v220h-107v94h107v242h-107z" />
<glyph unicode="&#x2022;" horiz-adv-x="296" d="M54 350c0 53 41 94 94 94s94 -41 94 -94s-41 -94 -94 -94s-94 41 -94 94z" />
<glyph unicode="&#x2030;" horiz-adv-x="989" d="M508 328c52 0 100 -22 133 -58c33 36 81 58 133 58c93 0 174 -68 174 -169s-81 -169 -174 -169c-52 0 -100 22 -133 58c-33 -36 -81 -58 -133 -58c-93 0 -174 68 -174 169s81 169 174 169zM215 710c93 0 174 -68 174 -169s-81 -169 -174 -169s-174 68 -174 169 s81 169 174 169zM104 246l476 275l39 -67l-476 -275zM774 254c-55 0 -92 -42 -92 -95s37 -95 92 -95s92 42 92 95s-37 95 -92 95zM508 254c-55 0 -92 -42 -92 -95s37 -95 92 -95s92 42 92 95s-37 95 -92 95zM215 636c-55 0 -92 -42 -92 -95s37 -95 92 -95s92 42 92 95 s-37 95 -92 95z" />
<glyph unicode="&#x2039;" horiz-adv-x="346" d="M59 332l186 198c25 -11 48 -36 56 -65l-146 -155l146 -155c-8 -29 -31 -54 -56 -65l-186 198v44z" />
<glyph unicode="&#x203a;" horiz-adv-x="346" d="M101 530l186 -198v-44l-186 -198c-25 11 -48 36 -56 65l146 155l-146 155c8 29 31 54 56 65z" />
<glyph unicode="&#x2044;" horiz-adv-x="603" d="M44 246l476 275l39 -67l-476 -275z" />
<glyph unicode="&#x20ac;" horiz-adv-x="710" d="M28 394v86h70c43 153 163 230 298 230c128 0 211 -61 261 -157c-17 -32 -56 -55 -90 -60c-36 72 -89 119 -171 119s-150 -47 -184 -132h238v-86h-258c-2 -14 -2 -29 -2 -44c0 -16 0 -30 2 -44h258v-86h-239c33 -86 99 -132 184 -132c90 0 132 49 173 139 c36 -3 76 -23 96 -50c-52 -124 -145 -187 -273 -187c-135 0 -252 76 -293 230h-70v86h56c-1 14 -2 29 -2 44s1 30 2 44h-56z" />
<glyph unicode="&#x2122;" horiz-adv-x="843" d="M26 636v64h304v-64h-114v-336h-76v336h-114zM626 300h-72c-35 130 -58 194 -112 287v-287h-76v400h97c66 -105 98 -170 127 -275c29 105 61 170 127 275h97v-400h-76v287c-54 -93 -77 -157 -112 -287z" />
<glyph unicode="&#x2202;" horiz-adv-x="587" d="M441 421c-11 94 -73 203 -166 203c-40 0 -64 -6 -92 -22c-21 19 -32 46 -33 81c29 14 80 27 129 27c179 0 264 -174 264 -384c0 -230 -111 -336 -254 -336c-134 0 -245 93 -245 243s112 239 236 239c74 0 121 -20 161 -51zM289 384c-77 0 -143 -55 -143 -151 c0 -99 65 -155 144 -155c86 0 151 77 156 223c-36 46 -92 83 -157 83z" />
<glyph unicode="&#x220f;" horiz-adv-x="640" d="M68 0v700h504v-700h-108v602h-288v-602h-108z" />
<glyph unicode="&#x2211;" horiz-adv-x="567" d="M374 350l-203 -262h351v-88h-480v77l217 273l-201 273v77h443v-88h-315z" />
<glyph unicode="&#x2212;" horiz-adv-x="490" d="M34 301v92h422v-92h-422z" />
<glyph unicode="&#x221a;" horiz-adv-x="606" d="M490 700h94l-285 -700h-82l-105 285h-88v84h152l84 -243z" />
<glyph unicode="&#x221e;" horiz-adv-x="727" d="M207 534c61 0 109 -29 142 -66c32 50 83 84 155 84c124 0 183 -87 183 -199c0 -113 -63 -204 -194 -204c-78 0 -133 38 -164 81c-30 -36 -72 -62 -126 -62c-94 0 -163 74 -163 181s75 185 167 185zM386 340c-4 -15 -8 -25 -14 -44c23 -36 64 -68 124 -68 c74 0 106 62 106 125c0 66 -35 123 -96 123c-71 0 -102 -66 -120 -136zM308 369l7 27c-25 38 -62 65 -102 65c-55 0 -94 -45 -94 -112c0 -66 31 -106 90 -106c56 0 80 51 99 126z" />
<glyph unicode="&#x222b;" horiz-adv-x="376" d="M117 -69v602c0 107 70 177 172 177c46 0 78 -12 107 -33c-3 -37 -21 -59 -38 -79c-18 18 -40 28 -64 28c-49 0 -77 -33 -77 -89v-594c0 -107 -52 -173 -154 -173c-44 0 -74 12 -99 33c3 37 18 61 38 77c18 -18 37 -26 58 -26c39 0 57 32 57 77z" />
<glyph unicode="&#x2248;" horiz-adv-x="458" d="M85 334c-28 5 -50 26 -55 54c23 43 70 71 118 71c67 0 105 -39 155 -39c29 0 54 18 70 42c28 -5 50 -26 55 -54c-23 -43 -70 -71 -118 -71c-67 0 -105 39 -155 39c-29 0 -54 -18 -70 -42zM85 161c-28 5 -50 26 -55 54c23 43 70 71 118 71c67 0 105 -39 155 -39 c29 0 54 18 70 42c28 -5 50 -26 55 -54c-23 -43 -70 -71 -118 -71c-67 0 -105 39 -155 39c-29 0 -54 -18 -70 -42z" />
<glyph unicode="&#x2260;" horiz-adv-x="490" d="M34 374v86h236l93 161l75 -43l-68 -118h86v-86h-135l-51 -88h186v-86h-236l-93 -161l-75 43l68 118h-86v86h135l51 88h-186z" />
<glyph unicode="&#x3c0;" horiz-adv-x="671" d="M37 400v80h566v-80h-118v-260c0 -38 17 -64 53 -64c24 0 33 6 51 23c19 -16 36 -36 40 -68c-29 -26 -56 -41 -106 -41c-90 0 -138 59 -138 146v264h-147v-400h-100v400h-101z" />
<glyph unicode="&#x2264;" horiz-adv-x="506" d="M59 426l348 190c23 -20 40 -51 41 -83l-276 -146l276 -146c-1 -32 -18 -63 -41 -83l-348 190v78zM42 0v92h422v-92h-422z" />
<glyph unicode="&#x2265;" horiz-adv-x="506" d="M102 616l348 -190v-78l-348 -190c-23 20 -40 51 -41 83l276 146l-276 146c1 32 18 63 41 83zM42 0v92h422v-92h-422z" />
<glyph unicode="&#x25ca;" horiz-adv-x="592" d="M255 0l-237 350l237 350h82l237 -350l-237 -350h-82zM296 598l-163 -248l163 -248l163 248z" />
<glyph unicode="&#x2026;" horiz-adv-x="732" d="M68 64c0 41 33 74 74 74s74 -33 74 -74s-33 -74 -74 -74s-74 33 -74 74zM292 64c0 41 33 74 74 74s74 -33 74 -74s-33 -74 -74 -74s-74 33 -74 74zM516 64c0 41 33 74 74 74s74 -33 74 -74s-33 -74 -74 -74s-74 33 -74 74z" />
<glyph unicode="&#x22;" horiz-adv-x="355" d="M215 494l-12 206h94l-12 -206c-9 -3 -26 -4 -35 -4s-26 1 -35 4zM70 494l-12 206h94l-12 -206c-9 -3 -26 -4 -35 -4s-26 1 -35 4z" />
<glyph unicode="!" horiz-adv-x="284" d="M91 218v482h102v-482h-102zM68 64c0 41 33 74 74 74s74 -33 74 -74s-33 -74 -74 -74s-74 33 -74 74z" />
</font>
</defs>
</svg>
